<?xml version="1.0" encoding="UTF-8"?>
<svg width="178px" height="6px" viewBox="0 0 178 6" version="1.1" xmlns="http://www.w3.org/2000/svg" xmlns:xlink="http://www.w3.org/1999/xlink">
    <title>new-divider</title>
    <g id="Page-1" stroke="none" stroke-width="1" fill="none" fill-rule="evenodd">
        <g id="page002" transform="translate(-584.000000, -1669.000000)" fill="#8F7865">
            <g id="new-divider" transform="translate(584.000000, 1669.000000)">
                <path d="M174.291087,1.53242743 C151.685087,0.981427425 129.076087,0.577427425 106.464087,0.323427425 C83.9370874,0.0704274254 61.4070874,-0.0335725746 38.8770874,0.0094274254 C26.1580874,0.0344274254 13.4380874,0.106427425 0.719087377,0.225427425 C-0.377912623,0.235427425 0,1.36542743 0.414087377,1.96542743 C0.977087377,2.78242743 2.18908738,3.89142743 3.27508738,3.88142743 C25.8860874,3.67142743 48.4990874,3.60742743 71.1120874,3.69442743 C93.6410874,3.78142743 116.170087,4.01542743 138.696087,4.39842743 C151.414087,4.61542743 164.130087,4.87842743 176.846087,5.18842743 C177.957087,5.21542743 177.547087,4.02342743 177.152087,3.44942743 C176.571087,2.60442743 175.393087,1.55942743 174.291087,1.53242743" id="Fill-1"></path>
            </g>
        </g>
    </g>
</svg>