<?xml version="1.0" encoding="UTF-8"?>
<svg width="454px" height="26px" viewBox="0 0 454 26" version="1.1" xmlns="http://www.w3.org/2000/svg" xmlns:xlink="http://www.w3.org/1999/xlink">
    <title>new-divider</title>
    <g id="Page-1" stroke="none" stroke-width="1" fill="none" fill-rule="evenodd">
        <g id="page001" transform="translate(-523.000000, -1787.000000)" fill="#8F7865">
            <g id="new-divider" transform="translate(523.000000, 1787.000000)">
                <path d="M236.207639,19.8441985 C227.231074,19.27451 231.18949,5.63363375 240.882934,3.92456805 C248.519249,10.7291815 244.560833,23.8003691 236.924518,20.2239909 C236.394651,22.7559401 234.431028,25.9208766 234.431028,25.9208766 C234.431028,25.9208766 234.244016,25.9208766 233.932329,25.7626298 C233.620643,25.6043829 233.495969,25.3195387 233.495969,25.3195387 C233.495969,25.3195387 235.116737,24.2118109 235.833616,22.2811996 C236.581663,20.318939 236.207639,19.8441985 236.207639,19.8441985 L236.207639,19.8441985 Z" id="Path"></path>
                <path d="M243.407593,10.6658828 C243.407593,9.68475245 243.158244,8.57702468 242.846558,7.34269945 C243.407593,8.45042722 243.781617,9.55815499 243.999797,10.7608308 L243.407593,10.6658828 L243.407593,10.6658828 Z M238.70113,13.8308192 L238.825804,14.0207154 L240.415405,13.1345332 L240.695922,10.2227916 L241.599813,10.3810385 C241.973836,8.38712849 241.506307,5.79188058 240.695922,4.39930853 C240.695922,4.39930853 237.298542,5.12724392 235.085569,8.13393357 L236.145302,8.54537531 C236.363483,8.1972323 236.768675,7.50094628 237.205036,6.99455644 C237.79724,6.26662105 238.389444,5.82352994 238.389444,5.82352994 C237.766071,6.77301089 237.267373,7.72249183 236.799843,8.79857023 L238.732299,9.55815499 L238.607624,9.87464864 L237.766071,12.0268054 L238.70113,13.8308192 L238.70113,13.8308192 Z M239.106322,9.84299927 L238.732299,12.0584548 L239.106322,13.640923 L238.171263,12.1850523 L239.106322,9.84299927 Z" id="Shape"></path>
                <path d="M242.534872,16.8375089 C241.973836,18.578224 240.727091,19.622653 239.324503,20.0973935 C240.851766,20.0024454 242.316691,19.1162632 243.282919,16.8058595 L242.534872,16.8375089 L242.534872,16.8375089 Z M235.553098,8.79857023 C233.24662,9.62145372 231.781694,12.2167016 232.062212,14.5587546 C232.436235,17.9452367 235.303749,19.2428606 238.358275,19.5593543 C239.012816,18.578224 239.137491,17.3755481 238.888142,16.5526646 C238.01542,15.7614305 236.519326,15.4449368 235.334918,15.4449368 C235.303749,15.4765862 235.241412,15.6664824 235.210243,15.6981318 C232.186886,13.8624686 233.838824,10.1278436 235.490761,9.52650562 L235.241412,10.0328955 C233.714149,11.3938181 234.025835,13.3877281 235.085569,14.3055597 L236.581663,13.0079358 L237.454385,13.3244294 L237.672565,10.4126878 L237.672565,10.3493891 L236.644,10.1911423 L236.737506,9.33660943 L235.553098,8.79857023 L235.553098,8.79857023 Z M236.799843,14.1789622 C238.451781,15.1284432 239.418008,15.0651445 239.418008,15.0651445 L239.760863,16.4893659 C239.760863,16.4893659 239.262165,15.634833 238.327106,15.2233913 C237.423216,14.8435989 236.207639,15.1600926 236.207639,15.1600926 L236.238808,14.5271053 L236.799843,14.1789622 L236.799843,14.1789622 Z M241.19462,12.1217535 L241.537475,13.9257673 C241.537475,13.9257673 242.036173,13.7358711 242.503703,13.1978319 C242.971232,12.6914421 243.189413,12.248351 243.189413,12.248351 C243.189413,12.248351 242.005005,12.5331953 241.19462,12.1217535 Z" id="Shape"></path>
                <path d="M227.386917,20.8886276 C228.695999,19.1795619 232.99727,18.5465746 233.215451,16.1412229 C233.340125,14.6537027 231.657019,13.4193775 233.714149,11.8369093 C234.929726,10.9190777 234.992063,8.98846642 232.99727,8.10228421 C231.127153,7.24775136 232.747921,6.10837422 232.186886,4.68415281 C231.40767,2.78519092 229.288203,4.08281488 228.727168,1.55086569 C228.353144,-0.0316025462 227.075231,0 227.075231,0 C227.075231,0 225.734979,-0.0316025462 225.392124,1.55086569 C224.831089,4.08281488 222.680454,2.78519092 221.932406,4.68415281 C221.340202,6.10837422 222.99214,7.24775136 221.122022,8.10228421 C219.12723,8.98846642 219.189567,10.9190777 220.405144,11.8369093 C222.462273,13.3877281 220.779167,14.6220534 220.903842,16.1412229 C221.122022,18.7048214 226.015497,19.27451 226.981725,21.26842 C226.888219,23.0724338 227.012893,24.7814995 227.199905,25.7942791 C227.449254,26.0791234 227.979121,26.047474 228.290807,25.7309804 C228.290807,25.7309804 227.293411,23.4205768 227.418086,21.4583162 C227.32458,21.2367706 227.355748,21.0468744 227.386917,20.8886276 Z" id="Path"></path>
                <path d="M231.220659,7.15280326 C231.501176,5.3171401 230.846635,4.49425662 230.347937,3.98786678 C230.347937,3.98786678 231.40767,4.39930853 231.657019,5.25384138 C231.906368,6.10837422 231.625851,6.74136152 231.532345,7.0262058 L231.220659,7.15280326 L231.220659,7.15280326 Z M227.792109,1.20272268 C227.792109,1.20272268 228.321976,1.89900871 228.851843,3.60807441 C229.350541,5.28549074 229.475215,7.50094628 229.444047,7.50094628 L228.789505,7.56424501 L229.257035,10.6342334 L227.947952,12.1534029 L227.916784,12.1217535 L226.358352,10.5076359 L226.545364,8.70362214 L226.670038,7.59589437 L224.114211,7.27940072 C223.646681,6.01342613 224.020705,4.84239963 224.020705,4.84239963 C223.428501,5.4120882 223.272658,6.26662105 223.490838,7.18445263 L222.898634,7.05785517 C222.680454,6.32991978 222.431105,5.38043883 223.241489,4.52590598 C224.051873,3.7030225 225.236281,4.27271107 225.672642,2.91178838 C226.077834,1.55086569 226.85705,1.04447586 227.792109,1.20272268 Z" id="Shape"></path>
                <path d="M233.090776,8.60867404 C233.651812,8.89351833 234.057004,9.49485626 234.057004,10.1911423 C234.057004,10.8874283 233.651812,11.4887662 233.090776,11.7736105 C233.402463,11.3621688 233.589474,10.8241296 233.589474,10.1911423 C233.589474,9.58980435 233.402463,9.02011579 233.090776,8.60867404 L233.090776,8.60867404 Z M229.942745,9.55815499 L230.628455,11.203922 L231.40767,8.98846642 L229.942745,9.55815499 L229.942745,9.55815499 Z M226.358352,11.9635067 L225.454462,11.9951561 L224.893426,14.0840142 L224.176548,13.4193775 L225.111607,17.6920417 L225.392124,15.3183394 L226.919387,14.7486508 L229.101192,14.7486508 C229.412878,15.5715343 229.568721,17.3122494 229.13236,18.7364708 C229.13236,18.7364708 228.477819,18.926367 227.916784,19.3061593 C227.885615,18.7364708 227.854446,17.7553405 227.76094,16.8058595 C227.386917,17.7553405 227.137568,18.926367 227.012893,20.1290428 C226.888219,19.8758479 226.576532,19.3378087 225.734979,18.7997695 C224.550571,18.0401848 222.399936,17.5337949 221.714226,16.3944178 C221.028516,15.2550407 222.057081,14.3688584 221.838901,13.0079358 C221.62072,11.7419612 220.342806,11.1406232 220.560987,9.68475245 C220.779167,8.26053103 222.431105,7.62754373 223.615513,7.81743992 C222.805128,8.2921804 221.838901,10.6658828 222.493442,12.8496889 L223.709018,12.9129877 L223.241489,12.4698965 C223.085646,11.8369093 223.023309,11.0773245 223.116814,10.4443372 L224.675246,12.2167016 L223.241489,9.43155753 C223.366163,8.89351833 223.584344,8.2921804 223.864862,7.84908929 L224.612909,8.00733611 L224.893426,8.86186896 L225.672642,8.70362214 L226.358352,11.9635067 L226.358352,11.9635067 Z M225.641474,13.7042218 L225.828485,14.3055597 L227.605097,13.6725724 L229.693396,13.6725724 L228.883011,12.8496889 L226.202509,12.8496889 L225.641474,13.7042218 L225.641474,13.7042218 Z M229.59989,12.8496889 L230.347937,12.8496889 L230.472611,14.3688584 L229.59989,12.8496889 Z" id="Shape"></path>
                <path d="M218.254508,20.4771858 C213.797394,22.0280047 210.337676,18.3883278 210.025989,13.4510269 C209.745472,8.79857023 211.83377,6.36156914 211.584421,4.01951615 C221.932406,5.63363375 225.236281,17.4704962 218.690869,20.318939 C219.033724,22.2495503 219.002555,24.3700577 218.846712,25.7626298 C218.628532,26.0791234 218.098665,26.0791234 217.75581,25.7626298 C217.75581,25.7626298 218.566194,23.2623299 218.285677,20.5404846 L218.254508,20.4771858 L218.254508,20.4771858 Z" id="Path"></path>
                <path d="M212.207794,4.74745154 C212.581817,7.0262058 210.368844,9.02011579 210.867542,13.7358711 L211.927276,13.4826762 C211.428578,10.9823764 211.927276,8.64032341 212.238962,7.69084246 C212.270131,8.98846642 212.332468,9.84299927 212.51948,10.9190777 C214.077911,10.6975321 215.293488,11.3305194 216.228547,12.3116497 C216.197378,11.1722726 216.602571,10.3177397 217.225943,9.62145372 C216.072704,7.59589437 214.233755,5.88682867 212.207794,4.74745154 L212.207794,4.74745154 Z M218.254508,8.92516769 L217.599967,9.2733107 C217.599967,9.2733107 217.568798,7.81743992 216.415559,6.45651724 C216.38439,6.42486787 216.353221,6.39321851 216.290884,6.32991978 C217.724641,7.24775136 219.064892,8.86186896 219.875277,10.4443372 L219.189567,10.8557789 C218.909049,10.1594929 218.597363,9.49485626 218.254508,8.92516769 Z" id="Shape"></path>
                <path d="M220.654493,14.0523648 C221.122022,15.8563786 220.841504,17.5337949 219.844108,18.7997695 C221.028516,17.8186392 221.62072,16.0779241 221.122022,13.6725724 L220.654493,14.0523648 L220.654493,14.0523648 Z M211.303903,14.5587546 C211.428578,15.5715343 212.145456,17.4388468 213.766225,18.3883278 L213.735056,19.3061593 L213.735056,19.3061593 L213.735056,19.3061593 C214.857127,20.3822377 216.945425,20.2239909 218.161002,19.6543024 C218.098665,18.4199771 217.631135,16.7742102 217.163606,16.0462748 L215.01297,16.7425608 L215.137645,18.8630682 L215.137645,18.8630682 C214.763621,17.9135873 214.358429,16.9957557 213.984406,16.0462748 C213.080515,15.4132875 212.706492,14.5271053 212.612986,14.242261 L212.612986,14.2739103 L211.303903,14.5587546 L211.303903,14.5587546 Z M214.358429,15.5398849 C213.516876,15.0334951 213.142852,13.9257673 212.924672,13.1978319 L212.394805,13.3560788 L212.145456,11.6470131 L212.768829,11.4571169 L213.20519,12.2800004 L214.015574,12.0901042 L214.483104,11.7419612 L216.353221,13.0079358 L216.540233,12.2800004 L217.225943,13.7358711 L216.696076,13.9574167 L216.290884,13.7675205 L215.761017,13.9574167 L215.01297,13.3877281 L215.355825,14.4954559 L214.358429,15.5398849 L214.358429,15.5398849 Z M217.412955,11.6786624 L218.503857,12.596494 C218.753206,12.2167016 218.846712,11.4254675 218.348014,10.6658828 L217.412955,11.6786624 L217.412955,11.6786624 Z M218.877881,13.9890661 L219.438916,15.28669 L219.34541,13.8308192 C219.34541,13.8308192 218.940218,13.9890661 218.877881,13.9890661 L218.877881,13.9890661 Z M217.132437,14.7803002 L219.033724,15.1917419 L217.693473,15.28669 L215.69868,15.982976 L215.729849,15.2233913 L217.132437,14.7803002 Z" id="Shape"></path>
                <path d="M174.291087,10.5324274 C151.685087,9.98142743 129.076087,9.57742743 106.464087,9.32342743 C83.9370874,9.07042743 61.4070874,8.96642743 38.8770874,9.00942743 C26.1580874,9.03442743 13.4380874,9.10642743 0.719087377,9.22542743 C-0.377912623,9.23542743 0,10.3654274 0.414087377,10.9654274 C0.977087377,11.7824274 2.18908738,12.8914274 3.27508738,12.8814274 C25.8860874,12.6714274 48.4990874,12.6074274 71.1120874,12.6944274 C93.6410874,12.7814274 116.170087,13.0154274 138.696087,13.3984274 C151.414087,13.6154274 164.130087,13.8784274 176.846087,14.1884274 C177.957087,14.2154274 177.547087,13.0234274 177.152087,12.4494274 C176.571087,11.6044274 175.393087,10.5594274 174.291087,10.5324274" id="Fill-1"></path>
                <path d="M268.774987,14.6945274 C292.325987,15.6975274 315.891987,16.3475274 339.462987,16.6345274 C362.866987,16.9215274 386.275987,16.8525274 409.677987,16.4305274 C422.956987,16.1915274 436.232987,15.8365274 449.503987,15.3705274 C450.646987,15.3305274 451.983987,14.9075274 452.781987,14.0445274 C453.395987,13.3815274 453.260987,12.6055274 452.213987,12.6425274 C428.656987,13.4695274 405.086987,13.9425274 381.513987,14.0535274 C358.108987,14.1645274 334.700987,13.9215274 311.301987,13.3245274 C298.025987,12.9855274 284.753987,12.5315274 271.484987,11.9665274 C270.373987,11.9195274 268.964987,12.4725274 268.207987,13.2925274 C267.545987,14.0065274 267.768987,14.6515274 268.774987,14.6945274" id="Fill-6"></path>
            </g>
        </g>
    </g>
</svg>