<svg width="35" height="26" viewBox="0 0 35 26" fill="none" xmlns="http://www.w3.org/2000/svg">
<g clip-path="url(#clip0_201_2)">
<path fill-rule="evenodd" clip-rule="evenodd" d="M26.2076 19.8443C17.231 19.2746 21.1895 5.63369 30.8829 3.92462C38.5192 10.7292 34.5608 23.8004 26.9245 20.224C26.3946 22.756 24.431 25.9209 24.431 25.9209C24.431 25.9209 24.244 25.9209 23.9323 25.7627C23.6206 25.6044 23.4959 25.3196 23.4959 25.3196C23.4959 25.3196 25.1167 24.2119 25.8336 22.2813C26.5816 20.319 26.2076 19.8443 26.2076 19.8443Z" fill="#8F7865"/>
<path fill-rule="evenodd" clip-rule="evenodd" d="M33.4076 10.6659C33.4076 9.6848 33.1582 8.57707 32.8465 7.34274C33.4076 8.45047 33.7816 9.5582 33.9998 10.7609L33.4076 10.6659ZM28.7011 13.8309L28.8258 14.0208L30.4154 13.1346L30.6959 10.2228L31.5998 10.3811C31.9738 8.38717 31.5063 5.79193 30.6959 4.39935C30.6959 4.39935 27.2985 5.12729 25.0855 8.13398L26.1453 8.54542C26.3635 8.19728 26.7686 7.50099 27.205 6.9946C27.7972 6.26667 28.3894 5.82357 28.3894 5.82357C27.766 6.77306 27.2673 7.72254 26.7998 8.79861L28.7323 9.5582L28.6076 9.87469L27.766 12.0268L28.7011 13.8309ZM29.1063 9.84304L28.7323 12.0585L29.1063 13.641L28.1712 12.1851L29.1063 9.84304Z" fill="#8F7865"/>
<path fill-rule="evenodd" clip-rule="evenodd" d="M32.5348 16.8376C31.9738 18.5783 30.7271 19.6227 29.3245 20.0975C30.8518 20.0025 32.3167 19.1163 33.2829 16.8059L32.5348 16.8376ZM25.5531 8.79865C23.2466 9.62153 21.7817 12.2168 22.0622 14.5588C22.4362 17.9453 25.3037 19.2429 28.3583 19.5594C29.0128 18.5783 29.1375 17.3756 28.8881 16.5527C28.0154 15.7615 26.5193 15.445 25.3349 15.445C25.3037 15.4767 25.2414 15.6666 25.2102 15.6982C22.1869 13.8625 23.8388 10.1279 25.4907 9.52658L25.2414 10.033C23.7141 11.3939 24.0258 13.3878 25.0856 14.3056L26.5816 13.008L27.4544 13.3245L27.6725 10.4128V10.3495L26.644 10.1912L26.7375 9.33668L25.5531 8.79865ZM26.7998 14.179C28.4518 15.1285 29.418 15.0652 29.418 15.0652L29.7608 16.4894C29.7608 16.4894 29.2621 15.6349 28.3271 15.2235C27.4232 14.8437 26.2076 15.1602 26.2076 15.1602L26.2388 14.5272L26.7998 14.179ZM31.1946 12.1218L31.5375 13.9258C31.5375 13.9258 32.0362 13.7359 32.5037 13.1979C32.9712 12.6915 33.1894 12.2484 33.1894 12.2484C33.1894 12.2484 32.005 12.5333 31.1946 12.1218Z" fill="#8F7865"/>
<path fill-rule="evenodd" clip-rule="evenodd" d="M17.3869 20.8887C18.696 19.1796 22.9973 18.5466 23.2154 16.1413C23.3401 14.6537 21.657 13.4194 23.7141 11.837C24.9297 10.9191 24.9921 8.98851 22.9973 8.10233C21.1271 7.2478 22.7479 6.10842 22.1869 4.6842C21.4077 2.78524 19.2882 4.08286 18.7272 1.55091C18.3531 -0.031556 17.0752 4.66167e-05 17.0752 4.66167e-05C17.0752 4.66167e-05 15.735 -0.031556 15.3921 1.55091C14.8311 4.08286 12.6804 2.78524 11.9324 4.6842C11.3402 6.10842 12.9921 7.2478 11.122 8.10233C9.12722 8.98851 9.18957 10.9191 10.4051 11.837C12.4623 13.3878 10.7792 14.6221 10.9038 16.1413C11.122 18.7049 16.0155 19.2746 16.9817 21.2685C16.8882 23.0725 17.0129 24.7815 17.1999 25.7943C17.4492 26.0792 17.9791 26.0475 18.2908 25.731C18.2908 25.731 17.2934 23.4206 17.4181 21.4584C17.3246 21.2368 17.3557 21.0469 17.3869 20.8887Z" fill="#8F7865"/>
<path fill-rule="evenodd" clip-rule="evenodd" d="M21.2206 7.15283C21.5011 5.31717 20.8466 4.49428 20.3479 3.98789C20.3479 3.98789 21.4076 4.39934 21.657 5.25387C21.9063 6.1084 21.6258 6.74139 21.5323 7.02623L21.2206 7.15283ZM17.7921 1.20275C17.7921 1.20275 18.3219 1.89904 18.8518 3.6081C19.3505 5.28552 19.4752 7.50097 19.444 7.50097L18.7895 7.56427L19.257 10.6343L17.9479 12.1534L17.9167 12.1218L16.3583 10.5077L16.5453 8.70365L16.67 7.59592L14.1142 7.27943C13.6466 6.01345 14.0207 4.84243 14.0207 4.84243C13.4285 5.41212 13.2726 6.26665 13.4908 7.18448L12.8986 7.05788C12.6804 6.32995 12.4311 5.38047 13.2414 4.52593C14.0518 3.70305 15.2362 4.27274 15.6726 2.91182C16.0778 1.55089 16.857 1.0445 17.7921 1.20275Z" fill="#8F7865"/>
<path fill-rule="evenodd" clip-rule="evenodd" d="M23.0908 8.6087C23.6518 8.89354 24.057 9.49488 24.057 10.1912C24.057 10.8874 23.6518 11.4888 23.0908 11.7736C23.4024 11.3622 23.5895 10.8242 23.5895 10.1912C23.5895 9.58983 23.4024 9.02014 23.0908 8.6087ZM19.9427 9.55818L20.6284 11.2039L21.4077 8.98849L19.9427 9.55818ZM16.3583 11.9635L15.4544 11.9952L14.8934 14.084L14.1765 13.4194L15.1116 17.6921L15.3921 15.3184L16.9194 14.7487H19.1012C19.4129 15.5716 19.5687 17.3123 19.1323 18.7365C19.1323 18.7365 18.4778 18.9264 17.9168 19.3062C17.8856 18.7365 17.8544 17.7554 17.7609 16.8059C17.3869 17.7554 17.1376 18.9264 17.0129 20.1291C16.8882 19.8759 16.5765 19.3378 15.735 18.7998C14.5506 18.0402 12.3999 17.5338 11.7142 16.3944C11.0285 15.2551 12.0571 14.3689 11.8389 13.008C11.6207 11.742 10.3428 11.1406 10.561 9.68477C10.7792 8.26055 12.4311 7.62757 13.6155 7.81746C12.8051 8.2922 11.8389 10.6659 12.4934 12.8497L13.709 12.913L13.2415 12.4699C13.0856 11.8369 13.0233 11.0773 13.1168 10.4444L14.6752 12.2167L13.2415 9.43158C13.3661 8.89354 13.5843 8.2922 13.8649 7.84911L14.6129 8.00736L14.8934 8.86189L15.6726 8.70364L16.3583 11.9635ZM15.6415 13.7042L15.8285 14.3056L17.6051 13.6726H19.6934L18.883 12.8497H16.2025L15.6415 13.7042ZM19.5999 12.8497H20.3479L20.4726 14.3689L19.5999 12.8497Z" fill="#8F7865"/>
<path fill-rule="evenodd" clip-rule="evenodd" d="M8.25447 20.4773C3.79736 22.0281 0.337646 18.3884 0.0259586 13.4511C-0.254558 8.79865 1.83375 6.36165 1.5844 4.01959C11.9324 5.63371 15.2363 17.4706 8.69085 20.319C9.0337 22.2496 9.00253 24.3701 8.84668 25.7627C8.6285 26.0792 8.09864 26.0792 7.75579 25.7627C7.75579 25.7627 8.56617 23.2624 8.28565 20.5406L8.25447 20.4773Z" fill="#8F7865"/>
<path fill-rule="evenodd" clip-rule="evenodd" d="M2.20776 4.7475C2.58178 7.02625 0.368805 9.02016 0.867503 13.7359L1.92724 13.4827C1.42854 10.9824 1.92725 8.64037 2.23893 7.69089C2.2701 8.98851 2.33244 9.84305 2.51945 10.9191C4.07788 10.6976 5.29345 11.3306 6.22851 12.3117C6.19734 11.1723 6.60253 10.3178 7.2259 9.6215C6.07266 7.59594 4.23372 5.88687 2.20776 4.7475ZM8.25447 8.92521L7.59992 9.27336C7.59992 9.27336 7.56876 7.81749 6.41552 6.45656C6.38435 6.42491 6.35318 6.39326 6.29084 6.32997C7.7246 7.2478 9.06485 8.86191 9.87524 10.4444L9.18952 10.8558C8.90901 10.1595 8.59732 9.4949 8.25447 8.92521Z" fill="#8F7865"/>
<path fill-rule="evenodd" clip-rule="evenodd" d="M10.6545 14.0524C11.122 15.8564 10.8415 17.5339 9.84409 18.7998C11.0285 17.8187 11.6207 16.078 11.122 13.6726L10.6545 14.0524ZM1.30389 14.5588C1.42857 15.5716 2.14544 17.4389 3.7662 18.3884L3.73505 19.3062C4.85712 20.3823 6.9454 20.2241 8.16098 19.6544C8.09864 18.42 7.63112 16.7743 7.16359 16.0463L5.01295 16.7426L5.13763 18.8631C4.76361 17.9137 4.35841 16.9958 3.98439 16.0463C3.0805 15.4134 2.70648 14.5272 2.61298 14.2423V14.274L1.30389 14.5588ZM4.35841 15.54C3.51686 15.0336 3.14283 13.9258 2.92465 13.1979L2.39479 13.3562L2.14545 11.6471L2.76881 11.4572L3.20517 12.2801L4.01556 12.0902L4.48309 11.742L6.35321 13.008L6.54022 12.2801L7.22592 13.7359L6.69606 13.9575L6.29086 13.7676L5.761 13.9575L5.01295 13.3878L5.3558 14.4955L4.35841 15.54ZM7.41293 11.6787L8.50385 12.5966C8.75319 12.2168 8.84669 11.4255 8.34799 10.666L7.41293 11.6787ZM8.87787 13.9891L9.4389 15.2868L9.3454 13.8309C9.3454 13.8309 8.94021 13.9891 8.87787 13.9891ZM7.13242 14.7804L9.03371 15.1918L7.69345 15.2868L5.69867 15.983L5.72983 15.2235L7.13242 14.7804Z" fill="#8F7865"/>
</g>
<defs>
<clipPath id="clip0_201_2">
<rect width="35" height="26" fill="white"/>
</clipPath>
</defs>
</svg>
