<?xml version="1.0" encoding="UTF-8"?>
<svg width="21px" height="34px" viewBox="0 0 21 34" version="1.1" xmlns="http://www.w3.org/2000/svg" xmlns:xlink="http://www.w3.org/1999/xlink">
    <title>arrow-right</title>
    <g id="Page-1" stroke="none" stroke-width="1" fill="none" fill-rule="evenodd">
        <g id="page002" transform="translate(-1388.000000, -1751.000000)" fill="#8F7865" fill-rule="nonzero">
            <g id="arrow-right" transform="translate(1388.000000, 1751.000000)">
                <path d="M2.56178229,2.33146284 C5.27213047,4.48900759 7.46971008,7.14997944 9.88704764,9.66711498 C11.0590901,10.8897237 12.2311325,12.1123324 13.622933,13.1191866 C14.9414807,14.1260408 16.5530391,14.9171405 17.6518289,16.1397492 C18.2378501,16.8589308 19.1901346,17.2185216 20.1424191,16.8589308 C20.8749457,16.5712582 21.3144616,15.6363221 20.7284403,14.9890587 C19.4831452,13.6226137 17.9448395,12.6876776 16.4797864,11.6089052 C15.0147334,10.5301329 13.7694383,9.30752418 12.5241432,8.01299734 C10.1068056,5.4958618 7.83597334,2.69105363 5.05237251,0.53350889 C4.39309863,0.0300817833 3.29430883,-0.257590849 2.48852964,0.317754416 C1.75600311,0.821181523 1.90250841,1.82803574 2.56178229,2.33146284 L2.56178229,2.33146284 Z" id="Path"></path>
                <path d="M17.0865323,15.3944728 C12.1516816,21.3511548 4.52509408,24.5528713 0.188407069,31.0307629 C-0.70883852,32.3710163 1.83335732,35.0515232 2.88014384,33.5623527 C7.21683085,27.0844611 14.8434184,23.8082861 19.7782691,17.9260627 C20.7502852,16.7347263 18.2828598,13.9797609 17.0865323,15.3944728 L17.0865323,15.3944728 Z" id="Path"></path>
            </g>
        </g>
    </g>
</svg>