<svg xmlns="http://www.w3.org/2000/svg" version="1.1" xmlns:xlink="http://www.w3.org/1999/xlink" xmlns:svgjs="http://svgjs.com/svgjs" width="512" height="512" x="0" y="0" viewBox="0 0 32 32" style="enable-background:new 0 0 512 512" xml:space="preserve" class=""><g><g><path d="m23.75 0h-15.5c-1.77002 0-3.20001 1.44-3.20001 3.20001v27.72998c0 .42999.25.81.64001.97998s.84003.09003 1.15003-.20001l3.87994-3.63 4.61005 3.69c.38995.31.95001.31 1.33997 0l4.61005-3.69 3.87994 3.63c.64001.64001 1.83002.13 1.79004-.77997v-27.72998c-.00001-1.76001-1.43-3.20001-3.20002-3.20001zm-4.15002 17.64996c-.94995 0-1.71997-.76996-1.71997-1.72998 0-.95001.77002-1.71997 1.71997-1.71997.96002 0 1.73004.76996 1.73004 1.71997 0 .96002-.77002 1.72998-1.73004 1.72998zm-8.93-8.94c0-.94995.77002-1.71997 1.73004-1.71997.94995 0 1.71997.77002 1.71997 1.71997 0 .96002-.77002 1.73004-1.71997 1.73004-.96002 0-1.73004-.77002-1.73004-1.73004zm3.45002 10.01001c-.10999 0-.22998-.01996-.34998-.06-.56-.20001-.85004-.81-.65002-1.35999l3.75-10.66998c.20001-.55005.79999-.85004 1.35999-.65002s.85003.79999.65001 1.35999l-3.75 10.67004c-.15002.44-.57.70996-1.01.70996z" fill="#000000" data-original="#000000" class=""></path></g></g></svg>