<?xml version="1.0" encoding="UTF-8"?>
<svg width="60px" height="20px" viewBox="0 0 60 20" version="1.1" xmlns="http://www.w3.org/2000/svg" xmlns:xlink="http://www.w3.org/1999/xlink">
    <title>long-arrow-right</title>
    <g id="Page-1" stroke="none" stroke-width="1" fill="none" fill-rule="evenodd">
        <g id="page002" transform="translate(-1280.000000, -1608.000000)" fill="#554639" fill-rule="nonzero">
            <g id="long-arrow-right" transform="translate(1310.000000, 1617.841607) scale(-1, 1) translate(-1310.000000, -1617.841607) translate(1280.000000, 1608.000000)">
                <path d="M49.2598112,1.38326784 C50.8385783,2.66334925 52.1186597,4.24211633 53.5267493,5.73554464 C54.2094594,6.46092411 54.8921694,7.18630358 55.7028877,7.7836749 C56.4709365,8.38104623 57.4096629,8.85040941 58.0497036,9.57578888 C58.3910586,10.0024827 58.9457606,10.2158296 59.5004625,10.0024827 C59.9271563,9.83180516 60.1831726,9.27710322 59.8418176,8.89307879 C59.1164381,8.08236056 58.2203811,7.52765862 57.3669935,6.88761791 C56.5136059,6.24757721 55.7882264,5.52219774 55.062847,4.75414889 C53.6547574,3.26072058 52.3320066,1.59661474 50.7105702,0.316533326 C50.3265457,0.017847663 49.686505,-0.152829859 49.2171419,0.188525185 C48.8331174,0.529880228 48.8757868,1.08458217 49.2598112,1.38326784 L49.2598112,1.38326784 Z" id="Path"></path>
                <path d="M57.8790261,9.02108693 C55.062847,12.4346374 50.7105702,14.2694207 48.2357461,17.9816568 C47.7237135,18.7497057 49.1744725,20.2858034 49.7718438,19.4324158 C52.2466679,15.7201797 56.5989447,13.8427269 59.4151238,10.4718459 C59.9698257,9.78913578 58.5617362,8.21036871 57.8790261,9.02108693 L57.8790261,9.02108693 Z" id="Path"></path>
                <path d="M51.7773047,8.55172375 C38.2937805,8.59439313 24.8529256,8.80774003 11.3694014,9.19176446 C7.61449593,9.3197726 3.85959046,9.40511136 0.104684979,9.57578888 C-0.194000684,9.57578888 0.23269312,10.258499 0.318031881,10.3438377 C0.446040022,10.5571846 0.915403207,11.3252335 1.21408887,11.3252335 C14.6549437,10.8558703 28.1384679,10.5145152 41.6219921,10.3865071 C45.3768976,10.3438377 49.1318031,10.3438377 52.8867086,10.3011683 C53.1853942,10.3011683 52.7587004,9.61845826 52.6733617,9.5331195 C52.5026841,9.27710322 52.0759903,8.55172375 51.7773047,8.55172375 L51.7773047,8.55172375 Z" id="Path"></path>
            </g>
        </g>
    </g>
</svg>