<?xml version="1.0" encoding="utf-8"?>
<!-- Generator: Adobe Illustrator 24.0.3, SVG Export Plug-In . SVG Version: 6.00 Build 0)  -->
<svg version="1.1" id="Layer_1" xmlns:svgjs="http://svgjs.com/svgjs"
	 xmlns="http://www.w3.org/2000/svg" xmlns:xlink="http://www.w3.org/1999/xlink" x="0px" y="0px" viewBox="0 0 512 512"
	 style="enable-background:new 0 0 512 512;" xml:space="preserve">
<g>
	<g>
		<g>
			<path d="M498.1,375.8l-71.5-71.5c-25.5-25.5-68.9-15.3-79.1,17.9c-7.7,23-33.2,35.7-56.1,30.6c-51-12.8-119.9-79.1-132.7-132.7
				c-7.7-23,7.7-48.5,30.6-56.1c33.2-10.2,43.4-53.6,17.9-79.1l-71.5-71.5c-20.4-17.9-51-17.9-68.9,0L18.3,61.9
				c-48.5,51,5.1,186.3,125,306.2s255.2,176.1,306.2,125l48.5-48.5C515.9,424.2,515.9,393.6,498.1,375.8z"/>
		</g>
	</g>
</g>
</svg>
