<?xml version="1.0" encoding="utf-8"?>
<!-- Generator: Adobe Illustrator 24.0.3, SVG Export Plug-In . SVG Version: 6.00 Build 0)  -->
<svg version="1.1" id="Layer_1" xmlns="http://www.w3.org/2000/svg" xmlns:xlink="http://www.w3.org/1999/xlink" x="0px" y="0px"
	 viewBox="0 0 171 171" style="enable-background:new 0 0 171 171;" xml:space="preserve">
<style type="text/css">
	.st0{fill:#010101;}
</style>
<path class="st0" d="M112,19.6c23,10.3,41.7,36.3,39.3,67.7c-2.6,32.8-26.7,57.6-56.7,62.9c-33.6,6-63.1-12.6-75-38.4
	c29,11.3,55.8,7.9,78.1-14.3C119.9,75.2,123.3,48.4,112,19.6z"/>
<path class="st0" d="M10.9,50.3c2.2-5.7,4.3-11.3,6.4-16.9c0.3-0.8-0.1-1.1-0.6-1.4c-4.1-3.1-8.2-6.2-12.3-9.3
	c-0.4-0.3-0.8-0.7-1.6-1.2c4.1,0,7.7,0,11.4,0c1.9,0,3.9-0.1,5.8,0c1.1,0.1,1.5-0.3,1.8-1.4c1.6-5.6,3.2-11.2,4.8-17
	c0.6,0.6,0.6,1.3,0.8,1.8c1.5,5.1,2.9,10.2,4.4,15.3c0.3,0.9,0.7,1.3,1.7,1.2c5.6-0.1,11.3,0,17.4,0c-4,3-7.6,5.8-11.2,8.5
	c-1.2,0.9-3,1.7-3.3,2.8c-0.3,1.2,0.8,2.8,1.3,4.1c1.5,3.9,3,7.8,4.4,11.8c0.2,0.5,0.6,1,0.3,1.8c-1.7-1.1-3.3-2.2-4.9-3.3
	c-3.2-2.1-6.4-4.2-9.5-6.4c-0.9-0.6-1.5-0.6-2.3,0c-4.4,3-8.8,6-13.2,8.9C12,49.9,11.7,50.4,10.9,50.3z"/>
<path class="st0" d="M61.6,82.2c2.2-5.7,4.3-11.3,6.4-16.9c0.3-0.8-0.2-1.1-0.7-1.4c-4.1-3.1-8.2-6.2-12.3-9.4
	c-0.4-0.3-0.8-0.6-1.5-1.2c5.9,0,11.4,0,17,0c1.3,0,1.8-0.3,2.1-1.6c1.5-5.6,3.2-11.1,4.9-17.2c1,3.3,1.8,6.1,2.6,8.9
	c0.8,2.8,1.6,5.6,2.4,8.5c0.3,1,0.6,1.4,1.8,1.4c5.1-0.1,10.2,0,15.3,0c0.5,0,1.1,0,2,0c-4.5,3.4-8.6,6.5-12.7,9.7
	c-2.1,1.6-2.1,1.6-1.2,4c1.7,4.5,3.4,9,5.1,13.5c0.2,0.5,0.7,1.1,0.3,1.9c-2.2-1.5-4.4-2.9-6.6-4.4c-2.5-1.7-5.1-3.4-7.5-5.1
	c-1-0.7-1.7-0.8-2.7,0c-4.3,3-8.7,5.9-13.1,8.8C62.7,81.9,62.3,82.4,61.6,82.2z"/>
<path class="st0" d="M136.1,146.6c3.9,0,7.4,0,10.9,0c1,0,1.4-0.3,1.8-1.2c1-3.1,2.1-6.1,3.3-9.6c1.2,3.4,2.3,6.3,3.3,9.3
	c0.4,1.3,1,1.6,2.2,1.5c3.4-0.1,6.8,0,10.6,0c-2.6,2.2-5,4.1-7.4,6c-2.5,2-2.5,2-1.5,5.1c1,2.8,1.9,5.6,2.9,8.5
	c0.1,0.4,0.4,0.8,0.2,1.5c-2.2-1.6-4.3-3.3-6.5-4.8c-1.2-0.9-2.4-2.6-3.8-2.5c-1.3,0.1-2.5,1.6-3.8,2.5c-2.2,1.6-4.3,3.2-6.9,5.2
	c1.3-3.8,2.4-7,3.5-10.3c1-3.1,1-3-1.5-5.1C141.1,150.7,138.8,148.8,136.1,146.6z"/>
</svg>
