<svg width="896" height="896" viewBox="0 0 896 896" fill="none" xmlns="http://www.w3.org/2000/svg">
<path d="M877.3 232.1C872.199 213.104 862.199 195.78 848.3 181.864C834.4 167.947 817.09 157.925 798.1 152.8C728.2 134 448 134 448 134C448 134 167.8 134 97.9 152.7C78.902 157.808 61.5825 167.825 47.6806 181.744C33.7787 195.663 23.7839 212.996 18.7 232C-3.8147e-06 302 0 448 0 448C0 448 -3.8147e-06 594 18.7 663.9C29 702.5 59.4 732.9 97.9 743.2C167.8 762 448 762 448 762C448 762 728.2 762 798.1 743.2C836.7 732.9 867 702.5 877.3 663.9C896 594 896 448 896 448C896 448 896 302 877.3 232.1ZM359 582V314L591 447L359 582Z" fill="black"/>
</svg>
