<svg width="501" height="129" xmlns="http://www.w3.org/2000/svg"><g fill="none" fill-rule="evenodd"><path d="M129.906 97.729c-44.487-2.806-24.87-69.985 23.17-78.401 37.844 33.511 18.226 97.884-19.618 80.271-2.626 12.47-12.357 28.057-12.357 28.057s-.927 0-2.472-.78c-1.544-.78-2.162-2.182-2.162-2.182s8.032-5.455 11.585-14.963c3.707-9.664 1.854-12.002 1.854-12.002z" fill="#077945"/><path d="M165.587 52.527c0-4.832-1.235-10.287-2.78-16.366 2.78 5.456 4.634 10.911 5.715 16.834l-2.935-.468zm-23.324 15.587l.618.935 7.877-4.364 1.39-14.34 4.48.78c1.854-9.82-.463-22.601-4.48-29.46 0 0-16.836 3.586-27.803 18.393l5.252 2.026c1.08-1.714 3.089-5.143 5.251-7.637 2.935-3.585 5.87-5.767 5.87-5.767-3.09 4.676-5.56 9.352-7.878 14.651l9.577 3.741-.618 1.559-4.17 10.599 4.634 8.884zm2.008-19.64l-1.854 10.912 1.854 7.793-4.634-7.17 4.634-11.534z" fill="#DEE896"/><path d="M161.262 82.922c-2.78 8.572-8.959 13.716-15.91 16.054 7.569-.468 14.829-4.832 19.617-16.21l-3.707.156zm-34.6-39.59c-11.43 4.052-18.69 16.833-17.3 28.367 1.853 16.678 16.064 23.068 31.202 24.627 3.243-4.832 3.861-10.755 2.626-14.807-4.325-3.897-11.74-5.456-17.61-5.456-.154.156-.463 1.091-.617 1.247-14.984-9.04-6.797-27.432 1.39-30.394l-1.236 2.494c-7.569 6.702-6.024 16.522-.772 21.042l7.414-6.39 4.325 1.558 1.081-14.34v-.311l-5.097-.78.463-4.208-5.87-2.65zm6.178 26.497c8.187 4.676 12.976 4.364 12.976 4.364l1.699 7.014s-2.472-4.208-7.106-6.235c-4.48-1.87-10.503-.311-10.503-.311l.154-3.118 2.78-1.714zm21.78-10.132l1.7 8.885s2.47-.935 4.788-3.585c2.317-2.494 3.398-4.676 3.398-4.676s-5.87 1.403-9.886-.624z" fill="#A5CE3A"/><path d="M86.192 102.873c6.487-8.417 27.803-11.535 28.885-23.38.618-7.326-7.724-13.405 2.471-21.199 6.024-4.52 6.333-14.028-3.553-18.392-9.268-4.208-1.235-9.82-4.016-16.834-3.861-9.352-14.365-2.961-17.145-15.43C90.98-.156 84.647 0 84.647 0s-6.642-.156-8.341 7.638c-2.78 12.469-13.439 6.078-17.146 15.43-2.935 7.014 5.252 12.626-4.016 16.834-9.886 4.364-9.577 13.872-3.553 18.392 10.195 7.638 1.854 13.717 2.472 21.198 1.08 12.626 25.332 15.431 30.12 25.251-.463 8.884.155 17.301 1.082 22.29 1.235 1.402 3.861 1.246 5.406-.313 0 0-4.943-11.378-4.325-21.042-.463-1.09-.309-2.026-.154-2.805z" fill="#077945"/><path d="M105.19 35.226c1.391-9.04-1.853-13.093-4.324-15.587 0 0 5.252 2.027 6.487 6.235 1.236 4.208-.154 7.326-.617 8.729l-1.545.623zM88.2 5.923s2.626 3.43 5.251 11.846c2.472 8.26 3.09 19.172 2.935 19.172l-3.243.311 2.317 15.12-6.488 7.481-.155-.156-7.723-7.949.927-8.884.618-5.456-12.666-1.558c-2.317-6.235-.464-12.002-.464-12.002-2.935 2.805-3.707 7.014-2.626 11.534l-2.935-.624c-1.08-3.584-2.317-8.26 1.7-12.469 4.016-4.052 9.885-1.247 12.048-7.95 2.008-6.701 5.87-9.195 10.504-8.416z" fill="#DEE896"/><path d="M114.459 42.396c2.78 1.403 4.788 4.364 4.788 7.793 0 3.43-2.008 6.39-4.788 7.794 1.545-2.027 2.471-4.676 2.471-7.794 0-2.961-.926-5.767-2.471-7.793zm-15.601 4.676l3.398 8.105 3.862-10.91-7.26 2.805zM81.094 58.918l-4.48.156-2.78 10.287-3.552-3.273 4.633 21.042 1.39-11.69 7.57-2.806h10.812c1.545 4.053 2.317 12.626.155 19.64 0 0-3.244.935-6.025 2.805-.154-2.805-.308-7.637-.772-12.313-1.853 4.676-3.09 10.443-3.707 16.366-.618-1.247-2.163-3.897-6.333-6.547-5.87-3.74-16.528-6.234-19.926-11.846-3.399-5.61 1.699-9.975.618-16.677-1.082-6.235-7.415-9.197-6.334-16.367 1.082-7.014 9.268-10.13 15.138-9.196-4.016 2.338-8.804 14.028-5.56 24.783l6.024.312-2.317-2.182c-.773-3.118-1.082-6.858-.618-9.976l7.723 8.729-7.105-13.716c.617-2.65 1.699-5.612 3.089-7.794l3.707.78 1.39 4.208 3.862-.78 3.398 16.055zm-3.553 8.573l.927 2.961 8.805-3.117h10.349l-4.016-4.053H80.322l-2.78 4.209zm19.618-4.209h3.707l.618 7.482-4.325-7.482z" fill="#A5CE3A"/><path d="M40.933 100.846C18.844 108.484 1.698 90.56.153 66.244c-1.39-22.913 8.96-34.915 7.724-46.449 51.283 7.95 67.656 66.244 35.218 80.272 1.7 9.508 1.545 19.951.773 26.81-1.081 1.558-3.707 1.558-5.407 0 0 0 4.017-12.314 2.626-25.719l-.154-.312z" fill="#077945"/><path d="M10.966 23.38c1.854 11.223-9.113 21.042-6.642 44.267L9.576 66.4c-2.471-12.314 0-23.848 1.545-28.524.154 6.39.463 10.599 1.39 15.898 7.723-1.09 13.748 2.027 18.382 6.858-.155-5.61 1.853-9.82 4.943-13.248-5.716-9.976-14.83-18.393-24.87-24.004zm29.967 20.575l-3.244 1.714s-.154-7.17-5.87-13.872l-.617-.623c7.105 4.52 13.747 12.469 17.763 20.262l-3.398 2.027c-1.39-3.43-2.935-6.703-4.634-9.508z" fill="#DEE896"/><path d="M52.827 69.205c2.317 8.885.927 17.146-4.016 23.38 5.87-4.832 8.804-13.404 6.333-25.25l-2.317 1.87zM6.487 71.7c.618 4.988 4.17 14.184 12.203 18.86l-.155 4.52c5.561 5.3 15.91 4.52 21.935 1.715-.31-6.08-2.626-14.184-4.943-17.77l-10.659 3.43.618 10.443c-1.853-4.676-3.861-9.196-5.715-13.872-4.48-3.117-6.333-7.482-6.796-8.885v.156L6.487 71.7zm15.138 4.832c-4.171-2.494-6.025-7.95-7.106-11.534l-2.626.78-1.235-8.418 3.089-.935 2.162 4.053 4.016-.936 2.317-1.714 9.268 6.235.927-3.585 3.399 7.17-2.626 1.09-2.008-.935-2.626.936-3.708-2.806 1.7 5.455-4.943 5.144zm15.137-19.016l5.407 4.52c1.235-1.87 1.699-5.767-.773-9.508l-4.634 4.988zm7.26 11.378l2.78 6.391-.463-7.17s-2.008.78-2.317.78zm-8.65 3.897l9.423 2.026-6.642.468-9.886 3.43.154-3.742 6.951-2.182z" fill="#A5CE3A"/><path d="M210.86 106.956c.16-2.372.637-57.723-.638-67.37l-5.737-1.108 1.115 27.044c.16 3.479-10.36 6.167-10.36 3.637l-.159-34.792c0-2.056 11.635 1.423 20.879 1.107 9.244-.475 19.922-3.954 19.922-2.056 0 1.898.478 8.54.16 13.126-.32 4.586-11.476 10.28-11.157 5.693l.956-13.442-6.215.474s.637 40.17 1.115 50.291c.638 9.963 2.231 11.545 2.39 14.866.479 2.847-12.59 6.8-12.271 2.53z" fill="#E7332B"/><path d="M237.766 115.347c.146-.473.293-.947 0-1.578v1.578zm0-27.47l10.706-9.63c-1.173-8.998-1.173-16.892-.733-24.312.146-3-5.133-4.262-9.827-3.315l-.293 5.368c1.027-.474 2.053-.316 2.053 1.894 0 4.736.587 23.05.587 23.05s-1.32 1.578-2.64 2.999l.147 3.947zm-11.88-30.784c0 .947 1.027 22.733 1.32 33.153.293 10.42.293 22.26.44 26.838.147 3.947 8.946 1.42 10.266-1.737v-1.578c-1.76-3.632-2.053-24.155-2.053-24.155l1.907-1.736-.147-3.947c-.733.79-1.173 1.579-1.76 2.052l-.587-26.838c0-1.105 1.174-2.526 2.347-3.157l.293-5.368c-.146 0-.44.158-.586.158-4.84 1.42-11.587 4.42-11.44 6.315zm24.671-11.303c.153-1.986 9.696-4.278 9.696-1.069l-.154 22.616c2.001-2.445 3.848-2.903 6.157-6.112.154-3.21.308-7.335.77-9.474.615-2.904 8.773-3.515 8.773-1.834 0 0-.616 19.101-.616 24.755s.462 17.88.924 19.56c1.231 4.737-10.928 5.043-10.928 3.515l.615-32.243-5.54 5.195c.461 7.182.923 14.365 1.846 17.268.924 2.903-.77 3.667-6.002 5.043-5.234 1.375-4.772-1.528-4.772-2.598 0-.917-.308-14.823-.308-21.547-.154-6.57-.615-22.616-.461-23.074zm53.457 55.162c5.273-1.372 14.113-5.335 13.182-8.993-2.171-8.84-8.374-14.175-8.064-26.369 0-1.22-2.481.153-5.118 1.83v16.765a3172.85 3172.85 0 015.118 8.84c-.62 1.525-2.947 2.744-5.118 3.354v4.573zm0-60.206c.155 0 .31 0 .466.152 0 5.335-.466 12.499-.156 15.242.31 3.658 10.08-1.676 9.926-5.334 0-3.811-.31-10.213-.31-14.328 0-.61-5.428-.61-10.08-.457v4.725h.154zm-17.524-.153s3.412 7.164 3.567 14.023c.465 14.175.776 36.733-1.706 45.726-.465 1.676 7.754 1.372 13.027 1.067.62 0 1.55-.153 2.636-.457v-4.573c-2.326.61-4.497.61-4.652-.762-.465-5.182-.465-12.956-.465-19.357 0-.61 2.481 3.658 5.117 7.925V67.42c-1.86 1.22-3.877 2.744-4.962 3.81-.31-8.535.31-17.223-2.016-29.416 1.395-.915 4.962-1.372 6.823-1.067V36.02c-1.706.152-3.412.152-4.497.305-3.877.762-13.492 2.59-12.872 4.267zm44.678 5.758c0-.306-1.363-.153-3.33.612v12.851c2.119 5.355 4.692 12.851 4.843 17.747.152 8.262-3.027 12.545-3.027 12.545a92.505 92.505 0 01-1.817-5.048v10.556c3.633-1.377 8.932-5.355 11.051-13.31 3.33-12.392-2.876-24.325-4.844-28.456-1.817-3.978-2.27-5.202-2.876-7.497zm-3.33.612c-4.845 1.683-13.322 6.885-13.625 17.747-.605 15.91 8.326 20.807 10.143 31.21.151.765 1.513.765 3.481.153V85.21c-3.481-9.792-7.266-22.337-2.573-31.516 0 0 1.21 2.6 2.573 6.12V46.962zm91.819 50.785c.32 0 .642-.154.963-.307 3.052-.923 10.281-2.922 10.602-6.92.322-3.845-6.746-18.454-6.746-18.454-.482-1.23-2.731-.154-4.98 1.23v11.534l3.695 6.766c.481.769-1.767 2.153-3.695 2.768v3.383h.16zm-13.173-40.751c-1.606 12.61-.963 27.526.804 41.059.16.922 8.353.461 12.208-.308v-3.075c-1.606.461-2.73.307-2.891-.923-.161-2.768-1.125-11.995-.322-15.224l3.213 5.843V73.605c-1.606.923-2.891 1.999-3.534 2.307-.321-3.537.16-13.994 1.285-21.376.16-2.614-10.441-.307-10.763 2.46zm27.606 38.656c-.3-12.267-1.648-27.994 0-41.204.45-3.303 9.29-3.775 9.14-2.36-1.648 14.155-1.798 26.422.3 39.79.599 4.089-10.04 5.819-9.44 3.774zm52.692-44.433c5.576-1.083 10.833-1.547 10.833.619.16 12.374.32 37.277 2.39 47.795.478 2.939-7.806 5.259-9.4 3.403-1.592-1.856-.796-24.594-.796-24.594-.956.619-2.07 1.392-3.186 2.011l.16-12.838c1.752 2.32 3.345 4.176 3.345 3.403 0 0-.478-13.148-.637-15.468-1.115 0-2.071 0-2.868.31l.16-4.641zm-12.266 45.475l-.16-14.54 9.559-7.579c-6.532-1.237-9.877-7.579-9.24-18.716 0-1.237 6.213-3.403 12.107-4.64l-.159 4.64c-5.894 1.392-2.867 7.734.16 11.756l-.16 12.838c-2.07 1.392-3.505 2.784-3.505 4.022 0 2.784.478 4.33.797 9.28.319 3.867-9.4 4.795-9.4 2.939zm-131.129 11.068s-.32-36.211-.32-44.84c0-3.544-.8-9.862-3.203-13.56-.641-2.311 26.587-5.393 26.908-3.698l.8 17.412c.16 2.774-9.29 7.704-9.29 5.085l.481-17.874-6.727 1.386c.48 16.18 2.243 46.843 3.364 52.545.48 2.773-12.333 6.471-12.013 3.544z" fill="#E7332B"/><path d="M373.105 63.316c1.313-2.58.985-5.16 0-7.284v-4.25c1.97-2.124 6.237-4.4 8.863-3.186 4.43 2.125 6.564 43.097 6.072 49.47-.328 5.008-10.832 7.436-10.832 4.097 0-1.365.164-18.968.164-18.968l-4.267 2.731V82.74l4.267-2.884c-.328-5.31-.656-10.622-1.64-14.264-.985 1.062-1.97 2.124-2.627 3.187v-5.463zm-4.43 25.949s.656 3.035 0 4.704c-1.314 3.035-11.49 5.766-11.325 2.124.164-3.641-.985-10.47 2.79-16.995 3.61-6.677 9.355-10.471 12.309-14.568.328-.455.492-.759.656-1.214v5.766c-2.954 4.25-4.103 8.802-4.267 16.844l4.267-2.883v3.187c-2.297 1.517-4.43 3.035-4.43 3.035zm4.43-33.081c-.328-.607-.492-1.063-.82-1.67-.328-.607 0-1.517.82-2.58v4.25z" fill="#E7332B"/><path d="M391.485 117.32c.154-2.343.154-68.283-.92-77.659h-6.751l.92 2.813c1.074 3.281-9.972 6.094-9.972 3.594l.153-10.47c0-2.03 12.428.313 21.326-.156 8.899-.468 19.332-3.906 19.332-2.031s.46 8.438.153 12.97c-.307 4.53-11.046 8.125-10.74 3.593l.921-11.25-6.137.469s.614 39.689 1.074 49.689c.614 9.844 2.455 22.657 2.608 25.782.307 2.969-12.274 6.72-11.967 2.656zm68.729-2.01c.165-.479.33-.957 0-1.595v1.595zm0-27.744l12.089-9.726c-1.325-9.088-1.49-16.582-.994-24.076.166-3.03-5.796-4.146-11.095-3.03V55.2c1.159-.479 2.153-.32 2.153 1.913 0 4.783.662 23.28.662 23.28l-2.98 2.87.165 4.304zm-13.58-31.092c0 .957 1.16 22.96 1.49 33.484.332 10.523.332 22.482.497 27.106.166 3.986 10.102 1.435 11.593-1.754v-1.595c-1.988-3.667-2.319-24.395-2.319-24.395l2.319-1.754-.166-4.145c-.828.797-1.49 1.913-2.153 2.391l-.662-27.105c0-1.117 1.656-2.711 2.98-3.349v-4.464c-.165 0 .663-.16-.496.16-5.3 1.115-13.083 3.507-13.083 5.42z" fill="#E7332B"/></g></svg>