<svg width="500" height="129" xmlns="http://www.w3.org/2000/svg"><g fill="none" fill-rule="evenodd"><path d="M130.06 97.775c-44.548-2.807-24.904-70.017 23.202-78.438 37.896 33.527 18.252 97.931-19.645 80.31-2.63 12.475-12.374 28.07-12.374 28.07s-.928 0-2.475-.78c-1.547-.78-2.165-2.184-2.165-2.184s8.043-5.458 11.6-14.97c3.713-9.669 1.857-12.008 1.857-12.008z" fill="#077945"/><path d="M165.79 52.552c0-4.834-1.237-10.292-2.784-16.374 2.785 5.458 4.64 10.916 5.724 16.842l-2.94-.468zm-23.356 15.594l.619.936 7.888-4.366 1.393-14.347 4.485.78c1.856-9.824-.464-22.612-4.485-29.473 0 0-16.86 3.587-27.843 18.401l5.26 2.027c1.082-1.715 3.093-5.146 5.258-7.64 2.94-3.588 5.878-5.77 5.878-5.77-3.093 4.677-5.568 9.356-7.888 14.658l9.59 3.742-.619 1.56-4.176 10.604 4.64 8.888zm2.01-19.648l-1.855 10.916 1.856 7.797-4.64-7.174 4.64-11.54z" fill="#DEE896"/><path d="M161.46 82.96c-2.785 8.578-8.972 13.724-15.932 16.063 7.579-.468 14.849-4.834 19.644-16.218l-3.712.156zm-34.65-39.607c-11.446 4.054-18.716 16.841-17.324 28.381 1.856 16.686 16.087 23.08 31.246 24.639 3.248-4.834 3.867-10.76 2.63-14.815-4.332-3.898-11.757-5.458-17.634-5.458-.155.156-.464 1.092-.62 1.248-15.003-9.045-6.805-27.446 1.393-30.409l-1.237 2.495c-7.58 6.706-6.033 16.53-.774 21.053l7.425-6.394 4.33 1.56 1.084-14.347v-.312l-5.105-.78.464-4.21-5.878-2.651zM133 69.862c8.198 4.678 12.993 4.366 12.993 4.366l1.701 7.018s-2.475-4.21-7.115-6.238c-4.486-1.871-10.518-.312-10.518-.312l.154-3.119L133 69.862zm21.81-10.136l1.7 8.888s2.476-.935 4.796-3.586c2.32-2.495 3.403-4.679 3.403-4.679s-5.878 1.404-9.9-.623z" fill="#A5CE3A"/><path d="M86.285 102.921c6.497-8.42 27.843-11.54 28.925-23.39.62-7.33-7.734-13.412 2.475-21.209 6.033-4.522 6.342-14.035-3.557-18.401-9.281-4.21-1.238-9.824-4.022-16.842-3.867-9.356-14.385-2.963-17.17-15.438C91.08-.156 84.74 0 84.74 0s-6.652-.156-8.353 7.641c-2.784 12.475-13.457 6.082-17.17 15.438-2.938 7.018 5.26 12.632-4.021 16.842-9.9 4.366-9.59 13.879-3.558 18.401 10.21 7.641 1.856 13.723 2.475 21.208 1.083 12.631 25.368 15.438 30.163 25.263-.464 8.888.154 17.31 1.082 22.3 1.238 1.403 3.867 1.247 5.414-.313 0 0-4.95-11.383-4.33-21.052-.465-1.091-.31-2.027-.156-2.807z" fill="#077945"/><path d="M105.311 35.243c1.392-9.045-1.856-13.1-4.331-15.594 0 0 5.26 2.027 6.496 6.237 1.238 4.21-.154 7.33-.618 8.733l-1.547.624zM88.296 5.926s2.63 3.43 5.26 11.851c2.474 8.265 3.093 19.181 2.938 19.181l-3.248.312 2.32 15.126-6.496 7.486-.155-.156-7.734-7.953.928-8.89.619-5.457-12.684-1.56c-2.32-6.237-.464-12.007-.464-12.007-2.939 2.807-3.712 7.017-2.63 11.54l-2.938-.624c-1.083-3.587-2.32-8.265 1.701-12.475 4.022-4.055 9.9-1.248 12.065-7.953 2.01-6.706 5.878-9.2 10.518-8.421z" fill="#DEE896"/><path d="M114.592 42.416c2.784 1.404 4.795 4.366 4.795 7.797 0 3.43-2.011 6.394-4.795 7.797 1.547-2.027 2.475-4.678 2.475-7.797 0-2.963-.928-5.77-2.475-7.797zm-15.623 4.678l3.403 8.11 3.867-10.917-7.27 2.807zM81.181 58.946l-4.486.156-2.784 10.292-3.558-3.275 4.64 21.052 1.393-11.695 7.58-2.807h10.827c1.547 4.054 2.32 12.631.154 19.648 0 0-3.248.936-6.032 2.807-.155-2.807-.31-7.64-.773-12.32-1.857 4.68-3.094 10.449-3.713 16.375-.618-1.248-2.165-3.899-6.342-6.55-5.877-3.742-16.55-6.237-19.953-11.851-3.403-5.614 1.701-9.98.618-16.686-1.082-6.238-7.424-9.2-6.341-16.374 1.082-7.017 9.28-10.136 15.158-9.2-4.021 2.339-8.817 14.034-5.568 24.794l6.032.312-2.32-2.183c-.773-3.119-1.083-6.861-.619-9.98l7.734 8.732-7.115-13.722c.619-2.651 1.702-5.614 3.094-7.797l3.712.78 1.392 4.21 3.867-.78 3.403 16.062zm-3.558 8.577l.928 2.963 8.817-3.12h10.364l-4.022-4.054H80.408l-2.785 4.21zm19.645-4.21h3.712l.619 7.484-4.331-7.485z" fill="#A5CE3A"/><path d="M40.964 100.894C18.845 108.535 1.676 90.602.13 66.275c-1.392-22.923 8.971-34.93 7.734-46.47 51.354 7.953 67.75 66.275 35.267 80.31 1.701 9.512 1.547 19.96.773 26.821-1.083 1.56-3.712 1.56-5.414 0 0 0 4.022-12.319 2.63-25.73l-.155-.312z" fill="#077945"/><path d="M10.957 23.391C12.813 34.62 1.83 44.443 4.305 67.68l5.26-1.248c-2.475-12.32 0-23.859 1.546-28.537.155 6.393.464 10.604 1.392 15.906 7.734-1.092 13.767 2.027 18.407 6.861-.154-5.614 1.856-9.824 4.95-13.255-5.723-9.98-14.85-18.4-24.903-24.015zm30.007 20.585l-3.248 1.715s-.155-7.173-5.878-13.879l-.618-.624c7.115 4.523 13.766 12.476 17.788 20.273l-3.403 2.027c-1.392-3.43-2.94-6.706-4.64-9.512z" fill="#DEE896"/><path d="M52.875 69.238c2.32 8.889.928 17.154-4.022 23.391 5.878-4.834 8.817-13.41 6.342-25.262l-2.32 1.871zM6.47 71.733c.619 4.99 4.176 14.19 12.22 18.869l-.155 4.522c5.568 5.302 15.932 4.523 21.964 1.716-.31-6.082-2.63-14.191-4.95-17.778l-10.672 3.431.618 10.448c-1.856-4.678-3.867-9.2-5.723-13.879-4.485-3.118-6.342-7.485-6.806-8.888v.156L6.47 71.733zm15.158 4.834c-4.176-2.495-6.032-7.953-7.115-11.54l-2.63.78-1.237-8.42 3.094-.936 2.165 4.054 4.022-.935 2.32-1.716 9.28 6.238.929-3.587 3.403 7.174-2.63 1.091-2.01-.935-2.63.935-3.712-2.807 1.701 5.458-4.95 5.146zm15.159-19.025l5.414 4.523c1.237-1.872 1.701-5.77-.774-9.513l-4.64 4.99zm7.27 11.384l2.784 6.394-.464-7.174s-2.01.78-2.32.78zm-8.662 3.899l9.435 2.027-6.65.468-9.9 3.43.154-3.742 6.96-2.183z" fill="#A5CE3A"/><path d="M211.506 107.631c.159-2.383.635-57.99-.635-67.683l-5.719-1.112 1.112 27.169c.16 3.495-10.324 6.196-10.324 3.654l-.16-34.954c0-2.065 11.596 1.43 20.809 1.112 9.213-.476 19.855-3.972 19.855-2.065s.477 8.58.159 13.187c-.318 4.608-11.437 10.327-11.119 5.72l.953-13.505-6.195.477s.636 40.355 1.112 50.524c.636 10.009 2.224 11.598 2.383 14.934.476 2.86-12.549 6.832-12.23 2.542z" fill="#AA181B"/><path d="M237.87 115.731c.15-.472.301-.944 0-1.574v1.574zm0-27.388l11.01-9.602c-1.206-8.972-1.206-16.842-.753-24.24.15-2.99-5.28-4.25-10.106-3.305l-.302 5.352c1.056-.473 2.112-.315 2.112 1.888 0 4.723.603 22.981.603 22.981s-1.357 1.574-2.715 2.99l.15 3.936zm-12.218-30.694c0 .945 1.056 22.666 1.358 33.055.301 10.389.301 22.194.452 26.758.15 3.935 9.201 1.417 10.559-1.731v-1.574c-1.81-3.62-2.112-24.083-2.112-24.083l1.96-1.731-.15-3.935c-.754.787-1.207 1.574-1.81 2.046l-.603-26.758c0-1.102 1.206-2.519 2.413-3.148l.302-5.352c-.151 0-.453.157-.604.157-4.977 1.417-11.916 4.408-11.765 6.296zm25.472-11.844c.153-1.982 9.612-4.269 9.612-1.067l-.153 22.562c1.984-2.439 3.815-2.896 6.103-6.098.153-3.201.305-7.317.763-9.451.61-2.897 8.696-3.507 8.696-1.83 0 0-.61 19.056-.61 24.697 0 5.64.458 17.836.915 19.513 1.22 4.726-10.832 5.031-10.832 3.507l.61-32.167-5.492 5.183c.458 7.165.915 14.33 1.83 17.227.916 2.896-.762 3.659-5.95 5.03-5.187 1.373-4.73-1.524-4.73-2.59 0-.916-.304-14.788-.304-21.496-.153-6.556-.61-22.563-.458-23.02zm53.02 55.267c5.303-1.386 14.192-5.389 13.256-9.084-2.183-8.93-8.421-14.318-8.11-26.635 0-1.231-2.494.154-5.146 1.848v16.935a3152.66 3152.66 0 015.147 8.93c-.624 1.54-2.963 2.771-5.147 3.387v4.619zm0-60.814c.156 0 .312 0 .468.154 0 5.389-.468 12.625-.156 15.396.312 3.695 10.137-1.693 9.981-5.388 0-3.85-.312-10.316-.312-14.473 0-.615-5.458-.615-10.136-.461v4.772h.155zm-17.622-.154s3.431 7.236 3.587 14.164c.468 14.319.78 37.104-1.715 46.188-.468 1.693 7.797 1.386 13.1 1.078.623 0 1.559-.154 2.65-.462v-4.619c-2.339.616-4.522.616-4.678-.77-.468-5.234-.468-13.086-.468-19.552 0-.616 2.495 3.695 5.146 8.005V67.201c-1.87 1.232-3.898 2.771-4.99 3.849-.312-8.622.312-17.397-2.027-29.714 1.403-.924 4.99-1.386 6.862-1.078v-4.772c-1.716.154-3.431.154-4.523.308-3.899.77-13.568 2.617-12.944 4.31zm44.463 5.402c0-.31-1.35-.155-3.301.619v12.998c2.1 5.416 4.651 12.999 4.801 17.95.15 8.357-3 12.69-3 12.69a94.983 94.983 0 01-1.801-5.107v10.677c3.6-1.393 8.853-5.416 10.953-13.463 3.302-12.534-2.85-24.604-4.801-28.782-1.8-4.023-2.251-5.261-2.851-7.582zm-3.301.619c-4.802 1.702-13.205 6.963-13.505 17.95-.6 16.093 8.253 21.045 10.053 31.568.15.773 1.5.773 3.452.154V84.811c-3.452-9.904-7.203-22.593-2.551-31.878 0 0 1.2 2.631 2.55 6.19V46.125zm92.253 51.509c.319 0 .637-.155.956-.31 3.025-.925 10.19-2.932 10.509-6.947.318-3.86-6.688-18.526-6.688-18.526-.477-1.236-2.707-.155-4.936 1.235v11.579l3.662 6.793c.478.772-1.751 2.162-3.662 2.78v3.396h.16zM406.881 56.72c-1.593 12.66-.956 27.636.796 41.222.16.927 8.28.464 12.101-.308v-3.088c-1.592.463-2.707.309-2.866-.926-.16-2.78-1.114-12.043-.318-15.285l3.184 5.867V73.394c-1.592.927-2.866 2.008-3.503 2.316-.318-3.55.16-14.05 1.274-21.46.16-2.625-10.35-.309-10.668 2.47zm27.523 38.66c-.29-12.316-1.598-28.106 0-41.369.436-3.315 9.008-3.79 8.863-2.368-1.598 14.21-1.744 26.526.29 39.947.582 4.105-9.734 5.842-9.153 3.79zm52.469-43.588c5.527-1.077 10.739-1.538 10.739.615.158 12.307.315 37.075 2.368 47.535.474 2.923-7.737 5.23-9.317 3.385-1.579-1.846-.79-24.46-.79-24.46-.947.615-2.052 1.384-3.157 2l.157-12.768c1.738 2.307 3.317 4.153 3.317 3.384 0 0-.474-13.076-.632-15.384-1.105 0-2.053 0-2.842.308l.157-4.615zM474.714 97.02l-.158-14.46 9.475-7.538c-6.474-1.23-9.79-7.538-9.159-18.614 0-1.23 6.159-3.384 12.001-4.615l-.157 4.615c-5.843 1.385-2.843 7.692.157 11.692l-.157 12.768c-2.053 1.384-3.475 2.769-3.475 4 0 2.769.474 4.307.79 9.23.316 3.845-9.317 4.768-9.317 2.922zm-130.488 10.33s-.32-35.868-.32-44.415c0-3.511-.798-9.769-3.195-13.432-.64-2.29 26.525-5.342 26.844-3.663l.8 17.247c.159 2.748-9.269 7.632-9.269 5.037l.48-17.705-6.711 1.373c.48 16.027 2.237 46.4 3.355 52.048.48 2.747-12.303 6.41-11.984 3.51z" fill="#AA181B"/><path d="M373.18 63.698c1.32-2.574.99-5.147 0-7.267v-4.239c1.98-2.119 6.272-4.39 8.912-3.179 4.456 2.12 6.602 42.995 6.107 49.353-.33 4.996-10.893 7.418-10.893 4.087 0-1.362.165-18.923.165-18.923l-4.29 2.725v-3.18l4.29-2.876c-.33-5.298-.66-10.597-1.65-14.23-.99 1.06-1.98 2.12-2.64 3.179v-5.45zm-4.456 25.887s.66 3.028 0 4.693c-1.32 3.028-11.552 5.753-11.387 2.12.165-3.634-.99-10.446 2.805-16.956 3.631-6.66 9.407-10.445 12.378-14.533.33-.454.495-.757.66-1.211v5.753c-2.97 4.239-4.126 8.78-4.29 16.804l4.29-2.877v3.18a177.327 177.327 0 00-4.456 3.027zm4.456-33.002c-.33-.606-.495-1.06-.825-1.666-.33-.605 0-1.513.825-2.573v4.239z" fill="#AA181B"/><path d="M391.66 117.692c.153-2.345.153-68.316-.917-77.696h-6.728l.918 2.814c1.07 3.283-9.94 6.097-9.94 3.596l.153-10.474c0-2.033 12.386.312 21.255-.157 8.868-.469 19.266-3.908 19.266-2.032s.459 8.442.153 12.975c-.306 4.534-11.01 8.13-10.704 3.596l.918-11.256-6.117.47s.612 39.707 1.07 49.712c.612 9.849 2.447 22.668 2.6 25.795.306 2.97-12.232 6.722-11.927 2.657zm68.7-1.998c.165-.477.329-.954 0-1.59v1.59zm0-27.661l11.984-9.698c-1.314-9.061-1.478-16.533-.985-24.005.164-3.02-5.746-4.133-10.998-3.02v4.451c1.149-.477 2.134-.318 2.134 1.908 0 4.769.656 23.21.656 23.21l-2.955 2.861.165 4.293zm-13.46-31c0 .954 1.149 22.892 1.477 33.384.329 10.492.329 22.415.493 27.025.164 3.975 10.013 1.431 11.49-1.748v-1.59c-1.97-3.656-2.298-24.323-2.298-24.323l2.299-1.748-.165-4.134c-.82.795-1.477 1.908-2.134 2.385l-.656-27.025c0-1.113 1.641-2.703 2.955-3.339v-4.45c-.165 0 .656-.159-.493.159-5.253 1.113-12.968 3.497-12.968 5.405z" fill="#AA181B"/></g></svg>