<?xml version="1.0" encoding="UTF-8"?>
<svg width="501px" height="129px" viewBox="0 0 501 129" version="1.1" xmlns="http://www.w3.org/2000/svg" xmlns:xlink="http://www.w3.org/1999/xlink">
    <title>3leaf</title>
    <g id="Page-1" stroke="none" stroke-width="1" fill="none" fill-rule="evenodd">
        <g id="3leaf" transform="translate(0.024999, -0.000225)">
            <g id="Group">
                <path d="M129.880512,97.7292026 C85.3942104,94.9235862 105.011434,27.7446596 153.050461,19.3278104 C190.894711,52.8393398 171.277487,117.21265 133.433238,99.5996135 C130.80731,112.06902 121.075932,127.655778 121.075932,127.655778 C121.075932,127.655778 120.149134,127.655778 118.60447,126.87644 C117.059807,126.097102 116.441942,124.694294 116.441942,124.694294 C116.441942,124.694294 124.474191,119.238928 128.026916,109.731006 C131.734108,100.067216 129.880512,97.7292026 129.880512,97.7292026 L129.880512,97.7292026 Z" id="Path" fill="#077945"></path>
                <path d="M165.562233,52.5276047 C165.562233,47.6957097 164.326503,42.2403445 162.781839,36.1615089 C165.562233,41.6168742 167.415829,47.0722394 168.497093,52.9952074 L165.562233,52.5276047 L165.562233,52.5276047 Z M142.237818,68.1143626 L142.855683,69.0495681 L150.733466,64.6852759 L152.123663,50.3454586 L156.603186,51.1247965 C158.456782,41.305139 156.139787,28.5239975 152.123663,21.6658241 C152.123663,21.6658241 135.286833,25.2507784 124.319724,40.0581984 L129.571579,42.0844769 C130.652844,40.3699335 132.660906,36.9408468 134.823435,34.4469655 C137.758295,30.8620112 140.693155,28.6798651 140.693155,28.6798651 C137.603828,33.3558925 135.132367,38.0319198 132.815372,43.3314175 L142.392284,47.0722394 L141.774419,48.6309152 L137.603828,59.2299106 L142.237818,68.1143626 L142.237818,68.1143626 Z M144.24588,48.4750476 L142.392284,59.3857782 L144.24588,67.1791571 L139.611891,60.0092485 L144.24588,48.4750476 Z" id="Shape" fill="#DEE896"></path>
                <path d="M161.237176,82.9217826 C158.456782,91.4944994 152.278129,96.6381295 145.327145,98.9761432 C152.895995,98.5085405 160.155912,94.1442483 164.944368,82.765915 L161.237176,82.9217826 L161.237176,82.9217826 Z M126.636719,43.3314175 C115.206211,47.3839746 107.946294,60.1651161 109.336491,71.6993169 C111.190087,88.3771479 125.400989,94.7677186 140.538689,96.3263944 C143.782481,91.4944994 144.400347,85.5715314 143.164616,81.5189744 C138.839559,77.6222849 131.425175,76.0636091 125.555455,76.0636091 C125.400989,76.2194767 125.092056,77.1546822 124.93759,77.3105498 C109.954356,68.2702302 118.141071,49.8778558 126.327787,46.9163718 L125.092056,49.4102531 C117.523206,56.112559 119.067869,65.9322165 124.319724,70.4523763 L131.734108,64.0618055 L136.059165,65.6204813 L137.140429,51.2806641 L137.140429,50.9689289 L132.043041,50.189591 L132.50644,45.9811664 L126.636719,43.3314175 L126.636719,43.3314175 Z M132.815372,69.828906 C141.002088,74.5049333 145.790544,74.1931982 145.790544,74.1931982 L147.489673,81.2072392 C147.489673,81.2072392 145.018212,76.9988146 140.384222,74.9725361 C135.904699,73.1021251 129.880512,74.6608009 129.880512,74.6608009 L130.034978,71.5434493 L132.815372,69.828906 L132.815372,69.828906 Z M154.595124,59.6975133 L156.294254,68.5819653 C156.294254,68.5819653 158.765715,67.6467599 161.08271,64.997011 C163.399705,62.5031297 164.480969,60.3209836 164.480969,60.3209836 C164.480969,60.3209836 158.611249,61.7237919 154.595124,59.6975133 Z" id="Shape" fill="#A5CE3A"></path>
                <path d="M86.166542,102.872833 C92.6541277,94.4559834 113.970481,91.3386319 115.051745,79.4926959 C115.66961,72.1669196 107.328429,66.0880841 117.523206,58.2947051 C123.547393,53.7745453 123.856325,44.266623 113.970481,39.9023308 C104.702501,35.6939062 112.73475,30.0826733 109.954356,23.0686323 C106.092698,13.7165775 95.5889879,20.1071483 92.808594,7.63774194 C90.9549981,-0.155637006 84.6218788,0 84.6218788,0 C84.6218788,0 77.9798268,-0.155637006 76.2806972,7.63774194 C73.5003034,20.1071483 62.8421269,13.7165775 59.1349351,23.0686323 C56.2000749,30.0826733 64.3867902,35.6939062 55.1188107,39.9023308 C45.2329658,44.266623 45.5418985,53.7745453 51.5660852,58.2947051 C61.7608626,65.9322165 53.4196811,72.0110521 54.0375464,79.4926959 C55.1188107,92.1179698 79.3700237,94.9235862 84.1584798,104.743244 C83.6950808,113.627696 84.3129461,122.044545 85.2397441,127.032307 C86.4754747,128.435116 89.1014022,128.279248 90.6460655,126.720572 C90.6460655,126.720572 85.7031431,115.342239 86.3210084,105.678449 C85.8576094,104.587376 86.0120757,103.652171 86.166542,102.872833 Z" id="Path" fill="#077945"></path>
                <path d="M105.1659,35.2263034 C106.556097,26.1859838 103.312304,22.1334268 100.840843,19.6395455 C100.840843,19.6395455 106.092698,21.6658241 107.328429,25.8742487 C108.564159,30.0826733 107.173962,33.2000249 106.710563,34.6028331 L105.1659,35.2263034 L105.1659,35.2263034 Z M88.1746043,5.92319857 C88.1746043,5.92319857 90.8005318,9.35228531 93.4264593,17.7691346 C95.8979205,26.0301163 96.5157858,36.9408468 96.3613195,36.9408468 L93.1175267,37.252582 L95.4345216,52.3717371 L88.9469359,59.8533809 L88.7924696,59.6975133 L81.0691533,51.7482668 L81.9959513,42.8638148 L82.6138166,37.4084495 L69.9475779,35.8497737 C67.630583,29.6150706 69.4841789,23.8479702 69.4841789,23.8479702 C66.5493187,26.6535866 65.7769871,30.8620112 66.8582514,35.382171 L63.9233912,34.7587007 C62.8421269,31.1737464 61.6063963,26.497719 65.6225208,22.2892944 C69.6386452,18.2367373 75.5083656,21.0423537 77.6708941,14.3400478 C79.6789564,7.63774194 83.5406145,5.14386068 88.1746043,5.92319857 Z" id="Shape" fill="#DEE896"></path>
                <path d="M114.43388,42.3962121 C117.214273,43.7990203 119.222336,46.7605043 119.222336,50.189591 C119.222336,53.6186777 117.214273,56.5801617 114.43388,57.98297 C115.978543,55.9566914 116.905341,53.3069426 116.905341,50.189591 C116.905341,47.228107 115.978543,44.4224906 114.43388,42.3962121 L114.43388,42.3962121 Z M98.8327807,47.0722394 L102.23104,55.1773535 L106.092698,44.266623 L98.8327807,47.0722394 L98.8327807,47.0722394 Z M81.0691533,58.9181754 L76.5896299,59.074043 L73.809236,69.3613032 L70.2565105,66.0880841 L74.8905003,87.1302072 L76.2806972,75.4401388 L83.8495472,72.6345224 L94.6621899,72.6345224 C96.2068532,76.6870794 96.9791848,85.2597963 94.8166563,92.2738373 C94.8166563,92.2738373 91.5728634,93.2090428 88.7924696,95.0794538 C88.6380032,92.2738373 88.4835369,87.4419424 88.0201379,82.765915 C86.166542,87.4419424 84.9308114,93.2090428 84.3129461,99.1320108 C83.6950808,97.8850702 82.1504176,95.2353213 77.9798268,92.5855725 C72.1101064,88.8447506 61.45193,86.3508693 58.0536708,80.7396365 C54.6554117,75.1284036 59.7528004,70.7641114 58.6715361,64.0618055 C57.5902719,57.8271024 51.2571525,54.8656184 52.3384168,47.6957097 C53.4196811,40.6816687 61.6063963,37.5643171 67.4761167,38.4995226 C63.4599922,40.8375363 58.6715361,52.5276047 61.915329,63.2824676 L67.9395156,63.5942028 L65.6225208,61.4120567 C64.8501891,58.2947051 64.5412565,54.5538832 65.0046555,51.4365316 L72.7279717,60.1651161 L65.6225208,46.4487691 C66.2403861,43.7990203 67.3216503,40.8375363 68.7118473,38.6553902 L72.4190391,39.4347281 L73.809236,43.6431527 L77.6708941,42.8638148 L81.0691533,58.9181754 L81.0691533,58.9181754 Z M77.5164278,67.4908923 L78.4432258,70.4523763 L87.2478063,67.3350247 L97.5970501,67.3350247 L93.5809256,63.2824676 L80.2968217,63.2824676 L77.5164278,67.4908923 L77.5164278,67.4908923 Z M97.1336511,63.2824676 L100.840843,63.2824676 L101.458708,70.7641114 L97.1336511,63.2824676 Z" id="Shape" fill="#A5CE3A"></path>
                <path d="M40.9079087,100.846554 C18.8192242,108.484066 1.6734621,90.559294 0.128798846,66.2439516 C-1.26139808,43.3314175 9.08784571,31.3296139 7.85211511,19.7954131 C59.1349351,27.7446596 75.5083656,86.0391342 43.0704373,100.067216 C44.7695669,109.575139 44.6151005,120.018266 43.8427689,126.87644 C42.7615046,128.435116 40.1355771,128.435116 38.4364475,126.87644 C38.4364475,126.87644 42.452572,114.562901 41.062375,101.158289 L40.9079087,100.846554 L40.9079087,100.846554 Z" id="Path" fill="#077945"></path>
                <path d="M10.9414416,23.3803674 C12.7950375,34.6028331 1.82792842,44.4224906 4.29938963,67.6467599 L9.55124469,66.3998192 C7.07978348,54.0862805 9.55124469,42.5520796 11.0959079,37.8760523 C11.2503743,44.266623 11.5593069,48.4750476 12.4861049,53.7745453 C20.2094211,52.6834723 26.2336078,55.8008239 30.8675976,60.6327188 C30.7131313,55.021486 32.7211935,50.8130613 35.81052,47.3839746 C30.095266,37.4084495 20.9817528,28.9916003 10.9414416,23.3803674 L10.9414416,23.3803674 Z M40.9079087,43.9548878 L37.6641159,45.6694312 C37.6641159,45.6694312 37.5096496,38.4995226 31.7943955,31.7972167 C31.6399292,31.6413491 31.4854629,31.4854815 31.1765302,31.1737464 C38.2819812,35.6939062 44.9240332,43.6431527 48.9401576,51.4365316 L45.5418985,53.4628102 C44.1517016,50.0337234 42.6070383,46.7605043 40.9079087,43.9548878 Z" id="Shape" fill="#DEE896"></path>
                <path d="M52.8018158,69.2054356 C55.1188107,78.0898876 53.7286137,86.3508693 48.7856913,92.5855725 C54.6554117,87.7536775 57.5902719,79.1809607 55.1188107,67.3350247 L52.8018158,69.2054356 L52.8018158,69.2054356 Z M6.46191818,71.6993169 C7.07978348,76.6870794 10.632509,85.8832666 18.6647579,90.559294 L18.5102916,95.0794538 L18.5102916,95.0794538 L18.5102916,95.0794538 C24.0710793,100.378951 34.4203231,99.5996135 40.4445097,96.7939971 C40.1355771,90.7151615 37.8185822,82.6100474 35.5015873,79.0250931 L24.8434109,82.4541799 L25.4612762,92.8973076 L25.4612762,92.8973076 C23.6076803,88.2212803 21.5996181,83.7011205 19.7460222,79.0250931 C15.2664987,75.9077415 13.4129028,71.5434493 12.9495038,70.1406411 L12.9495038,70.2965087 L6.46191818,71.6993169 L6.46191818,71.6993169 Z M21.5996181,76.5312119 C17.4290273,74.0373306 15.5754314,68.5819653 14.4941671,64.997011 L11.8682396,65.7763489 L10.632509,57.3594996 L13.7218355,56.4242942 L15.884364,60.4768512 L19.9004885,59.5416457 L22.2174834,57.8271024 L31.4854629,64.0618055 L32.4122608,60.4768512 L35.81052,67.6467599 L33.1845925,68.7378329 L31.1765302,67.8026274 L28.5506027,68.7378329 L24.8434109,65.9322165 L26.5425405,71.3875817 L21.5996181,76.5312119 L21.5996181,76.5312119 Z M36.7373179,57.5153672 L42.1436393,62.035527 C43.3793699,60.1651161 43.8427689,56.2684266 41.3713077,52.5276047 L36.7373179,57.5153672 L36.7373179,57.5153672 Z M43.9972352,68.8937005 L46.7776291,75.2842712 L46.3142301,68.1143626 C46.3142301,68.1143626 44.3061679,68.8937005 43.9972352,68.8937005 L43.9972352,68.8937005 Z M35.347121,72.79039 L44.7695669,74.8166685 L38.1275149,75.2842712 L28.24167,78.713358 L28.3961364,74.9725361 L35.347121,72.79039 Z" id="Shape" fill="#A5CE3A"></path>
            </g>
            <path d="M210.834695,106.956563 C210.994074,104.584351 211.47221,49.2327319 210.197181,39.5857354 L204.459552,38.478703 L205.575202,65.5219226 C205.734581,69.0011672 195.215594,71.6896744 195.215594,69.1593147 L195.056215,34.3668685 C195.056215,32.3109512 206.690852,35.7901958 215.93481,35.4739009 C225.178768,34.9994584 235.857134,31.5202138 235.857134,33.4179836 C235.857134,35.3157534 236.33527,41.9579477 236.016512,46.5442247 C235.697755,51.1305016 224.541254,56.823811 224.860011,52.237534 L225.816283,38.794998 L219.600518,39.2694405 C219.600518,39.2694405 220.238032,79.438901 220.716168,89.5603399 C221.353682,99.5236313 222.947468,101.105106 223.106847,104.426203 C223.584982,107.272858 210.515938,111.226545 210.834695,106.956563 Z" id="Path" fill="#E7332B"></path>
            <path d="M237.740659,115.347478 C237.887322,114.873863 238.033984,114.400248 237.740659,113.768762 L237.740659,115.347478 L237.740659,115.347478 Z M237.740659,87.8778173 L248.447046,78.2476489 C247.273743,69.2489669 247.273743,61.3553862 247.713732,53.9354204 C247.860395,50.9358597 242.580533,49.6728868 237.887322,50.6201165 L237.593996,55.9877514 C238.620636,55.5141365 239.647276,55.6720082 239.647276,57.8822107 C239.647276,62.6183591 240.233927,80.9314663 240.233927,80.9314663 C240.233927,80.9314663 238.913962,82.5101825 237.593996,83.931027 L237.740659,87.8778173 C237.740659,87.8778173 237.740659,87.8778173 237.740659,87.8778173 Z M225.860969,57.0928527 C225.860969,58.0400824 226.887609,79.826365 227.180934,90.2458915 C227.47426,100.665418 227.47426,112.505789 227.620923,117.084066 C227.767586,121.030856 236.567356,118.50491 237.887322,115.347478 L237.887322,113.768762 L237.887322,113.768762 C236.127368,110.137715 235.834042,89.6144051 235.834042,89.6144051 L237.740659,87.8778173 L237.593996,83.931027 C236.860682,84.7203851 236.420693,85.5097431 235.834042,85.983358 L235.24739,59.1451837 C235.24739,58.0400824 236.420693,56.6192378 237.593996,55.9877514 L237.887322,50.6201165 C237.740659,50.6201165 237.447333,50.7779881 237.30067,50.7779881 C232.460797,52.1988327 225.714306,55.1983933 225.860969,57.0928527 Z" id="Shape" fill="#E7332B"></path>
            <path d="M250.531518,45.7911001 C250.685434,43.8045441 260.228246,41.512364 260.228246,44.7214161 L260.074329,67.3375927 C262.075242,64.8926006 263.922237,64.4341646 266.230982,61.2251125 C266.384898,58.0160605 266.538815,53.8901363 267.000564,51.7507683 C267.616229,48.8473402 275.773794,48.2360922 275.773794,49.9170242 C275.773794,49.9170242 275.158129,69.0185248 275.158129,74.6725689 C275.158129,80.3266131 275.619878,92.5515734 276.081626,94.2325055 C277.312957,98.9696776 265.153568,99.2753016 265.153568,97.7471815 L265.769233,65.5038487 L260.228246,70.6994568 C260.689995,77.881621 261.151744,85.0637852 262.075242,87.9672133 C262.998739,90.8706414 261.30566,91.6347014 256.072505,93.0100094 C250.83935,94.3853175 251.301099,91.4818894 251.301099,90.4122053 C251.301099,89.4953333 250.993267,75.5894409 250.993267,68.8657128 C250.83935,62.2947966 250.377601,46.2495361 250.531518,45.7911001 Z" id="Path" fill="#E7332B"></path>
            <path d="M303.989332,100.951765 C309.262039,99.5799891 318.101578,95.6170812 317.1711,91.9590125 C314.999986,83.1186796 308.7968,77.783996 309.10696,65.5904335 C309.10696,64.3710772 306.625685,65.742853 303.989332,67.4194679 L303.989332,84.1856164 C306.470606,88.4533632 309.10696,93.0259492 309.10696,93.0259492 C308.486641,94.5501445 306.160447,95.7695008 303.989332,96.3791789 L303.989332,100.951765 L303.989332,100.951765 Z M303.989332,40.7460498 C304.144411,40.7460498 304.299491,40.7460498 304.454571,40.8984694 C304.454571,46.233153 303.989332,53.396871 304.299491,56.1404225 C304.60965,59.7984913 314.379667,54.4638077 314.224587,50.8057389 C314.224587,46.9952506 313.914428,40.5936303 313.914428,36.478303 C313.914428,35.8686248 308.486641,35.8686248 303.834252,36.0210444 L303.834252,40.7460498 C303.834252,40.7460498 303.989332,40.7460498 303.989332,40.7460498 Z M286.465333,40.5936303 C286.465333,40.5936303 289.877085,47.7573483 290.032165,54.6162272 C290.497404,68.7912437 290.807563,91.3493343 288.326289,100.342087 C287.86105,102.018702 296.08027,101.713862 301.352978,101.409023 C301.973296,101.409023 302.903774,101.256604 303.989332,100.951765 L303.989332,96.3791789 C301.663137,96.988857 299.492022,96.988857 299.336943,95.6170812 C298.871704,90.4348172 298.871704,82.661421 298.871704,76.2598007 C298.871704,75.6501226 301.352978,79.9178695 303.989332,84.1856164 L303.989332,67.4194679 C302.128376,68.6388241 300.112341,70.1630194 299.026783,71.2299562 C298.716624,62.6944624 299.336943,54.0065491 297.010748,41.8129866 C298.406465,40.8984694 301.973296,40.4412108 303.834252,40.7460498 L303.834252,36.0210444 C302.128376,36.1734639 300.4225,36.1734639 299.336943,36.3258834 C295.459952,37.0879811 285.845015,38.9170155 286.465333,40.5936303 Z" id="Shape" fill="#E7332B"></path>
            <path d="M331.142695,46.3515827 C331.142695,46.0456048 329.780282,46.1985938 327.812353,46.9635384 L327.812353,59.8146086 C329.931661,65.1692211 332.505107,72.6656787 332.656486,77.5613245 C332.807866,85.8227267 329.628903,90.1064167 329.628903,90.1064167 C329.023387,88.5765274 328.41787,86.8936492 327.812353,85.057782 L327.812353,95.6140182 C331.445453,94.2371179 336.743724,90.2594057 338.863032,82.3039813 C342.193374,69.9118779 335.986828,57.9787414 334.018899,53.8480403 C332.202349,49.8703281 331.748211,48.6464167 331.142695,46.3515827 Z M327.812353,46.9635384 C322.96822,48.6464167 314.490987,53.8480403 314.188229,64.7102543 C313.582712,80.6211031 322.514082,85.5167488 324.330632,95.9199961 C324.482012,96.6849407 325.844424,96.6849407 327.812353,96.072985 L327.812353,85.210771 C324.330632,75.4194794 320.546153,62.8743872 325.238907,53.6950513 C325.238907,53.6950513 326.449941,56.2958632 327.812353,59.8146086 L327.812353,46.9635384 Z" id="Shape" fill="#E7332B"></path>
            <path d="M419.63159,97.7484637 C419.95286,97.7484637 420.274131,97.5946843 420.595402,97.440905 C423.647474,96.5182291 430.876067,94.519098 431.197338,90.5208359 C431.518609,86.676353 424.450651,72.0673181 424.450651,72.0673181 C423.968745,70.8370836 421.71985,71.9135388 419.470954,73.2975526 L419.470954,84.8310012 L423.165568,91.5972911 C423.647474,92.3661876 421.398579,93.7502015 419.470954,94.3653187 L419.470954,97.7484637 L419.63159,97.7484637 L419.63159,97.7484637 Z M406.459487,56.9969452 C404.853133,69.606849 405.495675,84.5234426 407.262664,98.0560223 C407.4233,98.9786982 415.615705,98.5173602 419.470954,97.7484637 L419.470954,94.6728774 C417.8646,95.1342153 416.740153,94.980436 416.579517,93.7502015 C416.418882,90.9821738 415.455069,81.7554149 416.258246,78.5260493 L419.470954,84.3696633 L419.470954,73.6051112 C417.8646,74.5277871 416.579517,75.6042423 415.936976,75.911801 C415.615705,72.3748767 416.097611,61.9178833 417.222059,54.5364762 C417.382694,51.9222278 406.780758,54.2289176 406.459487,56.9969452 Z" id="Shape" fill="#E7332B"></path>
            <path d="M434.065215,95.653342 C433.765555,83.3863794 432.417084,67.6595042 434.065215,54.4489291 C434.514705,51.1462853 443.354682,50.674479 443.204851,52.0898978 C441.55672,66.2440854 441.40689,78.5110481 443.504512,91.878892 C444.103832,95.9678795 433.465894,97.6978358 434.065215,95.653342 Z" id="Path" fill="#E7332B"></path>
            <path d="M486.757454,51.2202421 C492.333278,50.1375038 497.590484,49.6734731 497.590484,51.8389497 C497.749793,64.2131017 497.909103,89.1160827 499.980123,99.6341119 C500.458051,102.572973 492.173969,104.893127 490.580876,103.037004 C488.987784,101.180881 489.78433,78.4433766 489.78433,78.4433766 C488.828474,79.0620842 487.71331,79.8354687 486.598145,80.4541763 L486.757454,67.6159935 C488.509856,69.936147 490.102949,71.7922699 490.102949,71.0188854 C490.102949,71.0188854 489.625021,57.8713488 489.465712,55.5511953 C488.350547,55.5511953 487.394691,55.5511953 486.598145,55.8605491 L486.757454,51.2202421 L486.757454,51.2202421 Z M474.490641,96.6952508 L474.331331,82.1556222 L483.889887,74.5764541 C477.358207,73.3390389 474.012713,66.9972859 474.64995,55.8605491 C474.64995,54.6231339 480.863011,52.4576573 486.757454,51.2202421 L486.598145,55.8605491 C480.703702,57.2526412 483.730578,63.5943941 486.757454,67.6159935 L486.598145,80.4541763 C484.527124,81.8462684 483.093341,83.2383605 483.093341,84.4757757 C483.093341,87.2599599 483.571269,88.8067289 483.889887,93.7563897 C484.208506,97.6233122 474.490641,98.5513736 474.490641,96.6952508 Z" id="Shape" fill="#E7332B"></path>
            <path d="M343.362328,107.762797 C343.362328,107.762797 343.041992,71.5520666 343.041992,62.9231266 C343.041992,59.3790978 342.241154,53.061481 339.838638,49.3633639 C339.197967,47.0520407 366.426482,43.9702765 366.746817,45.6652468 L367.547656,63.0772149 C367.707824,65.8508027 358.257927,70.7816255 358.257927,68.1621259 L358.73843,50.2878932 L352.011386,51.6746871 C352.491889,67.8539495 354.253734,98.5175038 355.374908,104.218768 C355.855411,106.992355 343.041992,110.690473 343.362328,107.762797 Z" id="Path" fill="#E7332B"></path>
            <path d="M373.080375,63.3160045 C374.393317,60.7362783 374.065082,58.156552 373.080375,56.0320715 L373.080375,51.7831106 C375.049788,49.6586301 379.316851,47.3824011 381.942736,48.5963899 C386.373916,50.7208704 388.507448,91.6929936 388.015094,98.066435 C387.686859,103.074139 377.18332,105.502117 377.18332,102.163647 C377.18332,100.79791 377.347437,83.1950717 377.347437,83.1950717 C377.347437,83.1950717 375.213906,84.5608092 373.080375,85.9265466 L373.080375,82.7398259 L377.347437,79.8566024 C377.019202,74.5454013 376.690966,69.2342001 375.70626,65.5922336 C374.721553,66.6544738 373.736846,67.7167141 373.080375,68.7789543 L373.080375,63.3160045 L373.080375,63.3160045 Z M368.649194,89.2650159 C368.649194,89.2650159 369.305666,92.299988 368.649194,93.9692226 C367.336252,97.0041947 357.160949,99.7356696 357.325067,96.0937031 C357.489184,92.4517366 356.34036,85.6230494 360.115069,79.0978594 C363.725661,72.4209208 369.469783,68.6272057 372.423904,64.5299934 C372.752139,64.0747476 372.916257,63.7712503 373.080375,63.3160045 L373.080375,69.0824515 C370.126255,73.3314124 368.97743,77.8838706 368.813312,85.9265466 L373.080375,83.0433231 L373.080375,86.2300438 C370.782726,87.7475299 368.649194,89.2650159 368.649194,89.2650159 L368.649194,89.2650159 Z M373.080375,56.1838201 C372.752139,55.5768257 372.588021,55.1215799 372.259786,54.5145855 C371.93155,53.907591 372.259786,52.9970994 373.080375,51.9348592 L373.080375,56.1838201 Z" id="Shape" fill="#E7332B"></path>
            <path d="M391.460187,117.320698 C391.613612,114.976859 391.613612,49.0368564 390.539639,39.6615006 L383.788953,39.6615006 L384.709501,42.4741073 C385.783474,45.7554819 374.736896,48.5680886 374.736896,46.0679937 L374.890321,35.5988464 C374.890321,33.5675193 387.317721,35.9113583 396.216352,35.4425905 C405.114984,34.9738227 415.547862,31.5361922 415.547862,33.4112634 C415.547862,35.2863346 416.008136,41.8490836 415.701287,46.3805056 C415.394438,50.9119275 404.65471,54.5058139 404.961559,49.974392 L405.882107,38.723965 L399.74512,39.1927328 C399.74512,39.1927328 400.358819,78.881739 400.819093,88.8821185 C401.432791,98.7262421 403.273888,111.539228 403.427312,114.664347 C403.734162,117.63321 391.153338,121.383352 391.460187,117.320698 Z" id="Path" fill="#E7332B"></path>
            <path d="M460.188723,115.310032 C460.354327,114.831695 460.519931,114.353358 460.188723,113.715574 L460.188723,115.310032 L460.188723,115.310032 Z M460.188723,87.566465 L472.277838,77.8402719 C470.953003,68.7518619 470.787399,61.2579098 471.284212,53.7639577 C471.449816,50.7344877 465.488061,49.6183671 460.188723,50.7344877 L460.188723,55.1989698 C461.347953,54.7206324 462.341579,54.8800782 462.341579,57.1123192 C462.341579,61.8956929 463.003996,80.3914045 463.003996,80.3914045 C463.003996,80.3914045 461.513557,81.8264166 460.023118,83.2614287 L460.188723,87.566465 L460.188723,87.566465 Z M446.609169,56.4745361 C446.609169,57.4312108 447.768399,79.4347297 448.099608,89.9581518 C448.430816,100.481574 448.430816,112.440008 448.596421,117.063936 C448.762025,121.050081 458.698284,118.498948 460.188723,115.310032 L460.188723,113.715574 L460.188723,113.715574 C458.201471,110.048321 457.870262,89.3203687 457.870262,89.3203687 L460.188723,87.566465 L460.023118,83.4208745 C459.195097,84.2181034 458.53268,85.334224 457.870262,85.8125613 L457.207845,58.7067771 C457.207845,57.5906566 458.863888,55.9961987 460.188723,55.3584156 L460.188723,50.8939335 C460.023118,50.8939335 460.85114,50.7344877 459.69191,51.0533792 C454.392572,52.1694998 446.609169,54.5611866 446.609169,56.4745361 Z" id="Shape" fill="#E7332B"></path>
        </g>
    </g>
</svg>