<?xml version="1.0" encoding="UTF-8"?>
<svg width="500px" height="129px" viewBox="0 0 500 129" version="1.1" xmlns="http://www.w3.org/2000/svg" xmlns:xlink="http://www.w3.org/1999/xlink">
    <title>newlogo</title>
    <g id="Page-1" stroke="none" stroke-width="1" fill="none" fill-rule="evenodd">
        <g id="newlogo" transform="translate(0.000000, -0.000209)">
            <g id="Group" transform="translate(-0.000000, 0.000000)">
                <path d="M130.05969,97.7755413 C85.5120169,94.9685946 105.156303,27.7578149 153.261603,19.3369747 C191.158061,52.8643938 171.513775,117.268227 133.617317,99.6468391 C130.987767,112.122158 121.242963,127.716306 121.242963,127.716306 C121.242963,127.716306 120.314887,127.716306 118.768092,126.936599 C117.221298,126.156891 116.602581,124.753418 116.602581,124.753418 C116.602581,124.753418 124.64591,119.295466 128.203537,109.783036 C131.915843,100.114664 130.05969,97.7755413 130.05969,97.7755413 L130.05969,97.7755413 Z" id="Path" fill="#077945"></path>
                <path d="M165.790636,52.5525109 C165.790636,47.7183249 164.553201,42.2603729 163.006407,36.178655 C165.790636,41.636607 167.646789,47.0945589 168.729545,53.0203353 L165.790636,52.5525109 L165.790636,52.5525109 Z M142.434044,68.1466593 L143.052762,69.0823082 L150.941412,64.7159467 L152.333527,50.3693301 L156.81923,51.1490375 C158.675383,41.324724 156.355192,28.5375223 152.333527,21.676097 C152.333527,21.676097 135.47347,25.2627511 124.491231,40.0771921 L129.750331,42.1044314 C130.833087,40.3890751 132.84392,36.9583625 135.009432,34.4632987 C137.948341,30.8766446 140.88725,28.6934638 140.88725,28.6934638 C137.793661,33.3717083 135.31879,38.0499528 132.998599,43.3519633 L142.588723,47.0945589 L141.970006,48.6539738 L137.793661,59.2579947 L142.434044,68.1466593 L142.434044,68.1466593 Z M144.444876,48.4980323 L142.588723,59.4139362 L144.444876,67.2110104 L139.804494,60.0377021 L144.444876,48.4980323 Z" id="Shape" fill="#DEE896"></path>
                <path d="M161.459613,82.9611003 C158.675383,91.5378819 152.488206,96.6839509 145.527632,99.0230732 C153.106924,98.5552487 160.376857,94.1888872 165.171919,82.8051588 L161.459613,82.9611003 L161.459613,82.9611003 Z M126.811422,43.3519633 C115.365145,47.4064419 108.095212,60.1936436 109.487327,71.7333134 C111.34348,88.4190523 125.573987,94.8126531 140.73257,96.372068 C143.980838,91.5378819 144.599556,85.6121055 143.36212,81.557627 C139.031097,77.6590898 131.606484,76.099675 125.728666,76.099675 C125.573987,76.2556165 125.264628,77.1912654 125.109949,77.3472069 C110.106045,68.3026008 118.304054,49.9015056 126.502063,46.9386174 L125.264628,49.4336812 C117.685336,56.139165 119.232131,65.9634785 124.491231,70.4857816 L131.915843,64.0921807 L136.246867,65.6515956 L137.329623,51.304979 L137.329623,50.993096 L132.225202,50.2133886 L132.68924,46.0029685 L126.811422,43.3519633 L126.811422,43.3519633 Z M132.998599,69.8620156 C141.196608,74.5402602 145.991671,74.2283772 145.991671,74.2283772 L147.693144,81.245744 C147.693144,81.245744 145.218273,77.0353239 140.577891,75.0080846 C136.092188,73.1367868 130.05969,74.6962016 130.05969,74.6962016 L130.21437,71.577372 L132.998599,69.8620156 L132.998599,69.8620156 Z M154.808398,59.7258192 L156.509871,68.6144838 C156.509871,68.6144838 158.984742,67.6788349 161.304933,65.0278296 C163.625125,62.5327659 164.70788,60.3495851 164.70788,60.3495851 C164.70788,60.3495851 158.830062,61.7530585 154.808398,59.7258192 Z" id="Shape" fill="#A5CE3A"></path>
                <path d="M86.285414,102.92161 C92.7819497,94.5007701 114.12771,91.3819405 115.210466,79.5303877 C115.829183,72.2011379 107.476495,66.11942 117.685336,58.3223458 C123.717834,53.8000428 124.027193,44.2876122 114.12771,39.9212507 C104.846945,35.7108306 112.890274,30.0969371 110.106045,23.0795704 C106.239059,13.7230813 95.7208587,20.1166822 92.9366291,7.64136341 C91.0804761,-0.155710802 84.7386198,0 84.7386198,0 C84.7386198,0 78.0874047,-0.155710802 76.3859311,7.64136341 C73.6017015,20.1166822 62.9288214,13.7230813 59.2165153,23.0795704 C56.2776063,30.0969371 64.4756157,35.7108306 55.1948504,39.9212507 C45.2953675,44.2876122 45.6047263,53.8000428 51.6372237,58.3223458 C61.8460655,65.9634785 53.4933768,72.0451964 54.1120945,79.5303877 C55.1948504,92.1616479 79.4795195,94.9685946 84.2745815,104.792908 C83.8105433,113.681573 84.429261,122.102413 85.3573375,127.09254 C86.5947729,128.496014 89.224323,128.340072 90.7711172,126.780657 C90.7711172,126.780657 85.8213758,115.396929 86.4400934,105.728557 C85.9760552,104.636967 86.1307346,103.701318 86.285414,102.92161 Z" id="Path" fill="#077945"></path>
                <path d="M105.310983,35.2430061 C106.703098,26.1984 103.45483,22.1439214 100.979959,19.6488577 C100.979959,19.6488577 106.239059,21.676097 107.476495,25.8865171 C108.71393,30.0969371 107.321815,33.2157668 106.857777,34.6192402 L105.310983,35.2430061 L105.310983,35.2430061 Z M88.2962465,5.92600708 C88.2962465,5.92600708 90.9257966,9.35671974 93.5553468,17.7775599 C96.0302175,26.0424586 96.6489352,36.9583625 96.4942558,36.9583625 L93.245988,37.2702454 L95.5661793,52.3965694 L89.0696436,59.8817606 L88.9149642,59.7258192 L81.1809931,51.7728035 L82.1090696,42.8841389 L82.7277873,37.4261869 L70.0440748,35.8667721 C67.7238835,29.6291127 69.5800365,23.8592778 69.5800365,23.8592778 C66.6411276,26.6662245 65.8677304,30.8766446 66.9504864,35.3989476 L64.0115774,34.7751817 C62.9288214,31.1885275 61.6913861,26.510283 65.713051,22.2998629 C69.734716,18.2453843 75.612534,21.0523311 77.7780459,14.3468472 C79.7888783,7.64136341 83.6558639,5.14629966 88.2962465,5.92600708 Z" id="Shape" fill="#DEE896"></path>
                <path d="M114.591748,42.4163144 C117.375978,43.8197878 119.38681,46.782676 119.38681,50.2133886 C119.38681,53.6441013 117.375978,56.6069895 114.591748,58.0104628 C116.138542,55.9832235 117.066619,53.3322183 117.066619,50.2133886 C117.066619,47.2505004 116.138542,44.4435537 114.591748,42.4163144 L114.591748,42.4163144 Z M98.9691265,47.0945589 L102.372074,55.2035161 L106.239059,44.2876122 L98.9691265,47.0945589 L98.9691265,47.0945589 Z M81.1809931,58.9461117 L76.6952899,59.1020532 L73.9110603,69.3941912 L70.3534337,66.11942 L74.9938163,87.1715204 L76.3859311,75.4759091 L83.9652227,72.6689624 L94.7927822,72.6689624 C96.3395764,76.7234409 97.1129735,85.3002226 94.9474616,92.3175894 C94.9474616,92.3175894 91.6991937,93.2532383 88.9149642,95.1245361 C88.7602847,92.3175894 88.6056053,87.4834034 88.1415671,82.8051588 C86.285414,87.4834034 85.0479786,93.2532383 84.429261,99.1790147 C83.8105433,97.9314828 82.2637491,95.2804776 78.0874047,92.6294723 C72.2095867,88.8868767 61.5367067,86.391813 58.1337594,80.7779195 C54.7308121,75.1640261 59.835233,70.7976645 58.7524771,64.0921807 C57.6697211,57.8545213 51.3278649,54.8916331 52.4106208,47.7183249 C53.4933768,40.7009581 61.6913861,37.5821284 67.5692041,38.5177773 C63.5475391,40.8568996 58.7524771,52.5525109 62.0007449,63.3124733 L68.0332423,63.6243563 L65.713051,61.4411755 C64.9396539,58.3223458 64.6302951,54.5797502 65.0943333,51.4609205 L72.8283044,60.1936436 L65.713051,46.470793 C66.3317687,43.8197878 67.4145247,40.8568996 68.8066394,38.6737188 L72.5189455,39.4534262 L73.9110603,43.6638463 L77.7780459,42.8841389 L81.1809931,58.9461117 L81.1809931,58.9461117 Z M77.6233664,67.5228934 L78.551443,70.4857816 L87.36817,67.3669519 L97.7316912,67.3669519 L93.7100262,63.3124733 L80.407596,63.3124733 L77.6233664,67.5228934 L77.6233664,67.5228934 Z M97.2676529,63.3124733 L100.979959,63.3124733 L101.598677,70.7976645 L97.2676529,63.3124733 Z" id="Shape" fill="#A5CE3A"></path>
                <path d="M40.9643437,100.894371 C18.8451865,108.535504 1.67577074,90.602233 0.128976532,66.2753615 C-1.26313826,43.3519633 9.10038295,31.344469 7.86294758,19.8047992 C59.2165153,27.7578149 75.612534,86.07993 43.1298556,100.114664 C44.8313292,109.627094 44.6766498,120.075174 43.9032527,126.936599 C42.8204967,128.496014 40.1909466,128.496014 38.4894729,126.936599 C38.4894729,126.936599 42.5111379,114.617222 41.1190231,101.206254 L40.9643437,100.894371 L40.9643437,100.894371 Z" id="Path" fill="#077945"></path>
                <path d="M10.956536,23.3914533 C12.8126891,34.6192402 1.83045016,44.4435537 4.3053209,67.6788349 L9.56442121,66.431303 C7.08955048,54.1119257 9.56442121,42.5722559 11.1112154,37.8940114 C11.2658948,44.2876122 11.5752537,48.4980323 12.5033302,53.8000428 C20.2373013,52.7084524 26.2697987,55.8272821 30.9101813,60.6614681 C30.7555019,55.0475746 32.7663344,50.8371546 35.8599228,47.4064419 C30.1367842,37.4261869 21.0106984,29.0053468 10.956536,23.3914533 L10.956536,23.3914533 Z M40.9643437,43.9757292 L37.7160758,45.6910856 C37.7160758,45.6910856 37.5613964,38.5177773 31.8382578,31.8122935 C31.6835784,31.656352 31.528899,31.5004105 31.2195401,31.1885275 C38.3347935,35.7108306 44.9860086,43.6638463 49.0076736,51.4609205 L45.6047263,53.4881598 C44.2126115,50.0574471 42.6658173,46.782676 40.9643437,43.9757292 Z" id="Shape" fill="#DEE896"></path>
                <path d="M52.8746591,69.2382497 C55.1948504,78.1269143 53.8027356,86.391813 48.8529941,92.6294723 C54.7308121,87.7952863 57.6697211,79.2185047 55.1948504,67.3669519 L52.8746591,69.2382497 L52.8746591,69.2382497 Z M6.47083279,71.7333134 C7.08955048,76.7234409 10.6471772,85.9239885 18.690507,90.602233 L18.5358276,95.1245361 L18.5358276,95.1245361 L18.5358276,95.1245361 C24.1042868,100.426547 34.467808,99.6468391 40.5003054,96.8398924 C40.1909466,90.7581745 37.8707552,82.6492173 35.5505639,79.0625632 L24.8776839,82.4932759 L25.4964016,92.9413553 L25.4964016,92.9413553 C23.6402485,88.2631108 21.629416,83.7408077 19.773263,79.0625632 C15.2875598,75.9437335 13.4314067,71.577372 12.9673685,70.1738986 L12.9673685,70.3298401 L6.47083279,71.7333134 L6.47083279,71.7333134 Z M21.629416,76.5674995 C17.4530717,74.0724357 15.5969186,68.6144838 14.5141627,65.0278296 L11.8846125,65.807537 L10.6471772,57.3866969 L13.7407656,56.451048 L15.9062775,60.5055266 L19.9279424,59.5698777 L22.2481337,57.8545213 L31.528899,64.0921807 L32.4569755,60.5055266 L35.8599228,67.6788349 L33.2303726,68.7704252 L31.2195401,67.8347763 L28.58999,68.7704252 L24.8776839,65.9634785 L26.5791575,71.4214305 L21.629416,76.5674995 L21.629416,76.5674995 Z M36.7879993,57.5426384 L42.201779,62.0649414 C43.4392144,60.1936436 43.9032527,56.2951065 41.4283819,52.5525109 L36.7879993,57.5426384 L36.7879993,57.5426384 Z M44.0579321,68.9263667 L46.8421617,75.3199676 L46.3781234,68.1466593 C46.3781234,68.1466593 44.3672909,68.9263667 44.0579321,68.9263667 L44.0579321,68.9263667 Z M35.3958845,72.8249038 L44.8313292,74.8521431 L38.1801141,75.3199676 L28.2806311,78.7506802 L28.4353106,75.0080846 L35.3958845,72.8249038 Z" id="Shape" fill="#A5CE3A"></path>
            </g>
            <path d="M211.506069,107.631605 C211.66491,105.248399 212.141432,49.6402739 210.870705,39.948572 L205.152434,38.8364095 L206.26432,66.0049508 C206.423161,69.5003187 195.939663,72.2012848 195.939663,69.6591991 L195.780822,34.7055202 C195.780822,32.6400756 207.376206,36.1354434 216.588977,35.8176827 C225.801747,35.3410416 236.444086,31.8456738 236.444086,33.7522381 C236.444086,35.6588024 236.920609,42.3317774 236.602927,46.9393078 C236.285245,51.5468382 225.166384,57.2665311 225.484066,52.6590007 L226.437111,39.1541703 L220.242317,39.6308113 C220.242317,39.6308113 220.87768,79.9864224 221.354203,90.1547653 C221.989566,100.164228 223.577975,101.753032 223.736816,105.089519 C224.213339,107.949366 211.188387,111.921374 211.506069,107.631605 Z" id="Path" fill="#AA181B"></path>
            <path d="M237.869812,115.731183 C238.020649,115.258976 238.171485,114.786769 237.869812,114.157159 L237.869812,115.731183 L237.869812,115.731183 Z M237.869812,88.3431568 L248.880897,78.7416072 C247.674203,69.7696675 247.674203,61.8995449 248.126713,54.5016297 C248.27755,51.5109831 242.847426,50.2517635 238.020649,51.1961782 L237.718975,56.5478616 C238.774832,56.0756542 239.83069,56.2330567 239.83069,58.436691 C239.83069,63.1587645 240.434037,81.4174489 240.434037,81.4174489 C240.434037,81.4174489 239.076506,82.9914734 237.718975,84.4080955 L237.869812,88.3431568 C237.869812,88.3431568 237.869812,88.3431568 237.869812,88.3431568 Z M225.652032,57.6496787 C225.652032,58.5940934 226.70789,80.3156317 227.009563,90.7041935 C227.311237,101.092755 227.311237,112.897939 227.462074,117.46261 C227.612911,121.397672 236.663118,118.879232 238.020649,115.731183 L238.020649,114.157159 L238.020649,114.157159 C236.210607,110.536902 235.908934,90.0745837 235.908934,90.0745837 L237.869812,88.3431568 L237.718975,84.4080955 C236.964791,85.1951077 236.512281,85.98212 235.908934,86.4543273 L235.305586,59.6959106 C235.305586,58.5940934 236.512281,57.1774714 237.718975,56.5478616 L238.020649,51.1961782 C237.869812,51.1961782 237.568138,51.3535807 237.417301,51.3535807 C232.439688,52.7702027 225.501196,55.7608493 225.652032,57.6496787 Z" id="Shape" fill="#AA181B"></path>
            <path d="M251.124107,45.8052088 C251.276675,43.8233732 260.735882,41.5366398 260.735882,44.7380666 L260.583314,67.3005027 C262.566696,64.8613204 264.39751,64.4039737 266.686028,61.202547 C266.838596,58.0011202 266.991164,53.8850001 267.448868,51.7507156 C268.059139,48.8541867 276.145236,48.2443911 276.145236,49.9213289 C276.145236,49.9213289 275.534964,68.9774405 275.534964,74.6180495 C275.534964,80.2586585 275.992668,92.4545699 276.450371,94.1315077 C277.670914,98.8574234 265.618053,99.1623212 265.618053,97.6378322 L266.228325,65.4711159 L260.735882,70.6543783 C261.193585,77.8194762 261.651289,84.9845742 262.566696,87.8811031 C263.482103,90.7776321 261.803857,91.5398766 256.61655,92.9119166 C251.429242,94.2839566 251.886946,91.3874277 251.886946,90.3202854 C251.886946,89.4055921 251.58181,75.5327428 251.58181,68.8249916 C251.429242,62.2696892 250.971539,46.2625555 251.124107,45.8052088 Z" id="Path" fill="#AA181B"></path>
            <path d="M304.144485,101.07195 C309.446745,99.6863276 318.335827,95.6834178 317.400134,91.9884242 C315.216851,83.0588561 308.978898,77.6703237 309.290796,65.3536782 C309.290796,64.1220136 306.795615,65.5076362 304.144485,67.201175 L304.144485,84.1365626 C306.639666,88.4473886 309.290796,93.0661306 309.290796,93.0661306 C308.667,94.6057113 306.327768,95.8373759 304.144485,96.4532082 L304.144485,101.07195 L304.144485,101.07195 Z M304.144485,40.2585129 C304.300433,40.2585129 304.456382,40.2585129 304.612331,40.4124709 C304.612331,45.8010034 304.144485,53.0370326 304.456382,55.8082779 C304.76828,59.5032715 314.593056,54.1147391 314.437107,50.4197454 C314.437107,46.5707937 314.125209,40.1045548 314.125209,35.9476869 C314.125209,35.3318546 308.667,35.3318546 303.988536,35.4858127 L303.988536,40.2585129 C303.988536,40.2585129 304.144485,40.2585129 304.144485,40.2585129 Z M286.522268,40.1045548 C286.522268,40.1045548 289.953142,47.340584 290.109091,54.2686972 C290.576937,68.5867976 290.888835,91.3725919 288.393654,100.456118 C287.925807,102.149657 296.191095,101.841741 301.493355,101.533824 C302.11715,101.533824 303.052843,101.379866 304.144485,101.07195 L304.144485,96.4532082 C301.805252,97.0690404 299.621969,97.0690404 299.46602,95.6834178 C298.998174,90.4488435 298.998174,82.5969819 298.998174,76.130743 C298.998174,75.5149107 301.493355,79.8257367 304.144485,84.1365626 L304.144485,67.201175 C302.273099,68.4328395 300.245764,69.9724202 299.154122,71.0501267 C298.842225,62.4284748 299.46602,53.6528649 297.126788,41.3362193 C298.530327,40.4124709 302.11715,39.9505967 303.988536,40.2585129 L303.988536,35.4858127 C302.273099,35.6397708 300.557662,35.6397708 299.46602,35.7937288 C295.567299,36.5635192 285.898473,38.411016 286.522268,40.1045548 Z" id="Shape" fill="#AA181B"></path>
            <path d="M330.9848,45.5059872 C330.9848,45.1965003 329.634324,45.3512438 327.683635,46.1249611 L327.683635,59.1234121 C329.784377,64.5394334 332.335276,72.1218632 332.485329,77.073654 C332.635382,85.4298011 329.484271,89.7626181 329.484271,89.7626181 C328.884059,88.2151835 328.283847,86.5130054 327.683635,84.6560838 L327.683635,95.3333829 C331.284906,93.9406917 336.536758,89.9173616 338.637499,81.8707014 C341.938664,69.3364808 335.786494,57.2664905 333.835806,53.088417 C332.03517,49.0650869 331.585012,47.8271392 330.9848,45.5059872 Z M327.683635,46.1249611 C322.881942,47.8271392 314.478977,53.088417 314.178872,64.075203 C313.57866,80.1685233 322.431783,85.1203142 324.232418,95.6428698 C324.382471,96.4165871 325.732947,96.4165871 327.683635,95.7976133 L327.683635,84.8108273 C324.232418,74.9072455 320.481095,62.2182814 325.132736,52.9336735 C325.132736,52.9336735 326.333159,55.5643124 327.683635,59.1234121 L327.683635,46.1249611 Z" id="Shape" fill="#AA181B"></path>
            <path d="M419.937446,97.633909 C420.255902,97.633909 420.574358,97.4795188 420.892814,97.3251286 C423.918148,96.3987876 431.083411,94.3917153 431.401867,90.3775708 C431.720323,86.5178164 424.714288,71.8507498 424.714288,71.8507498 C424.236604,70.6156284 422.007411,71.6963596 419.778218,73.0858712 L419.778218,84.6651343 L423.440464,91.458302 C423.918148,92.2302529 421.688955,93.6197644 419.778218,94.2373251 L419.778218,97.633909 L419.937446,97.633909 L419.937446,97.633909 Z M406.880744,56.7205127 C405.288464,69.380507 405.925376,84.356354 407.676885,97.9426893 C407.836113,98.8690304 415.956744,98.4058599 419.778218,97.633909 L419.778218,94.5461055 C418.185937,95.009276 417.071341,94.8548858 416.912113,93.6197644 C416.752885,90.8407413 415.797516,81.5773308 416.593657,78.3351371 L419.778218,84.2019638 L419.778218,73.3946515 C418.185937,74.3209926 416.912113,75.4017238 416.2752,75.7105042 C415.956744,72.1595301 416.434429,61.6609983 417.549025,54.2502699 C417.708253,51.6256369 407.199201,53.9414895 406.880744,56.7205127 Z" id="Shape" fill="#AA181B"></path>
            <path d="M434.404299,95.3796124 C434.113721,83.0639215 432.806122,67.2745742 434.404299,54.0115225 C434.840165,50.6957596 443.412205,50.2220791 443.266916,51.6431204 C441.668739,65.853533 441.52345,78.1692238 443.557494,91.590169 C444.138649,95.6953993 433.823144,97.4322275 434.404299,95.3796124 Z" id="Path" fill="#AA181B"></path>
            <path d="M486.873472,51.7922704 C492.400446,50.7154285 497.611594,50.2539248 497.611594,52.4076087 C497.769507,64.7143734 497.927421,89.4817375 499.980297,99.9424875 C500.454038,102.865344 492.242533,105.172863 490.663397,103.326848 C489.084262,101.480833 489.873829,78.8671529 489.873829,78.8671529 C488.926348,79.4824911 487.820953,80.2516639 486.715558,80.8670021 L486.873472,68.0987337 C488.610521,70.4062521 490.189657,72.2522668 490.189657,71.483094 C490.189657,71.483094 489.715916,58.4071565 489.558002,56.0996381 C488.452607,56.0996381 487.505126,56.0996381 486.715558,56.4073072 L486.873472,51.7922704 L486.873472,51.7922704 Z M474.714128,97.0196309 L474.556214,82.5591823 L484.031028,75.0212889 C477.556572,73.7906124 474.240387,67.4833955 474.872041,56.4073072 C474.872041,55.1766307 481.03067,53.0229469 486.873472,51.7922704 L486.715558,56.4073072 C480.872757,57.7918182 483.873114,64.0990352 486.873472,68.0987337 L486.715558,80.8670021 C484.662682,82.2515132 483.24146,83.6360242 483.24146,84.8667007 C483.24146,87.6357227 483.715201,89.1740683 484.031028,94.0967742 C484.346855,97.9426382 474.714128,98.8656456 474.714128,97.0196309 Z" id="Shape" fill="#AA181B"></path>
            <path d="M344.226198,107.350436 C344.226198,107.350436 343.906623,71.4821187 343.906623,62.934775 C343.906623,59.4242588 343.107687,53.1663822 340.71088,49.5032349 C340.071732,47.2137678 367.235546,44.1611451 367.555121,45.8400876 L368.354056,63.0874061 C368.513844,65.8347666 359.086402,70.718963 359.086402,68.1242337 L359.565763,50.4190217 L352.854703,51.7927019 C353.334065,67.8189714 355.091723,98.1925678 356.210233,103.83992 C356.689595,106.58728 343.906623,110.250428 344.226198,107.350436 Z" id="Path" fill="#AA181B"></path>
            <path d="M373.180268,63.6981934 C374.500569,61.124597 374.170494,58.5510007 373.180268,56.4315684 L373.180268,52.1927039 C375.16072,50.0732716 379.451698,47.8024513 382.092301,49.0135555 C386.548317,51.1329877 388.693806,92.007753 388.198693,98.3660499 C387.868618,103.361855 377.306209,105.784063 377.306209,102.453526 C377.306209,101.091034 377.471247,83.5300239 377.471247,83.5300239 C377.471247,83.5300239 375.325757,84.8925161 373.180268,86.2550083 L373.180268,83.0758599 L377.471247,80.1994875 C377.141171,74.9009068 376.811096,69.6023261 375.82087,65.9690137 C374.830644,67.0287298 373.840419,68.0884459 373.180268,69.1481621 L373.180268,63.6981934 L373.180268,63.6981934 Z M368.724252,89.5855447 C368.724252,89.5855447 369.384402,92.6133051 368.724252,94.2785733 C367.403951,97.3063337 357.171617,100.031318 357.336655,96.3980056 C357.501692,92.7646931 356.346429,85.9522323 360.142294,79.4425474 C363.773122,72.7814745 369.54944,68.9967741 372.520117,64.9092975 C372.850193,64.4551335 373.01523,64.1523574 373.180268,63.6981934 L373.180268,69.4509381 C370.20959,73.6898027 369.054327,78.2314433 368.889289,86.2550083 L373.180268,83.3786359 L373.180268,86.5577843 C370.869741,88.0716645 368.724252,89.5855447 368.724252,89.5855447 L368.724252,89.5855447 Z M373.180268,56.5829564 C372.850193,55.9774044 372.685155,55.5232403 372.35508,54.9176882 C372.025005,54.3121362 372.35508,53.403808 373.180268,52.3440919 L373.180268,56.5829564 Z" id="Shape" fill="#AA181B"></path>
            <path d="M391.660443,117.692398 C391.81335,115.347447 391.81335,49.3761793 390.743001,39.9963781 L384.015091,39.9963781 L384.932533,42.8103185 C386.002882,46.0932489 374.993574,48.9071892 374.993574,46.4059089 L375.146481,35.9317976 C375.146481,33.8995074 387.531953,36.2444577 396.400562,35.7754676 C405.269171,35.3064776 415.666851,31.8672171 415.666851,33.7431774 C415.666851,35.6191376 416.125572,42.1849984 415.819758,46.718569 C415.513944,51.2521395 404.81045,54.84773 405.116264,50.3141594 L406.033707,39.058398 L399.917424,39.5273881 C399.917424,39.5273881 400.529053,79.235213 400.987774,89.2403342 C401.599402,99.0891254 403.434287,111.908187 403.587194,115.034787 C403.893008,118.005058 391.354629,121.756978 391.660443,117.692398 Z" id="Path" fill="#AA181B"></path>
            <path d="M460.360509,115.693849 C460.524662,115.216933 460.688816,114.740017 460.360509,114.104129 L460.360509,115.693849 L460.360509,115.693849 Z M460.360509,88.0327297 L472.343711,78.3354408 C471.030483,69.2740397 470.86633,61.8023581 471.35879,54.3306765 C471.522944,51.3102095 465.613419,50.1974058 460.360509,51.3102095 L460.360509,55.7614241 C461.509583,55.2845082 462.494504,55.4434802 462.494504,57.6690874 C462.494504,62.4382459 463.151118,80.878992 463.151118,80.878992 C463.151118,80.878992 461.673736,82.3097395 460.196355,83.7404871 L460.360509,88.0327297 L460.360509,88.0327297 Z M446.899925,57.0331996 C446.899925,57.9870313 448.049,79.9251603 448.377306,90.4173089 C448.705613,100.909458 448.705613,112.832354 448.869767,117.44254 C449.03392,121.416839 458.883128,118.873288 460.360509,115.693849 L460.360509,114.104129 L460.360509,114.104129 C458.390667,110.447775 458.06236,89.7814211 458.06236,89.7814211 L460.360509,88.0327297 L460.196355,83.899459 C459.375588,84.6943188 458.718974,85.8071224 458.06236,86.2840383 L457.405747,59.2588069 C457.405747,58.1460033 459.047281,56.5562838 460.360509,55.920396 L460.360509,51.4691814 C460.196355,51.4691814 461.017123,51.3102095 459.868048,51.6281534 C454.615138,52.740957 446.899925,55.1255363 446.899925,57.0331996 Z" id="Shape" fill="#AA181B"></path>
        </g>
    </g>
</svg>