<svg width="100" height="100" viewBox="0 0 100 100" fill="none" xmlns="http://www.w3.org/2000/svg">
<path d="M97.9129 25.904C97.3437 23.7839 96.2276 21.8505 94.6763 20.2973C93.1251 18.744 91.193 17.6255 89.0737 17.0536C81.2723 14.9554 50 14.9554 50 14.9554C50 14.9554 18.7277 14.9554 10.9263 17.0424C8.80603 17.6125 6.87304 18.7304 5.32149 20.2839C3.76994 21.8374 2.65446 23.7718 2.08705 25.8929C-4.25747e-07 33.7054 0 50 0 50C0 50 -4.25747e-07 66.2946 2.08705 74.096C3.23661 78.404 6.62946 81.7969 10.9263 82.9464C18.7277 85.0446 50 85.0446 50 85.0446C50 85.0446 81.2723 85.0446 89.0737 82.9464C93.3817 81.7969 96.7634 78.404 97.9129 74.096C100 66.2946 100 50 100 50C100 50 100 33.7054 97.9129 25.904ZM40.067 64.9554V35.0446L65.9598 49.8884L40.067 64.9554Z" fill="url(#paint0_linear_202_2)"/>
<path d="M66 50L40 35V65L66 50Z" fill="#D9D9D9"/>
<defs>
<linearGradient id="paint0_linear_202_2" x1="50" y1="14.9554" x2="50" y2="85.0446" gradientUnits="userSpaceOnUse">
<stop stop-color="#E22C29"/>
<stop offset="1" stop-color="#BF2327"/>
</linearGradient>
</defs>
</svg>
