<svg width="100" height="100" fill="none" xmlns="http://www.w3.org/2000/svg"><path d="M97.913 25.904a12.532 12.532 0 00-8.84-8.85C81.274 14.955 50 14.955 50 14.955s-31.272 0-39.074 2.087a12.514 12.514 0 00-8.839 8.85C0 33.706 0 50 0 50s0 16.295 2.087 24.096a12.533 12.533 0 008.84 8.85C18.726 85.045 50 85.045 50 85.045s31.272 0 39.074-2.099a12.513 12.513 0 008.839-8.85C100 66.295 100 50 100 50s0-16.295-2.087-24.096zM40.067 64.955v-29.91L65.96 49.888 40.067 64.955z" fill="url(#paint0_linear_202_2)"/><path d="M66 50L40 35v30l26-15z" fill="#D9D9D9"/><defs><linearGradient id="paint0_linear_202_2" x1="50" y1="14.955" x2="50" y2="85.045" gradientUnits="userSpaceOnUse"><stop stop-color="#E22C29"/><stop offset="1" stop-color="#BF2327"/></linearGradient></defs></svg>