<?xml version="1.0" encoding="utf-8"?><svg xmlns="http://www.w3.org/2000/svg" xmlns:xlink="http://www.w3.org/1999/xlink"><symbol viewBox="0 0 35 26" id="3b-divider" xmlns="http://www.w3.org/2000/svg"><g clip-path="url(#aclip0_201_2)" fill-rule="evenodd" clip-rule="evenodd"><path d="M26.208 19.844c-8.977-.57-5.018-14.21 4.675-15.92 7.636 6.805 3.678 19.876-3.959 16.3-.53 2.532-2.493 5.697-2.493 5.697s-.187 0-.499-.158a1.004 1.004 0 0 1-.436-.443s1.62-1.108 2.338-3.039c.748-1.962.374-2.437.374-2.437z"/><path d="M33.408 10.666c0-.981-.25-2.089-.562-3.323A12.277 12.277 0 0 1 34 10.76l-.592-.095zM28.7 13.83l.125.19 1.59-.886.28-2.912.904.158c.374-1.994-.094-4.59-.904-5.982 0 0-3.398.728-5.61 3.735l1.06.411c.217-.348.623-1.044 1.059-1.55.592-.728 1.184-1.171 1.184-1.171a19.272 19.272 0 0 0-1.59 2.975l1.933.76-.124.316-.842 2.152.935 1.804zm.405-3.988l-.374 2.216.374 1.582-.935-1.456.935-2.342z"/><path d="M32.535 16.838c-.561 1.74-1.808 2.785-3.21 3.26 1.527-.095 2.992-.982 3.958-3.292l-.748.032zm-6.982-8.04c-2.306.824-3.771 3.419-3.49 5.76.373 3.387 3.24 4.685 6.295 5.001.655-.98.78-2.183.53-3.006-.873-.792-2.369-1.108-3.553-1.108-.031.032-.094.222-.125.253-3.023-1.835-1.371-5.57.28-6.171l-.249.506c-1.527 1.36-1.215 3.355-.155 4.273l1.496-1.298.872.317.218-2.912v-.063l-1.028-.159.094-.854-1.185-.538zM26.8 14.18c1.652.95 2.618.886 2.618.886l.343 1.424s-.499-.854-1.434-1.266c-.904-.38-2.12-.063-2.12-.063l.032-.633.56-.348zm4.395-2.057l.343 1.804s.498-.19.966-.728c.467-.507.685-.95.685-.95s-1.184.285-1.994-.126z"/><path d="M17.387 20.889c1.309-1.71 5.61-2.342 5.828-4.748.125-1.487-1.558-2.722.5-4.304 1.215-.918 1.277-2.848-.718-3.735-1.87-.854-.25-1.994-.81-3.418-.78-1.899-2.899-.601-3.46-3.133C18.353-.032 17.075 0 17.075 0s-1.34-.032-1.683 1.55c-.56 2.533-2.712 1.235-3.46 3.134-.592 1.424 1.06 2.564-.81 3.418-1.995.887-1.932 2.817-.717 3.735 2.057 1.55.374 2.785.499 4.304.218 2.564 5.111 3.134 6.078 5.128-.094 1.804.03 3.513.218 4.525.25.285.78.253 1.09-.063 0 0-.997-2.31-.872-4.273-.093-.221-.062-.411-.031-.57z"/><path d="M21.22 7.153c.281-1.836-.373-2.659-.872-3.165 0 0 1.06.411 1.309 1.266.25.854-.031 1.487-.125 1.772l-.311.127zm-3.428-5.95s.53.696 1.06 2.405c.498 1.678.623 3.893.592 3.893l-.654.063.467 3.07-1.31 1.52-.03-.032-1.559-1.614.187-1.804.125-1.108-2.556-.317c-.467-1.266-.093-2.437-.093-2.437-.593.57-.748 1.425-.53 2.342l-.592-.126c-.219-.728-.468-1.678.342-2.532.81-.823 1.995-.253 2.432-1.614.405-1.361 1.184-1.867 2.12-1.71z"/><path d="M23.09 8.609c.562.285.967.886.967 1.582 0 .696-.405 1.298-.966 1.583.311-.412.498-.95.498-1.583 0-.601-.187-1.17-.498-1.582zm-3.147.95l.685 1.645.78-2.216-1.465.57zm-3.585 2.405l-.904.031-.56 2.089-.717-.665.935 4.273.28-2.374 1.527-.57h2.182c.312.824.468 2.564.031 3.989 0 0-.654.19-1.215.57-.031-.57-.063-1.552-.156-2.501-.374.95-.623 2.12-.748 3.323-.125-.253-.437-.791-1.278-1.33-1.184-.759-3.335-1.265-4.02-2.405-.687-1.139.342-2.025.124-3.386-.218-1.266-1.496-1.867-1.278-3.323.218-1.424 1.87-2.057 3.055-1.868-.81.475-1.777 2.849-1.123 5.033l1.216.063-.467-.443c-.156-.633-.219-1.393-.125-2.026l1.558 1.773-1.434-2.785c.125-.538.343-1.14.624-1.583l.748.158.28.855.78-.158.685 3.26zm-.716 1.74l.187.602 1.776-.633h2.088l-.81-.823h-2.68l-.561.854zm3.958-.854h.748l.125 1.519-.873-1.52z"/><path d="M8.254 20.477C3.797 22.028.338 18.388.026 13.451-.254 8.8 1.834 6.361 1.584 4.02c10.348 1.614 13.652 13.45 7.107 16.299.343 1.93.312 4.051.156 5.444-.218.316-.748.316-1.091 0 0 0 .81-2.5.53-5.222l-.032-.064z"/><path d="M2.208 4.747c.374 2.28-1.84 4.273-1.34 8.989l1.06-.253c-.5-2.5 0-4.843.31-5.792.032 1.298.094 2.152.281 3.228 1.559-.221 2.774.412 3.71 1.393-.032-1.14.374-1.994.997-2.69-1.153-2.026-2.992-3.735-5.018-4.875zm6.046 4.178l-.654.348s-.031-1.456-1.184-2.816L6.29 6.33c1.434.918 2.774 2.532 3.584 4.114l-.685.412a13.79 13.79 0 0 0-.936-1.93z"/><path d="M10.655 14.052c.467 1.804.187 3.482-.81 4.748 1.183-.981 1.776-2.722 1.277-5.127l-.467.38zm-9.351.507c.125 1.013.841 2.88 2.462 3.83l-.03.917c1.121 1.076 3.21.918 4.425.348-.062-1.234-.53-2.88-.997-3.608l-2.151.697.125 2.12c-.374-.95-.78-1.867-1.154-2.817a3.778 3.778 0 0 1-1.371-1.804v.032l-1.31.285zm3.054.981c-.841-.506-1.215-1.614-1.433-2.342l-.53.158-.25-1.709.624-.19.436.823.81-.19.468-.348 1.87 1.266.187-.728.686 1.456-.53.221-.405-.19-.53.19-.748-.57.343 1.108-.998 1.045zm3.055-3.861l1.09.918c.25-.38.344-1.171-.155-1.931l-.935 1.013zm1.465 2.31l.56 1.298-.093-1.456s-.405.158-.467.158zm-1.746.791l1.902.412-1.34.095-1.995.696.03-.76 1.403-.443z"/></g><defs><clipPath id="aclip0_201_2"><path d="M0 0h35v26H0z"/></clipPath></defs></symbol><symbol viewBox="0 0 32 32" id="findprice" xmlns="http://www.w3.org/2000/svg"><path d="M23.75 0H8.25c-1.77 0-3.2 1.44-3.2 3.2v27.73c0 .43.25.81.64.98s.84.09 1.15-.2l3.88-3.63 4.61 3.69c.39.31.95.31 1.34 0l4.61-3.69 3.88 3.63c.64.64 1.83.13 1.79-.78V3.2c0-1.76-1.43-3.2-3.2-3.2zM19.6 17.65c-.95 0-1.72-.77-1.72-1.73 0-.95.77-1.72 1.72-1.72a1.724 1.724 0 1 1 0 3.45zm-8.93-8.94c0-.95.77-1.72 1.73-1.72.95 0 1.72.77 1.72 1.72a1.724 1.724 0 1 1-3.45 0zm3.45 10.01a1.062 1.062 0 0 1-1-1.42l3.75-10.67c.2-.55.8-.85 1.36-.65s.85.8.65 1.36l-3.75 10.67c-.15.44-.57.71-1.01.71z" data-original="#000000"/></symbol><symbol viewBox="0 0 512 512" id="map-pin" xmlns="http://www.w3.org/2000/svg"><path d="M256 0C153.755 0 70.573 83.182 70.573 185.426c0 126.888 165.939 313.167 173.004 321.035 6.636 7.391 18.222 7.378 24.846 0 7.065-7.868 173.004-194.147 173.004-321.035C441.425 83.182 358.244 0 256 0zm0 278.719c-51.442 0-93.292-41.851-93.292-93.293S204.559 92.134 256 92.134s93.291 41.851 93.291 93.293-41.85 93.292-93.291 93.292z"/></symbol><symbol id="ordercall" viewBox="0 0 512 512" xmlns="http://www.w3.org/2000/svg"><path d="M498.1 375.8l-71.5-71.5c-25.5-25.5-68.9-15.3-79.1 17.9-7.7 23-33.2 35.7-56.1 30.6-51-12.8-119.9-79.1-132.7-132.7-7.7-23 7.7-48.5 30.6-56.1 33.2-10.2 43.4-53.6 17.9-79.1l-71.5-71.5c-20.4-17.9-51-17.9-68.9 0L18.3 61.9c-48.5 51 5.1 186.3 125 306.2s255.2 176.1 306.2 125l48.5-48.5c17.9-20.4 17.9-51 .1-68.8zM481.6 86.8h-57.9V28.9c0-14.2-12-25.9-26.2-25.9s-26.2 11.7-26.2 25.9v57.9h-57.9c-14.2 0-25.9 12-25.9 26.2s11.7 26.2 25.9 26.2h57.9v57.9c0 14.2 12 25.9 26.2 25.9s26.2-11.7 26.2-25.9v-57.9h57.9c14.2 0 25.9-12 25.9-26.2s-11.7-26.2-25.9-26.2z"/></symbol><symbol viewBox="0 0 32 32" id="people" xmlns="http://www.w3.org/2000/svg"><path d="M15.867 14.881a4.941 4.941 0 1 0-4.941-4.94 4.946 4.946 0 0 0 4.941 4.94zm0-7.881a2.941 2.941 0 1 1-2.941 2.941A2.945 2.945 0 0 1 15.867 7zM6.533 17.785a3.8 3.8 0 1 0-3.8-3.8 3.8 3.8 0 0 0 3.8 3.8zm0-5.6a1.8 1.8 0 1 1-1.8 1.8 1.8 1.8 0 0 1 1.8-1.8zM25.2 17.785a3.8 3.8 0 1 0-3.8-3.8 3.8 3.8 0 0 0 3.8 3.8zm0-5.6a1.8 1.8 0 1 1-1.8 1.8 1.8 1.8 0 0 1 1.8-1.8zM25.333 19.791a5.269 5.269 0 0 0-2.506.653A8.237 8.237 0 0 0 16 16.607a8.237 8.237 0 0 0-6.827 3.837 5.269 5.269 0 0 0-2.506-.653A5.963 5.963 0 0 0 1 26a1 1 0 0 0 2 0 3.971 3.971 0 0 1 3.667-4.209 3.272 3.272 0 0 1 1.577.419 10.085 10.085 0 0 0-.711 3.732 1 1 0 0 0 2 0c0-4.045 2.9-7.335 6.467-7.335s6.467 3.29 6.467 7.335a1 1 0 0 0 2 0 10.085 10.085 0 0 0-.711-3.732 3.272 3.272 0 0 1 1.577-.419A3.971 3.971 0 0 1 29 26a1 1 0 0 0 2 0 5.963 5.963 0 0 0-5.667-6.209z" data-original="#000000"/></symbol><symbol id="phone" viewBox="0 0 512 512" xmlns="http://www.w3.org/2000/svg"><path d="M498.1 375.8l-71.5-71.5c-25.5-25.5-68.9-15.3-79.1 17.9-7.7 23-33.2 35.7-56.1 30.6-51-12.8-119.9-79.1-132.7-132.7-7.7-23 7.7-48.5 30.6-56.1 33.2-10.2 43.4-53.6 17.9-79.1l-71.5-71.5c-20.4-17.9-51-17.9-68.9 0L18.3 61.9c-48.5 51 5.1 186.3 125 306.2s255.2 176.1 306.2 125l48.5-48.5c17.9-20.4 17.9-51 .1-68.8z"/></symbol><symbol id="stars" viewBox="0 0 171 171" xmlns="http://www.w3.org/2000/svg"><style>.gst0{fill:#010101}</style><path class="gst0" d="M112 19.6c23 10.3 41.7 36.3 39.3 67.7-2.6 32.8-26.7 57.6-56.7 62.9-33.6 6-63.1-12.6-75-38.4 29 11.3 55.8 7.9 78.1-14.3 22.2-22.3 25.6-49.1 14.3-77.9zM10.9 50.3c2.2-5.7 4.3-11.3 6.4-16.9.3-.8-.1-1.1-.6-1.4L4.4 22.7c-.4-.3-.8-.7-1.6-1.2h11.4c1.9 0 3.9-.1 5.8 0 1.1.1 1.5-.3 1.8-1.4 1.6-5.6 3.2-11.2 4.8-17 .6.6.6 1.3.8 1.8 1.5 5.1 2.9 10.2 4.4 15.3.3.9.7 1.3 1.7 1.2 5.6-.1 11.3 0 17.4 0-4 3-7.6 5.8-11.2 8.5-1.2.9-3 1.7-3.3 2.8-.3 1.2.8 2.8 1.3 4.1 1.5 3.9 3 7.8 4.4 11.8.2.5.6 1 .3 1.8-1.7-1.1-3.3-2.2-4.9-3.3-3.2-2.1-6.4-4.2-9.5-6.4-.9-.6-1.5-.6-2.3 0-4.4 3-8.8 6-13.2 8.9-.5.3-.8.8-1.6.7z"/><path class="gst0" d="M61.6 82.2c2.2-5.7 4.3-11.3 6.4-16.9.3-.8-.2-1.1-.7-1.4-4.1-3.1-8.2-6.2-12.3-9.4-.4-.3-.8-.6-1.5-1.2h17c1.3 0 1.8-.3 2.1-1.6 1.5-5.6 3.2-11.1 4.9-17.2 1 3.3 1.8 6.1 2.6 8.9.8 2.8 1.6 5.6 2.4 8.5.3 1 .6 1.4 1.8 1.4 5.1-.1 10.2 0 15.3 0h2c-4.5 3.4-8.6 6.5-12.7 9.7-2.1 1.6-2.1 1.6-1.2 4l5.1 13.5c.2.5.7 1.1.3 1.9-2.2-1.5-4.4-2.9-6.6-4.4-2.5-1.7-5.1-3.4-7.5-5.1-1-.7-1.7-.8-2.7 0-4.3 3-8.7 5.9-13.1 8.8-.5.2-.9.7-1.6.5zM136.1 146.6H147c1 0 1.4-.3 1.8-1.2 1-3.1 2.1-6.1 3.3-9.6 1.2 3.4 2.3 6.3 3.3 9.3.4 1.3 1 1.6 2.2 1.5 3.4-.1 6.8 0 10.6 0-2.6 2.2-5 4.1-7.4 6-2.5 2-2.5 2-1.5 5.1 1 2.8 1.9 5.6 2.9 8.5.1.4.4.8.2 1.5-2.2-1.6-4.3-3.3-6.5-4.8-1.2-.9-2.4-2.6-3.8-2.5-1.3.1-2.5 1.6-3.8 2.5-2.2 1.6-4.3 3.2-6.9 5.2 1.3-3.8 2.4-7 3.5-10.3 1-3.1 1-3-1.5-5.1-2.3-2-4.6-3.9-7.3-6.1z"/></symbol><symbol id="sun" viewBox="0 0 227.2 227.2" xmlns="http://www.w3.org/2000/svg"><style>.hst0{fill:#010101}</style><path class="hst0" d="M223.1 121.2c-5.4 1.6-9.7-.5-13.4-4.2-3.1-3.2-5.4-6.9-7.3-10.8-2.4-4.8-5.7-8.9-9.8-12.4-3.5-3-7.5-5.1-12.1-6.8 6.1-6.1 10.6-13 13.5-20.9 2.9-7.8 4-20.7 2.3-24.5-2.1 4.2-5.6 6.1-10.1 6.5-5.4.5-10.5-.9-15.6-2.5-4.9-1.6-9.8-2.2-15-1.7-4.7.4-9.1 1.8-13.4 3.7-.1-17.9-6.9-32.4-20.9-43.4 1.7 5 .1 9.1-3.2 12.7-3.4 3.7-7.7 6.1-12.1 8.4-8.5 4.3-14.4 10.9-18 19.6-.3.6-.2 1.4-.9 1.7C72.9 31.9 52.7 28.5 41.7 31c4.5 2.2 6.3 6 6.6 10.7.4 5.2-.9 10.1-2.5 14.9-1.9 6-2.4 12.2-1.2 18.5.6 3.4 1.9 6.6 3.2 9.9-17.9.1-32.3 7-43.7 21 1.4-.3 2.2-.5 3.1-.6 4.2-.5 7.4 1.4 10.3 4.1 3.6 3.4 6 7.7 8.2 12 3.5 6.8 8.7 12 15.4 15.7 1.9 1.1 3.9 1.9 5.9 2.8-14.7 14.1-18.2 34.3-15.7 45.4 2.2-4.4 5.9-6.3 10.5-6.6 5.2-.4 10.2.9 15.1 2.5 7.6 2.5 15.2 2.5 22.8.2 1.9-.6 3.7-1.4 5.6-2.1.1 17.9 6.9 32.2 20.9 43.6-1.2-6.5-.1-10 4.5-14.3 3.2-3 7-5.1 10.9-7.1 8.5-4.3 14.4-11 18-19.8.2-.5.1-1.2.9-1.4 12.6 12.3 27.6 17.7 45.2 15.7-4.4-2.4-6.2-6.1-6.5-10.7-.4-5.2.9-10.2 2.5-15.1 1.5-4.9 2.2-9.8 1.7-15-.4-4.7-1.8-9-3.7-13.4 17.9 0 32.4-6.9 43.4-20.7zm-109.5 55.9c-35-.1-63.6-28.8-63.5-63.9 0-34.9 28.6-63.5 63.7-63.6 35 0 63.8 28.7 63.8 63.6 0 35.2-28.8 64-64 63.9z"/><path class="hst0" d="M57.1 113.4c0-31.4 25.3-56.7 56.7-56.6 31.4 0 56.6 25.3 56.6 56.8 0 31.4-25.4 56.6-56.9 56.5-31.1-.1-56.4-25.4-56.4-56.7z"/></symbol><symbol viewBox="0 0 24 24" id="telegram" xmlns="http://www.w3.org/2000/svg"><path d="M12 24c6.629 0 12-5.371 12-12S18.629 0 12 0 0 5.371 0 12s5.371 12 12 12zM5.491 11.74l11.57-4.461c.537-.194 1.006.131.832.943l.001-.001-1.97 9.281c-.146.658-.537.818-1.084.508l-3-2.211-1.447 1.394c-.16.16-.295.295-.605.295l.213-3.053 5.56-5.023c.242-.213-.054-.333-.373-.121l-6.871 4.326-2.962-.924c-.643-.204-.657-.643.136-.953z" data-original="#000000"/></symbol><symbol viewBox="0 0 548.358 548.358" id="vk" xmlns="http://www.w3.org/2000/svg"><path d="M545.451 400.298c-.664-1.431-1.283-2.618-1.858-3.569-9.514-17.135-27.695-38.167-54.532-63.102l-.567-.571-.284-.28-.287-.287h-.288c-12.18-11.611-19.893-19.418-23.123-23.415-5.91-7.614-7.234-15.321-4.004-23.13 2.282-5.9 10.854-18.36 25.696-37.397 7.807-10.089 13.99-18.175 18.556-24.267 32.931-43.78 47.208-71.756 42.828-83.939l-1.701-2.847c-1.143-1.714-4.093-3.282-8.846-4.712-4.764-1.427-10.853-1.663-18.278-.712l-82.224.568c-1.332-.472-3.234-.428-5.712.144l-3.713.859-1.431.715-1.136.859c-.952.568-1.999 1.567-3.142 2.995-1.137 1.423-2.088 3.093-2.848 4.996-8.952 23.031-19.13 44.444-30.553 64.238-7.043 11.803-13.511 22.032-19.418 30.693-5.899 8.658-10.848 15.037-14.842 19.126-4 4.093-7.61 7.372-10.852 9.849-3.237 2.478-5.708 3.525-7.419 3.142-1.715-.383-3.33-.763-4.859-1.143-2.663-1.714-4.805-4.045-6.42-6.995-1.622-2.95-2.714-6.663-3.285-11.136-.568-4.476-.904-8.326-1-11.563-.089-3.233-.048-7.806.145-13.706.198-5.903.287-9.897.287-11.991 0-7.234.141-15.085.424-23.555.288-8.47.521-15.181.716-20.125.194-4.949.284-10.185.284-15.705s-.336-9.849-1-12.991a44.442 44.442 0 0 0-2.99-9.137c-1.335-2.95-3.289-5.232-5.853-6.852-2.569-1.618-5.763-2.902-9.564-3.856-10.089-2.283-22.936-3.518-38.547-3.71-35.401-.38-58.148 1.906-68.236 6.855-3.997 2.091-7.614 4.948-10.848 8.562-3.427 4.189-3.905 6.475-1.431 6.851 11.422 1.711 19.508 5.804 24.267 12.275l1.715 3.429c1.334 2.474 2.666 6.854 3.999 13.134 1.331 6.28 2.19 13.227 2.568 20.837.95 13.897.95 25.793 0 35.689-.953 9.9-1.853 17.607-2.712 23.127-.859 5.52-2.143 9.993-3.855 13.418-1.715 3.426-2.856 5.52-3.428 6.28-.571.76-1.047 1.239-1.425 1.427a21.387 21.387 0 0 1-7.71 1.431c-2.667 0-5.901-1.334-9.707-4-3.805-2.666-7.754-6.328-11.847-10.992-4.093-4.665-8.709-11.184-13.85-19.558-5.137-8.374-10.467-18.271-15.987-29.691l-4.567-8.282c-2.855-5.328-6.755-13.086-11.704-23.267-4.952-10.185-9.329-20.037-13.134-29.554-1.521-3.997-3.806-7.04-6.851-9.134l-1.429-.859c-.95-.76-2.475-1.567-4.567-2.427a30.301 30.301 0 0 0-6.567-1.854l-78.229.568c-7.994 0-13.418 1.811-16.274 5.428l-1.143 1.711c-.571.953-.859 2.475-.859 4.57 0 2.094.571 4.664 1.714 7.707 11.42 26.84 23.839 52.725 37.257 77.659 13.418 24.934 25.078 45.019 34.973 60.237 9.897 15.229 19.985 29.602 30.264 43.112 10.279 13.515 17.083 22.176 20.412 25.981 3.333 3.812 5.951 6.662 7.854 8.565l7.139 6.851c4.568 4.569 11.276 10.041 20.127 16.416 8.853 6.379 18.654 12.659 29.408 18.85 10.756 6.181 23.269 11.225 37.546 15.126 14.275 3.905 28.169 5.472 41.684 4.716h32.834c6.659-.575 11.704-2.669 15.133-6.283l1.136-1.431c.764-1.136 1.479-2.901 2.139-5.276.668-2.379 1-5 1-7.851-.195-8.183.428-15.558 1.852-22.124 1.423-6.564 3.045-11.513 4.859-14.846 1.813-3.33 3.859-6.14 6.136-8.418 2.282-2.283 3.908-3.666 4.862-4.142.948-.479 1.705-.804 2.276-.999 4.568-1.522 9.944-.048 16.136 4.429 6.187 4.473 11.99 9.996 17.418 16.56 5.425 6.57 11.943 13.941 19.555 22.124 7.617 8.186 14.277 14.271 19.985 18.274l5.708 3.426c3.812 2.286 8.761 4.38 14.853 6.283 6.081 1.902 11.409 2.378 15.984 1.427l73.087-1.14c7.229 0 12.854-1.197 16.844-3.572 3.998-2.379 6.373-5 7.139-7.851.764-2.854.805-6.092.145-9.712-.677-3.611-1.344-6.136-2.008-7.563z" data-original="#000000"/></symbol><symbol viewBox="0 0 682 682.66669" id="whatsapp" xmlns="http://www.w3.org/2000/svg"><path d="M544.387 93.008C484.512 33.063 404.883.035 320.05 0 145.246 0 2.98 142.262 2.91 317.113c-.024 55.895 14.577 110.457 42.331 158.551L.25 640l168.121-44.102c46.324 25.27 98.477 38.586 151.55 38.602h.134c174.785 0 317.066-142.273 317.132-317.133.036-84.742-32.921-164.418-92.8-224.36zM320.05 580.94h-.11c-47.296-.02-93.683-12.73-134.16-36.742l-9.62-5.715-99.766 26.172 26.628-97.27-6.27-9.972c-26.386-41.969-40.32-90.476-40.296-140.281.055-145.332 118.305-263.57 263.7-263.57 70.406.023 136.59 27.476 186.355 77.3s77.156 116.051 77.133 186.485C583.582 462.69 465.34 580.94 320.05 580.94zm144.586-197.418c-7.922-3.968-46.883-23.132-54.149-25.78-7.258-2.645-12.547-3.962-17.824 3.968-5.285 7.93-20.469 25.781-25.094 31.066-4.625 5.29-9.242 5.953-17.168 1.985-7.925-3.965-33.457-12.336-63.726-39.332-23.555-21.012-39.457-46.961-44.082-54.89-4.617-7.938-.04-11.813 3.476-16.173 8.578-10.652 17.168-21.82 19.809-27.105 2.644-5.29 1.32-9.918-.664-13.883-1.977-3.965-17.824-42.969-24.426-58.84-6.437-15.445-12.965-13.36-17.832-13.601-4.617-.231-9.902-.278-15.187-.278-5.282 0-13.868 1.98-21.133 9.918-7.262 7.934-27.73 27.102-27.73 66.106s28.394 76.683 32.355 81.972c3.96 5.29 55.879 85.328 135.367 119.649 18.906 8.172 33.664 13.043 45.176 16.695 18.984 6.031 36.254 5.18 49.91 3.14 15.226-2.277 46.879-19.171 53.488-37.68 6.602-18.51 6.602-34.374 4.617-37.683-1.976-3.304-7.261-5.285-15.183-9.254zm0 0" fill-rule="evenodd" data-original="#000000"/></symbol><symbol viewBox="0 0 896 896" id="youtube" xmlns="http://www.w3.org/2000/svg"><path d="M877.3 232.1a112.302 112.302 0 0 0-79.2-79.3C728.2 134 448 134 448 134s-280.2 0-350.1 18.7A112.125 112.125 0 0 0 18.7 232C0 302 0 448 0 448s0 146 18.7 215.9c10.3 38.6 40.7 69 79.2 79.3C167.8 762 448 762 448 762s280.2 0 350.1-18.8c38.6-10.3 68.9-40.7 79.2-79.3C896 594 896 448 896 448s0-146-18.7-215.9zM359 582V314l232 133-232 135z"/></symbol></svg>