<?xml version="1.0" encoding="utf-8"?><svg xmlns="http://www.w3.org/2000/svg" xmlns:xlink="http://www.w3.org/1999/xlink"><symbol viewBox="0 0 35 26" id="3b-divider" xmlns="http://www.w3.org/2000/svg"><g clip-path="url(#aclip0_201_2)" fill-rule="evenodd" clip-rule="evenodd"><path d="M26.208 19.844c-8.977-.57-5.018-14.21 4.675-15.92 7.636 6.805 3.678 19.876-3.959 16.3-.53 2.532-2.493 5.697-2.493 5.697s-.187 0-.499-.158a1.004 1.004 0 0 1-.436-.443s1.62-1.108 2.338-3.039c.748-1.962.374-2.437.374-2.437z"/><path d="M33.408 10.666c0-.981-.25-2.089-.562-3.323A12.277 12.277 0 0 1 34 10.76l-.592-.095zM28.7 13.83l.125.19 1.59-.886.28-2.912.904.158c.374-1.994-.094-4.59-.904-5.982 0 0-3.398.728-5.61 3.735l1.06.411c.217-.348.623-1.044 1.059-1.55.592-.728 1.184-1.171 1.184-1.171a19.272 19.272 0 0 0-1.59 2.975l1.933.76-.124.316-.842 2.152.935 1.804zm.405-3.988l-.374 2.216.374 1.582-.935-1.456.935-2.342z"/><path d="M32.535 16.838c-.561 1.74-1.808 2.785-3.21 3.26 1.527-.095 2.992-.982 3.958-3.292l-.748.032zm-6.982-8.04c-2.306.824-3.771 3.419-3.49 5.76.373 3.387 3.24 4.685 6.295 5.001.655-.98.78-2.183.53-3.006-.873-.792-2.369-1.108-3.553-1.108-.031.032-.094.222-.125.253-3.023-1.835-1.371-5.57.28-6.171l-.249.506c-1.527 1.36-1.215 3.355-.155 4.273l1.496-1.298.872.317.218-2.912v-.063l-1.028-.159.094-.854-1.185-.538zM26.8 14.18c1.652.95 2.618.886 2.618.886l.343 1.424s-.499-.854-1.434-1.266c-.904-.38-2.12-.063-2.12-.063l.032-.633.56-.348zm4.395-2.057l.343 1.804s.498-.19.966-.728c.467-.507.685-.95.685-.95s-1.184.285-1.994-.126z"/><path d="M17.387 20.889c1.309-1.71 5.61-2.342 5.828-4.748.125-1.487-1.558-2.722.5-4.304 1.215-.918 1.277-2.848-.718-3.735-1.87-.854-.25-1.994-.81-3.418-.78-1.899-2.899-.601-3.46-3.133C18.353-.032 17.075 0 17.075 0s-1.34-.032-1.683 1.55c-.56 2.533-2.712 1.235-3.46 3.134-.592 1.424 1.06 2.564-.81 3.418-1.995.887-1.932 2.817-.717 3.735 2.057 1.55.374 2.785.499 4.304.218 2.564 5.111 3.134 6.078 5.128-.094 1.804.03 3.513.218 4.525.25.285.78.253 1.09-.063 0 0-.997-2.31-.872-4.273-.093-.221-.062-.411-.031-.57z"/><path d="M21.22 7.153c.281-1.836-.373-2.659-.872-3.165 0 0 1.06.411 1.309 1.266.25.854-.031 1.487-.125 1.772l-.311.127zm-3.428-5.95s.53.696 1.06 2.405c.498 1.678.623 3.893.592 3.893l-.654.063.467 3.07-1.31 1.52-.03-.032-1.559-1.614.187-1.804.125-1.108-2.556-.317c-.467-1.266-.093-2.437-.093-2.437-.593.57-.748 1.425-.53 2.342l-.592-.126c-.219-.728-.468-1.678.342-2.532.81-.823 1.995-.253 2.432-1.614.405-1.361 1.184-1.867 2.12-1.71z"/><path d="M23.09 8.609c.562.285.967.886.967 1.582 0 .696-.405 1.298-.966 1.583.311-.412.498-.95.498-1.583 0-.601-.187-1.17-.498-1.582zm-3.147.95l.685 1.645.78-2.216-1.465.57zm-3.585 2.405l-.904.031-.56 2.089-.717-.665.935 4.273.28-2.374 1.527-.57h2.182c.312.824.468 2.564.031 3.989 0 0-.654.19-1.215.57-.031-.57-.063-1.552-.156-2.501-.374.95-.623 2.12-.748 3.323-.125-.253-.437-.791-1.278-1.33-1.184-.759-3.335-1.265-4.02-2.405-.687-1.139.342-2.025.124-3.386-.218-1.266-1.496-1.867-1.278-3.323.218-1.424 1.87-2.057 3.055-1.868-.81.475-1.777 2.849-1.123 5.033l1.216.063-.467-.443c-.156-.633-.219-1.393-.125-2.026l1.558 1.773-1.434-2.785c.125-.538.343-1.14.624-1.583l.748.158.28.855.78-.158.685 3.26zm-.716 1.74l.187.602 1.776-.633h2.088l-.81-.823h-2.68l-.561.854zm3.958-.854h.748l.125 1.519-.873-1.52z"/><path d="M8.254 20.477C3.797 22.028.338 18.388.026 13.451-.254 8.8 1.834 6.361 1.584 4.02c10.348 1.614 13.652 13.45 7.107 16.299.343 1.93.312 4.051.156 5.444-.218.316-.748.316-1.091 0 0 0 .81-2.5.53-5.222l-.032-.064z"/><path d="M2.208 4.747c.374 2.28-1.84 4.273-1.34 8.989l1.06-.253c-.5-2.5 0-4.843.31-5.792.032 1.298.094 2.152.281 3.228 1.559-.221 2.774.412 3.71 1.393-.032-1.14.374-1.994.997-2.69-1.153-2.026-2.992-3.735-5.018-4.875zm6.046 4.178l-.654.348s-.031-1.456-1.184-2.816L6.29 6.33c1.434.918 2.774 2.532 3.584 4.114l-.685.412a13.79 13.79 0 0 0-.936-1.93z"/><path d="M10.655 14.052c.467 1.804.187 3.482-.81 4.748 1.183-.981 1.776-2.722 1.277-5.127l-.467.38zm-9.351.507c.125 1.013.841 2.88 2.462 3.83l-.03.917c1.121 1.076 3.21.918 4.425.348-.062-1.234-.53-2.88-.997-3.608l-2.151.697.125 2.12c-.374-.95-.78-1.867-1.154-2.817a3.778 3.778 0 0 1-1.371-1.804v.032l-1.31.285zm3.054.981c-.841-.506-1.215-1.614-1.433-2.342l-.53.158-.25-1.709.624-.19.436.823.81-.19.468-.348 1.87 1.266.187-.728.686 1.456-.53.221-.405-.19-.53.19-.748-.57.343 1.108-.998 1.045zm3.055-3.861l1.09.918c.25-.38.344-1.171-.155-1.931l-.935 1.013zm1.465 2.31l.56 1.298-.093-1.456s-.405.158-.467.158zm-1.746.791l1.902.412-1.34.095-1.995.696.03-.76 1.403-.443z"/></g><defs><clipPath id="aclip0_201_2"><path d="M0 0h35v26H0z"/></clipPath></defs></symbol><symbol viewBox="0 0 32 32" id="findprice" xmlns="http://www.w3.org/2000/svg"><path d="M23.75 0H8.25c-1.77 0-3.2 1.44-3.2 3.2v27.73c0 .43.25.81.64.98s.84.09 1.15-.2l3.88-3.63 4.61 3.69c.39.31.95.31 1.34 0l4.61-3.69 3.88 3.63c.64.64 1.83.13 1.79-.78V3.2c0-1.76-1.43-3.2-3.2-3.2zM19.6 17.65c-.95 0-1.72-.77-1.72-1.73 0-.95.77-1.72 1.72-1.72a1.724 1.724 0 1 1 0 3.45zm-8.93-8.94c0-.95.77-1.72 1.73-1.72.95 0 1.72.77 1.72 1.72a1.724 1.724 0 1 1-3.45 0zm3.45 10.01a1.062 1.062 0 0 1-1-1.42l3.75-10.67c.2-.55.8-.85 1.36-.65s.85.8.65 1.36l-3.75 10.67c-.15.44-.57.71-1.01.71z" data-original="#000000"/></symbol><symbol viewBox="0 0 512 512" id="map-pin" xmlns="http://www.w3.org/2000/svg"><path d="M256 0C153.755 0 70.573 83.182 70.573 185.426c0 126.888 165.939 313.167 173.004 321.035 6.636 7.391 18.222 7.378 24.846 0 7.065-7.868 173.004-194.147 173.004-321.035C441.425 83.182 358.244 0 256 0zm0 278.719c-51.442 0-93.292-41.851-93.292-93.293S204.559 92.134 256 92.134s93.291 41.851 93.291 93.293-41.85 93.292-93.291 93.292z"/></symbol><symbol id="ordercall" viewBox="0 0 512 512" xmlns="http://www.w3.org/2000/svg"><path d="M498.1 375.8l-71.5-71.5c-25.5-25.5-68.9-15.3-79.1 17.9-7.7 23-33.2 35.7-56.1 30.6-51-12.8-119.9-79.1-132.7-132.7-7.7-23 7.7-48.5 30.6-56.1 33.2-10.2 43.4-53.6 17.9-79.1l-71.5-71.5c-20.4-17.9-51-17.9-68.9 0L18.3 61.9c-48.5 51 5.1 186.3 125 306.2s255.2 176.1 306.2 125l48.5-48.5c17.9-20.4 17.9-51 .1-68.8zM481.6 86.8h-57.9V28.9c0-14.2-12-25.9-26.2-25.9s-26.2 11.7-26.2 25.9v57.9h-57.9c-14.2 0-25.9 12-25.9 26.2s11.7 26.2 25.9 26.2h57.9v57.9c0 14.2 12 25.9 26.2 25.9s26.2-11.7 26.2-25.9v-57.9h57.9c14.2 0 25.9-12 25.9-26.2s-11.7-26.2-25.9-26.2z"/></symbol><symbol id="phone" viewBox="0 0 512 512" xmlns="http://www.w3.org/2000/svg"><path d="M498.1 375.8l-71.5-71.5c-25.5-25.5-68.9-15.3-79.1 17.9-7.7 23-33.2 35.7-56.1 30.6-51-12.8-119.9-79.1-132.7-132.7-7.7-23 7.7-48.5 30.6-56.1 33.2-10.2 43.4-53.6 17.9-79.1l-71.5-71.5c-20.4-17.9-51-17.9-68.9 0L18.3 61.9c-48.5 51 5.1 186.3 125 306.2s255.2 176.1 306.2 125l48.5-48.5c17.9-20.4 17.9-51 .1-68.8z"/></symbol><symbol viewBox="0 0 682 682.66669" id="whatsapp" xmlns="http://www.w3.org/2000/svg"><path d="M544.387 93.008C484.512 33.063 404.883.035 320.05 0 145.246 0 2.98 142.262 2.91 317.113c-.024 55.895 14.577 110.457 42.331 158.551L.25 640l168.121-44.102c46.324 25.27 98.477 38.586 151.55 38.602h.134c174.785 0 317.066-142.273 317.132-317.133.036-84.742-32.921-164.418-92.8-224.36zM320.05 580.94h-.11c-47.296-.02-93.683-12.73-134.16-36.742l-9.62-5.715-99.766 26.172 26.628-97.27-6.27-9.972c-26.386-41.969-40.32-90.476-40.296-140.281.055-145.332 118.305-263.57 263.7-263.57 70.406.023 136.59 27.476 186.355 77.3s77.156 116.051 77.133 186.485C583.582 462.69 465.34 580.94 320.05 580.94zm144.586-197.418c-7.922-3.968-46.883-23.132-54.149-25.78-7.258-2.645-12.547-3.962-17.824 3.968-5.285 7.93-20.469 25.781-25.094 31.066-4.625 5.29-9.242 5.953-17.168 1.985-7.925-3.965-33.457-12.336-63.726-39.332-23.555-21.012-39.457-46.961-44.082-54.89-4.617-7.938-.04-11.813 3.476-16.173 8.578-10.652 17.168-21.82 19.809-27.105 2.644-5.29 1.32-9.918-.664-13.883-1.977-3.965-17.824-42.969-24.426-58.84-6.437-15.445-12.965-13.36-17.832-13.601-4.617-.231-9.902-.278-15.187-.278-5.282 0-13.868 1.98-21.133 9.918-7.262 7.934-27.73 27.102-27.73 66.106s28.394 76.683 32.355 81.972c3.96 5.29 55.879 85.328 135.367 119.649 18.906 8.172 33.664 13.043 45.176 16.695 18.984 6.031 36.254 5.18 49.91 3.14 15.226-2.277 46.879-19.171 53.488-37.68 6.602-18.51 6.602-34.374 4.617-37.683-1.976-3.304-7.261-5.285-15.183-9.254zm0 0" fill-rule="evenodd" data-original="#000000"/></symbol></svg>