<?xml version="1.0" encoding="UTF-8"?><svg xmlns="http://www.w3.org/2000/svg" xmlns:xlink="http://www.w3.org/1999/xlink"><symbol viewBox="0 0 454 26" id="3b-divider" xmlns="http://www.w3.org/2000/svg"><title>new-divider</title><g id="aPage-1" fill-rule="evenodd"><g id="apage001" transform="translate(-523 -1787)"><g id="anew-divider" transform="translate(523 1787)"><path d="M236.208 19.844c-8.977-.57-5.019-14.21 4.675-15.92 7.636 6.805 3.678 19.876-3.958 16.3-.53 2.532-2.494 5.697-2.494 5.697s-.187 0-.499-.158a1.004 1.004 0 0 1-.436-.443s1.62-1.108 2.338-3.039c.748-1.962.374-2.437.374-2.437z" id="aPath"/><path d="M243.408 10.666c0-.981-.25-2.089-.561-3.323A12.278 12.278 0 0 1 244 10.76l-.592-.095zM238.7 13.83l.125.19 1.59-.886.28-2.912.904.158c.374-1.994-.094-4.59-.904-5.982 0 0-3.397.728-5.61 3.735l1.06.411c.217-.348.623-1.044 1.059-1.55.592-.728 1.184-1.171 1.184-1.171a19.276 19.276 0 0 0-1.59 2.975l1.933.76-.124.316-.842 2.152.935 1.804zm.405-3.988l-.374 2.215.374 1.583-.935-1.456.935-2.342z" id="aShape"/><path d="M242.535 16.838c-.561 1.74-1.808 2.785-3.21 3.26 1.527-.096 2.992-.982 3.958-3.292l-.748.032zm-6.982-8.04c-2.306.823-3.771 3.419-3.49 5.76.373 3.387 3.24 4.685 6.295 5.001.655-.98.78-2.183.53-3.006-.873-.792-2.369-1.108-3.553-1.108-.031.032-.094.221-.125.253-3.023-1.836-1.371-5.57.28-6.171l-.249.506c-1.527 1.36-1.215 3.355-.155 4.273l1.496-1.298.872.316.219-2.911v-.064l-1.029-.158.094-.854-1.185-.538zm1.247 5.381c1.652.95 2.618.886 2.618.886l.343 1.424s-.499-.854-1.434-1.266c-.904-.38-2.12-.063-2.12-.063l.032-.633.56-.348zm4.395-2.057l.342 1.804s.5-.19.967-.728c.467-.507.685-.95.685-.95s-1.184.285-1.994-.126z" id="aShape"/><path d="M227.387 20.889c1.309-1.71 5.61-2.342 5.828-4.748.125-1.487-1.558-2.722.5-4.304 1.215-.918 1.277-2.849-.718-3.735-1.87-.854-.25-1.994-.81-3.418-.78-1.899-2.899-.601-3.46-3.133C228.353-.032 227.075 0 227.075 0s-1.34-.032-1.683 1.55c-.56 2.533-2.712 1.235-3.46 3.134-.592 1.424 1.06 2.564-.81 3.418-1.995.886-1.932 2.817-.717 3.735 2.057 1.55.374 2.785.499 4.304.218 2.564 5.111 3.134 6.078 5.127-.094 1.804.03 3.513.218 4.526.25.285.78.253 1.09-.063 0 0-.997-2.31-.872-4.273-.093-.221-.062-.411-.031-.57z" id="aPath"/><path d="M231.22 7.153c.281-1.836-.373-2.659-.872-3.165 0 0 1.06.411 1.309 1.266.25.854-.031 1.487-.125 1.772l-.311.127zm-3.428-5.95s.53.696 1.06 2.405c.499 1.677.623 3.893.592 3.893l-.654.063.467 3.07-1.309 1.52-.031-.032-1.559-1.614.187-1.804.125-1.108-2.556-.317c-.467-1.266-.093-2.437-.093-2.437-.592.57-.748 1.425-.53 2.342l-.592-.126c-.219-.728-.468-1.678.342-2.532.81-.823 1.995-.253 2.432-1.614.405-1.361 1.184-1.868 2.12-1.71z" id="aShape"/><path d="M233.09 8.609c.562.285.967.886.967 1.582 0 .696-.405 1.298-.966 1.583.311-.412.498-.95.498-1.583 0-.601-.187-1.17-.498-1.582zm-3.147.95l.685 1.645.78-2.216-1.465.57zm-3.585 2.405l-.904.031-.56 2.089-.717-.665.935 4.273.28-2.374 1.527-.57h2.182c.312.824.468 2.564.031 3.988 0 0-.654.19-1.215.57-.031-.57-.063-1.55-.156-2.5-.374.95-.623 2.12-.748 3.323-.125-.253-.436-.791-1.278-1.33-1.184-.759-3.335-1.265-4.02-2.405-.686-1.139.342-2.025.124-3.386-.218-1.266-1.496-1.867-1.278-3.323.218-1.424 1.87-2.057 3.055-1.868-.81.475-1.777 2.849-1.123 5.033l1.216.063-.468-.443c-.155-.633-.218-1.393-.124-2.026l1.558 1.773-1.434-2.785c.125-.538.343-1.14.624-1.583l.748.158.28.855.78-.158.685 3.26zm-.717 1.74l.187.602 1.777-.633h2.088l-.81-.823h-2.68l-.562.854zm3.959-.854h.748l.125 1.519-.873-1.52z" id="aShape"/><path d="M218.255 20.477c-4.458 1.551-7.917-2.089-8.229-7.026-.28-4.652 1.808-7.09 1.558-9.431 10.348 1.614 13.652 13.45 7.107 16.299.343 1.93.312 4.051.156 5.444-.218.316-.748.316-1.091 0 0 0 .81-2.5.53-5.223l-.031-.063z" id="aPath"/><path d="M212.208 4.747c.374 2.28-1.84 4.273-1.34 8.989l1.06-.253c-.5-2.5 0-4.843.311-5.792.031 1.297.093 2.152.28 3.228 1.559-.221 2.774.412 3.71 1.393-.032-1.14.374-1.994.997-2.69-1.153-2.026-2.992-3.735-5.018-4.875zm6.047 4.178l-.655.348s-.031-1.456-1.184-2.816l-.125-.127c1.434.918 2.774 2.532 3.584 4.114l-.685.412c-.281-.697-.593-1.361-.935-1.93z" id="aShape"/><path d="M220.654 14.052c.468 1.804.188 3.482-.81 4.748 1.185-.981 1.777-2.722 1.278-5.127l-.468.38zm-9.35.507c.125 1.013.841 2.88 2.462 3.83l-.03.917c1.121 1.076 3.21.918 4.425.348-.062-1.234-.53-2.88-.997-3.608l-2.151.697.125 2.12c-.374-.95-.78-1.867-1.154-2.817a3.778 3.778 0 0 1-1.371-1.804v.032l-1.31.285zm3.054.98c-.841-.506-1.215-1.613-1.433-2.341l-.53.158-.25-1.709.624-.19.436.823.81-.19.468-.348 1.87 1.266.187-.728.686 1.456-.53.221-.405-.19-.53.19-.748-.57.343 1.108-.998 1.045zm3.055-3.86l1.09.917c.25-.38.344-1.17-.155-1.93l-.935 1.013zm1.465 2.31l.56 1.298-.093-1.456s-.405.158-.467.158zm-1.746.791l1.902.412-1.34.095-1.995.696.03-.76 1.403-.443z" id="aShape"/><path d="M174.291 10.532A5144.127 5144.127 0 0 0 .72 9.225c-1.097.01-.719 1.14-.305 1.74.563.817 1.775 1.926 2.861 1.916a5144.04 5144.04 0 0 1 173.571 1.307c1.111.027.701-1.165.306-1.739-.58-.845-1.759-1.89-2.86-1.917" id="aFill-1"/><path d="M268.775 14.695a2327.233 2327.233 0 0 0 70.688 1.94 2318.03 2318.03 0 0 0 110.041-1.264c1.143-.04 2.48-.463 3.278-1.326.614-.663.479-1.44-.568-1.402a2321.267 2321.267 0 0 1-180.729-.676c-1.111-.047-2.52.506-3.277 1.326-.662.714-.439 1.359.567 1.402" id="aFill-6"/></g></g></g></symbol><symbol viewBox="0 0 178 6" id="3b-divider-line" xmlns="http://www.w3.org/2000/svg"><title>new-divider</title><g id="bPage-1" fill-rule="evenodd"><g id="bpage002" transform="translate(-584 -1669)"><g id="bnew-divider" transform="translate(584 1669)"><path d="M174.291 1.532A5144.127 5144.127 0 0 0 .72.225C-.378.235 0 1.365.414 1.965c.563.817 1.775 1.926 2.861 1.916a5144.04 5144.04 0 0 1 173.571 1.307c1.111.027.701-1.165.306-1.739-.58-.845-1.759-1.89-2.86-1.917" id="bFill-1"/></g></g></g></symbol><symbol viewBox="0 0 512 512" id="addperson" xmlns="http://www.w3.org/2000/svg"><path d="M255.501.499C174.053.499 107.79 66.763 107.79 148.21c0 50.449 25.429 95.065 64.137 121.724-36.139 12.471-69.263 33.071-97.091 60.899C26.577 379.093 0 443.254 0 511.501h39.922c0-118.871 96.708-215.579 215.579-215.579 81.448 0 147.711-66.264 147.711-147.712S336.949.499 255.501.499zm0 255.501c-59.435 0-107.789-48.354-107.789-107.789s48.354-107.79 107.789-107.79S363.29 88.775 363.29 148.211 314.936 256 255.501 256zM428.164 387.743v-83.837h-39.922v83.837h-83.837v39.922h83.837v83.836h39.922v-83.836H512v-39.922z" data-original="#000000"/></symbol><symbol viewBox="0 0 21 34" id="arrow-left" xmlns="http://www.w3.org/2000/svg"><title>arrow-right</title><g id="dPage-1" fill-rule="evenodd"><g id="dpage002" transform="translate(-1388 -1834)" fill-rule="nonzero"><g id="darrow-right" transform="matrix(-1 0 0 1 1409 1834)"><path d="M2.562 2.331C5.272 4.49 7.47 7.15 9.887 9.667c1.172 1.223 2.344 2.445 3.736 3.452 1.318 1.007 2.93 1.798 4.029 3.02.586.72 1.538 1.08 2.49.72.733-.288 1.172-1.223.586-1.87-1.245-1.366-2.783-2.301-4.248-3.38-1.465-1.079-2.71-2.301-3.956-3.596-2.417-2.517-4.688-5.322-7.472-7.48C4.393.03 3.294-.256 2.49.319c-.733.503-.586 1.51.073 2.013z" id="dPath"/><path d="M17.087 15.394C12.152 21.351 4.525 24.553.188 31.031c-.897 1.34 1.645 4.02 2.692 2.531 4.337-6.478 11.963-9.754 16.898-15.636.972-1.191-1.495-3.946-2.691-2.532z" id="dPath"/></g></g></g></symbol><symbol viewBox="0 0 21 34" id="arrow-right" xmlns="http://www.w3.org/2000/svg"><title>arrow-right</title><g id="ePage-1" fill-rule="evenodd"><g id="epage002" transform="translate(-1388 -1751)" fill-rule="nonzero"><g id="earrow-right" transform="translate(1388 1751)"><path d="M2.562 2.331C5.272 4.49 7.47 7.15 9.887 9.667c1.172 1.223 2.344 2.445 3.736 3.452 1.318 1.007 2.93 1.798 4.029 3.02.586.72 1.538 1.08 2.49.72.733-.288 1.172-1.223.586-1.87-1.245-1.366-2.783-2.301-4.248-3.38-1.465-1.079-2.71-2.301-3.956-3.596-2.417-2.517-4.688-5.322-7.472-7.48C4.393.03 3.294-.256 2.49.319c-.733.503-.586 1.51.073 2.013z" id="ePath"/><path d="M17.087 15.394C12.152 21.351 4.525 24.553.188 31.031c-.897 1.34 1.645 4.02 2.692 2.531 4.337-6.478 11.963-9.754 16.898-15.636.972-1.191-1.495-3.946-2.691-2.532z" id="ePath"/></g></g></g></symbol><symbol viewBox="0 0 512 512" id="bonussystem" xmlns="http://www.w3.org/2000/svg"><path d="M456 80H56c-30.878 0-56 25.122-56 56v240c0 30.878 25.122 56 56 56h400c30.878 0 56-25.122 56-56V136c0-30.878-25.122-56-56-56zM56 112h400c13.233 0 24 10.767 24 24v32H32v-32c0-13.233 10.767-24 24-24zm400 288H56c-13.233 0-24-10.767-24-24V200h448v176c0 13.233-10.767 24-24 24z" data-original="#000000"/><path d="M112 352H96c-8.836 0-16-7.164-16-16v-16c0-8.836 7.164-16 16-16h16c8.836 0 16 7.164 16 16v16c0 8.836-7.164 16-16 16z" data-original="#000000"/></symbol><symbol viewBox="0 0 32 32" id="findprice" xmlns="http://www.w3.org/2000/svg"><path d="M23.75 0H8.25c-1.77 0-3.2 1.44-3.2 3.2v27.73c0 .43.25.81.64.98s.84.09 1.15-.2l3.88-3.63 4.61 3.69c.39.31.95.31 1.34 0l4.61-3.69 3.88 3.63c.64.64 1.83.13 1.79-.78V3.2c0-1.76-1.43-3.2-3.2-3.2zM19.6 17.65c-.95 0-1.72-.77-1.72-1.73 0-.95.77-1.72 1.72-1.72a1.724 1.724 0 1 1 0 3.45zm-8.93-8.94c0-.95.77-1.72 1.73-1.72.95 0 1.72.77 1.72 1.72a1.724 1.724 0 1 1-3.45 0zm3.45 10.01a1.062 1.062 0 0 1-1-1.42l3.75-10.67c.2-.55.8-.85 1.36-.65s.85.8.65 1.36l-3.75 10.67c-.15.44-.57.71-1.01.71z" data-original="#000000"/></symbol><symbol viewBox="0 0 512 512" id="giftcert" xmlns="http://www.w3.org/2000/svg"><path d="M241 196c0-24.813-20.187-45-45-45-11.517 0-22.032 4.354-30 11.495-7.968-7.141-18.483-11.495-30-11.495-24.813 0-45 20.187-45 45a44.79 44.79 0 0 0 2.58 15H60v150h211V211h-32.58a44.79 44.79 0 0 0 2.58-15zm-45-15c8.271 0 15 6.729 15 15s-6.729 15-15 15h-15v-15c0-8.271 6.729-15 15-15zm-75 15c0-8.271 6.729-15 15-15s15 6.729 15 15v15h-15c-8.271 0-15-6.729-15-15zm-31 45h61v30H90zm0 60h61v30H90zm151 30h-60v-30h60zm0-60h-60v-30h60z" data-original="#000000"/><path d="M0 421h512V91H0zm30-300h452v270H30z" data-original="#000000"/><path d="M331 301h91v30h-91zM331 241h91v30h-91zM331 181h91v30h-91z" data-original="#000000"/></symbol><symbol viewBox="0 0 505.994 505.994" id="kid" xmlns="http://www.w3.org/2000/svg"><path d="M216.784 280.57c0-26.935-21.913-48.848-48.848-48.848s-48.849 21.913-48.849 48.848h29.648c0-10.587 8.614-19.2 19.201-19.2s19.2 8.613 19.2 19.2zM338.058 231.721c-26.935 0-48.848 21.913-48.848 48.848h29.648c0-10.587 8.613-19.2 19.2-19.2s19.201 8.613 19.201 19.2h29.648c0-26.935-21.913-48.848-48.849-48.848zM252.997 367.32c-18.744 0-36.319-10.052-45.869-26.234l-25.534 15.066c14.856 25.176 42.216 40.815 71.402 40.815s56.546-15.639 71.402-40.815l-25.534-15.067c-9.548 16.182-27.124 26.235-45.867 26.235z" data-original="#000000"/><path d="M486.704 228.061c-9.442-9.431-21.299-15.667-34.169-18.109-27.794-85.888-108.42-145.023-199.538-145.023h-9.939c-23.868 0-43.286-19.419-43.286-43.286h-29.648c0 16.196 5.313 31.17 14.278 43.286h-9.393c-23.868 0-43.286-19.419-43.286-43.286h-29.648c0 32.213 20.999 59.596 50.02 69.226-45.899 25.234-81.875 67.29-98.635 119.083-12.87 2.442-24.73 8.68-34.18 18.12C6.847 240.518 0 257.056 0 274.64c0 17.368 6.7 33.754 18.867 46.141 9.509 9.681 21.518 16.069 34.593 18.548 27.792 85.888 108.418 145.022 199.537 145.022s171.744-59.134 199.537-145.022c13.075-2.479 25.084-8.867 34.593-18.548 12.167-12.387 18.867-28.773 18.867-46.141 0-17.584-6.847-34.122-19.29-46.579zm-45.85 82.771l-11.125.211-2.905 10.741c-21.164 78.26-92.644 132.918-173.828 132.918S100.333 400.045 79.17 321.784l-2.905-10.741-11.125-.211c-19.571-.37-35.493-16.605-35.493-36.192 0-9.671 3.767-18.768 10.595-25.604 6.659-6.652 15.501-10.413 24.895-10.589l11.127-.209 2.905-10.743c21.164-78.259 92.644-132.917 173.828-132.917 26.795 0 48.594 21.799 48.594 48.594s-21.799 48.595-48.594 48.595-48.594-21.799-48.594-48.594h-29.648c0 43.143 35.099 78.242 78.242 78.242s78.242-35.099 78.242-78.242a77.756 77.756 0 0 0-7.912-34.251c49.725 21.151 88.779 64.152 103.497 118.574l2.905 10.743 11.127.209c9.395.176 18.236 3.937 24.884 10.577 6.84 6.848 10.607 15.945 10.607 25.616-.001 19.587-15.923 35.822-35.493 36.191z" data-original="#000000"/></symbol><symbol viewBox="0 0 60 20" id="long-arrow-left" xmlns="http://www.w3.org/2000/svg"><title>long-arrow-right</title><g id="jPage-1" fill-rule="evenodd"><g id="jpage002" transform="translate(-1280 -1608)" fill-rule="nonzero"><g id="jlong-arrow-right" transform="matrix(-1 0 0 1 1340 1608)"><path d="M49.26 1.383c1.579 1.28 2.859 2.86 4.267 4.353.682.725 1.365 1.45 2.176 2.048.768.597 1.707 1.066 2.347 1.792.341.426.896.64 1.45.426.427-.17.683-.725.342-1.109-.726-.81-1.622-1.365-2.475-2.005-.853-.64-1.579-1.366-2.304-2.134-1.408-1.493-2.731-3.157-4.352-4.437-.384-.3-1.024-.47-1.494-.128a.764.764 0 0 0 .043 1.194z" id="jPath"/><path d="M57.879 9.021c-2.816 3.414-7.168 5.248-9.643 8.96-.512.769.938 2.305 1.536 1.451 2.475-3.712 6.827-5.59 9.643-8.96.555-.683-.853-2.262-1.536-1.45zM51.777 8.552c-13.483.042-26.924.256-40.408.64-3.755.128-7.51.213-11.264.384-.299 0 .128.682.213.768.128.213.597.981.896.981 13.44-.47 26.924-.81 40.408-.938 3.755-.043 7.51-.043 11.265-.086.298 0-.128-.683-.214-.768-.17-.256-.597-.981-.896-.981z" id="jPath"/></g></g></g></symbol><symbol viewBox="0 0 60 20" id="long-arrow-right" xmlns="http://www.w3.org/2000/svg"><title>long-arrow-right</title><g id="kPage-1" fill-rule="evenodd"><g id="kpage002" transform="translate(-1277 -1548)" fill-rule="nonzero"><g id="klong-arrow-right" transform="translate(1277 1548)"><path d="M49.26 1.383c1.579 1.28 2.859 2.86 4.267 4.353.682.725 1.365 1.45 2.176 2.048.768.597 1.707 1.066 2.347 1.792.341.426.896.64 1.45.426.427-.17.683-.725.342-1.109-.726-.81-1.622-1.365-2.475-2.005-.853-.64-1.579-1.366-2.304-2.134-1.408-1.493-2.731-3.157-4.352-4.437-.384-.3-1.024-.47-1.494-.128a.764.764 0 0 0 .043 1.194z" id="kPath"/><path d="M57.879 9.021c-2.816 3.414-7.168 5.248-9.643 8.96-.512.769.938 2.305 1.536 1.451 2.475-3.712 6.827-5.59 9.643-8.96.555-.683-.853-2.262-1.536-1.45zM51.777 8.552c-13.483.042-26.924.256-40.408.64-3.755.128-7.51.213-11.264.384-.299 0 .128.682.213.768.128.213.597.981.896.981 13.44-.47 26.924-.81 40.408-.938 3.755-.043 7.51-.043 11.265-.086.298 0-.128-.683-.214-.768-.17-.256-.597-.981-.896-.981z" id="kPath"/></g></g></g></symbol><symbol viewBox="0 0 512 512" id="map-pin" xmlns="http://www.w3.org/2000/svg"><path d="M256 0C153.755 0 70.573 83.182 70.573 185.426c0 126.888 165.939 313.167 173.004 321.035 6.636 7.391 18.222 7.378 24.846 0 7.065-7.868 173.004-194.147 173.004-321.035C441.425 83.182 358.244 0 256 0zm0 278.719c-51.442 0-93.292-41.851-93.292-93.293S204.559 92.134 256 92.134s93.291 41.851 93.291 93.293-41.85 93.292-93.291 93.292z"/></symbol><symbol viewBox="0 0 16 16" id="minus" xmlns="http://www.w3.org/2000/svg"><rect x="2" y="7" width="12" height="2" rx="1"/></symbol><symbol id="ordercall" viewBox="0 0 512 512" xmlns="http://www.w3.org/2000/svg"><path d="M498.1 375.8l-71.5-71.5c-25.5-25.5-68.9-15.3-79.1 17.9-7.7 23-33.2 35.7-56.1 30.6-51-12.8-119.9-79.1-132.7-132.7-7.7-23 7.7-48.5 30.6-56.1 33.2-10.2 43.4-53.6 17.9-79.1l-71.5-71.5c-20.4-17.9-51-17.9-68.9 0L18.3 61.9c-48.5 51 5.1 186.3 125 306.2s255.2 176.1 306.2 125l48.5-48.5c17.9-20.4 17.9-51 .1-68.8zM481.6 86.8h-57.9V28.9c0-14.2-12-25.9-26.2-25.9s-26.2 11.7-26.2 25.9v57.9h-57.9c-14.2 0-25.9 12-25.9 26.2s11.7 26.2 25.9 26.2h57.9v57.9c0 14.2 12 25.9 26.2 25.9s26.2-11.7 26.2-25.9v-57.9h57.9c14.2 0 25.9-12 25.9-26.2s-11.7-26.2-25.9-26.2z"/></symbol><symbol viewBox="0 0 32 32" id="people" xmlns="http://www.w3.org/2000/svg"><path d="M15.867 14.881a4.941 4.941 0 1 0-4.941-4.94 4.946 4.946 0 0 0 4.941 4.94zm0-7.881a2.941 2.941 0 1 1-2.941 2.941A2.945 2.945 0 0 1 15.867 7zM6.533 17.785a3.8 3.8 0 1 0-3.8-3.8 3.8 3.8 0 0 0 3.8 3.8zm0-5.6a1.8 1.8 0 1 1-1.8 1.8 1.8 1.8 0 0 1 1.8-1.8zM25.2 17.785a3.8 3.8 0 1 0-3.8-3.8 3.8 3.8 0 0 0 3.8 3.8zm0-5.6a1.8 1.8 0 1 1-1.8 1.8 1.8 1.8 0 0 1 1.8-1.8zM25.333 19.791a5.269 5.269 0 0 0-2.506.653A8.237 8.237 0 0 0 16 16.607a8.237 8.237 0 0 0-6.827 3.837 5.269 5.269 0 0 0-2.506-.653A5.963 5.963 0 0 0 1 26a1 1 0 0 0 2 0 3.971 3.971 0 0 1 3.667-4.209 3.272 3.272 0 0 1 1.577.419 10.085 10.085 0 0 0-.711 3.732 1 1 0 0 0 2 0c0-4.045 2.9-7.335 6.467-7.335s6.467 3.29 6.467 7.335a1 1 0 0 0 2 0 10.085 10.085 0 0 0-.711-3.732 3.272 3.272 0 0 1 1.577-.419A3.971 3.971 0 0 1 29 26a1 1 0 0 0 2 0 5.963 5.963 0 0 0-5.667-6.209z" data-original="#000000"/></symbol><symbol id="phone" viewBox="0 0 512 512" xmlns="http://www.w3.org/2000/svg"><path d="M498.1 375.8l-71.5-71.5c-25.5-25.5-68.9-15.3-79.1 17.9-7.7 23-33.2 35.7-56.1 30.6-51-12.8-119.9-79.1-132.7-132.7-7.7-23 7.7-48.5 30.6-56.1 33.2-10.2 43.4-53.6 17.9-79.1l-71.5-71.5c-20.4-17.9-51-17.9-68.9 0L18.3 61.9c-48.5 51 5.1 186.3 125 306.2s255.2 176.1 306.2 125l48.5-48.5c17.9-20.4 17.9-51 .1-68.8z"/></symbol><symbol viewBox="0 0 16 16" id="plus" xmlns="http://www.w3.org/2000/svg"><path d="M2 8a1 1 0 0 1 1-1h10a1 1 0 1 1 0 2H3a1 1 0 0 1-1-1z"/><path d="M8 2a1 1 0 0 1 1 1v10a1 1 0 1 1-2 0V3a1 1 0 0 1 1-1z"/></symbol><symbol id="stars" viewBox="0 0 171 171" xmlns="http://www.w3.org/2000/svg"><style>.rst0{fill:#010101}</style><path class="rst0" d="M112 19.6c23 10.3 41.7 36.3 39.3 67.7-2.6 32.8-26.7 57.6-56.7 62.9-33.6 6-63.1-12.6-75-38.4 29 11.3 55.8 7.9 78.1-14.3 22.2-22.3 25.6-49.1 14.3-77.9zM10.9 50.3c2.2-5.7 4.3-11.3 6.4-16.9.3-.8-.1-1.1-.6-1.4L4.4 22.7c-.4-.3-.8-.7-1.6-1.2h11.4c1.9 0 3.9-.1 5.8 0 1.1.1 1.5-.3 1.8-1.4 1.6-5.6 3.2-11.2 4.8-17 .6.6.6 1.3.8 1.8 1.5 5.1 2.9 10.2 4.4 15.3.3.9.7 1.3 1.7 1.2 5.6-.1 11.3 0 17.4 0-4 3-7.6 5.8-11.2 8.5-1.2.9-3 1.7-3.3 2.8-.3 1.2.8 2.8 1.3 4.1 1.5 3.9 3 7.8 4.4 11.8.2.5.6 1 .3 1.8-1.7-1.1-3.3-2.2-4.9-3.3-3.2-2.1-6.4-4.2-9.5-6.4-.9-.6-1.5-.6-2.3 0-4.4 3-8.8 6-13.2 8.9-.5.3-.8.8-1.6.7z"/><path class="rst0" d="M61.6 82.2c2.2-5.7 4.3-11.3 6.4-16.9.3-.8-.2-1.1-.7-1.4-4.1-3.1-8.2-6.2-12.3-9.4-.4-.3-.8-.6-1.5-1.2h17c1.3 0 1.8-.3 2.1-1.6 1.5-5.6 3.2-11.1 4.9-17.2 1 3.3 1.8 6.1 2.6 8.9.8 2.8 1.6 5.6 2.4 8.5.3 1 .6 1.4 1.8 1.4 5.1-.1 10.2 0 15.3 0h2c-4.5 3.4-8.6 6.5-12.7 9.7-2.1 1.6-2.1 1.6-1.2 4l5.1 13.5c.2.5.7 1.1.3 1.9-2.2-1.5-4.4-2.9-6.6-4.4-2.5-1.7-5.1-3.4-7.5-5.1-1-.7-1.7-.8-2.7 0-4.3 3-8.7 5.9-13.1 8.8-.5.2-.9.7-1.6.5zM136.1 146.6H147c1 0 1.4-.3 1.8-1.2 1-3.1 2.1-6.1 3.3-9.6 1.2 3.4 2.3 6.3 3.3 9.3.4 1.3 1 1.6 2.2 1.5 3.4-.1 6.8 0 10.6 0-2.6 2.2-5 4.1-7.4 6-2.5 2-2.5 2-1.5 5.1 1 2.8 1.9 5.6 2.9 8.5.1.4.4.8.2 1.5-2.2-1.6-4.3-3.3-6.5-4.8-1.2-.9-2.4-2.6-3.8-2.5-1.3.1-2.5 1.6-3.8 2.5-2.2 1.6-4.3 3.2-6.9 5.2 1.3-3.8 2.4-7 3.5-10.3 1-3.1 1-3-1.5-5.1-2.3-2-4.6-3.9-7.3-6.1z"/></symbol><symbol id="sun" viewBox="0 0 227.2 227.2" xmlns="http://www.w3.org/2000/svg"><style>.sst0{fill:#010101}</style><path class="sst0" d="M223.1 121.2c-5.4 1.6-9.7-.5-13.4-4.2-3.1-3.2-5.4-6.9-7.3-10.8-2.4-4.8-5.7-8.9-9.8-12.4-3.5-3-7.5-5.1-12.1-6.8 6.1-6.1 10.6-13 13.5-20.9 2.9-7.8 4-20.7 2.3-24.5-2.1 4.2-5.6 6.1-10.1 6.5-5.4.5-10.5-.9-15.6-2.5-4.9-1.6-9.8-2.2-15-1.7-4.7.4-9.1 1.8-13.4 3.7-.1-17.9-6.9-32.4-20.9-43.4 1.7 5 .1 9.1-3.2 12.7-3.4 3.7-7.7 6.1-12.1 8.4-8.5 4.3-14.4 10.9-18 19.6-.3.6-.2 1.4-.9 1.7C72.9 31.9 52.7 28.5 41.7 31c4.5 2.2 6.3 6 6.6 10.7.4 5.2-.9 10.1-2.5 14.9-1.9 6-2.4 12.2-1.2 18.5.6 3.4 1.9 6.6 3.2 9.9-17.9.1-32.3 7-43.7 21 1.4-.3 2.2-.5 3.1-.6 4.2-.5 7.4 1.4 10.3 4.1 3.6 3.4 6 7.7 8.2 12 3.5 6.8 8.7 12 15.4 15.7 1.9 1.1 3.9 1.9 5.9 2.8-14.7 14.1-18.2 34.3-15.7 45.4 2.2-4.4 5.9-6.3 10.5-6.6 5.2-.4 10.2.9 15.1 2.5 7.6 2.5 15.2 2.5 22.8.2 1.9-.6 3.7-1.4 5.6-2.1.1 17.9 6.9 32.2 20.9 43.6-1.2-6.5-.1-10 4.5-14.3 3.2-3 7-5.1 10.9-7.1 8.5-4.3 14.4-11 18-19.8.2-.5.1-1.2.9-1.4 12.6 12.3 27.6 17.7 45.2 15.7-4.4-2.4-6.2-6.1-6.5-10.7-.4-5.2.9-10.2 2.5-15.1 1.5-4.9 2.2-9.8 1.7-15-.4-4.7-1.8-9-3.7-13.4 17.9 0 32.4-6.9 43.4-20.7zm-109.5 55.9c-35-.1-63.6-28.8-63.5-63.9 0-34.9 28.6-63.5 63.7-63.6 35 0 63.8 28.7 63.8 63.6 0 35.2-28.8 64-64 63.9z"/><path class="sst0" d="M57.1 113.4c0-31.4 25.3-56.7 56.7-56.6 31.4 0 56.6 25.3 56.6 56.8 0 31.4-25.4 56.6-56.9 56.5-31.1-.1-56.4-25.4-56.4-56.7z"/></symbol><symbol viewBox="0 0 512 512" id="tea" xmlns="http://www.w3.org/2000/svg"><path d="M131.618 64.4c-10.719-10.72-10.719-28.066 0-38.786 5.858-5.858 5.858-15.354 0-21.212-5.857-5.858-15.354-5.858-21.212 0-22.39 22.39-22.39 58.82 0 81.21 10.719 10.719 10.719 28.066 0 38.786-5.858 5.858-5.858 15.354 0 21.212 5.857 5.858 15.355 5.858 21.212 0 22.39-22.39 22.39-58.82 0-81.21zM221.615 64.4c-10.719-10.72-10.719-28.066 0-38.786 5.858-5.858 5.858-15.354 0-21.212-5.857-5.858-15.354-5.858-21.212 0-22.39 22.39-22.39 58.82 0 81.21 10.719 10.719 10.719 28.066 0 38.786-5.858 5.858-5.858 15.354 0 21.212 5.857 5.858 15.356 5.858 21.212 0 22.39-22.39 22.39-58.82 0-81.21zM311.612 64.4c-10.719-10.72-10.719-28.066 0-38.786 5.858-5.858 5.858-15.354 0-21.212-5.857-5.858-15.355-5.858-21.212 0-22.39 22.39-22.39 58.82 0 81.21 10.719 10.719 10.719 28.066 0 38.786-5.858 5.858-5.858 15.354 0 21.212 5.857 5.858 15.356 5.858 21.212 0 22.391-22.39 22.391-58.82 0-81.21zM377.004 390.996C451.441 390.996 512 330.436 512 256c0-24.812-20.186-44.999-44.999-44.999h-45.288c.191-4.987.289-9.988.289-15 0-8.284-6.716-15-15-15H15.016c-8.284 0-15 6.716-15 15 0 81.992 26.313 168.005 81.151 225.993H15.016c-11.123 0-18.401 11.737-13.417 21.707a123.437 123.437 0 0 0 45.566 49.837 123.5 123.5 0 0 0 64.956 18.452h197.777c46.779 0 89.58-26.408 110.522-68.29 4.974-9.949-2.268-21.707-13.417-21.707H340.85c8.888-9.398 17.213-19.761 24.889-30.999h11.265zM419.396 241h47.606c8.271 0 15 6.729 15 15 0 55.636-43.5 101.296-98.273 104.776 18.751-36.285 30.715-77.253 35.667-119.776zm-40.755 210.794c-17.41 18.922-42.068 30.199-68.744 30.199H112.121c-26.675 0-51.332-11.277-68.743-30.199h335.263zm-82.48-29.799H125.857c-55.239-41.79-91.772-123.093-95.523-211.193l361.35.2c-3.314 77.844-34.347 164.711-95.523 210.993z" data-original="#000000"/></symbol><symbol viewBox="0 0 24 24" id="telegram" xmlns="http://www.w3.org/2000/svg"><path d="M12 24c6.629 0 12-5.371 12-12S18.629 0 12 0 0 5.371 0 12s5.371 12 12 12zM5.491 11.74l11.57-4.461c.537-.194 1.006.131.832.943l.001-.001-1.97 9.281c-.146.658-.537.818-1.084.508l-3-2.211-1.447 1.394c-.16.16-.295.295-.605.295l.213-3.053 5.56-5.023c.242-.213-.054-.333-.373-.121l-6.871 4.326-2.962-.924c-.643-.204-.657-.643.136-.953z" data-original="#000000"/></symbol><symbol viewBox="0 0 548.358 548.358" id="vk" xmlns="http://www.w3.org/2000/svg"><path d="M545.451 400.298c-.664-1.431-1.283-2.618-1.858-3.569-9.514-17.135-27.695-38.167-54.532-63.102l-.567-.571-.284-.28-.287-.287h-.288c-12.18-11.611-19.893-19.418-23.123-23.415-5.91-7.614-7.234-15.321-4.004-23.13 2.282-5.9 10.854-18.36 25.696-37.397 7.807-10.089 13.99-18.175 18.556-24.267 32.931-43.78 47.208-71.756 42.828-83.939l-1.701-2.847c-1.143-1.714-4.093-3.282-8.846-4.712-4.764-1.427-10.853-1.663-18.278-.712l-82.224.568c-1.332-.472-3.234-.428-5.712.144l-3.713.859-1.431.715-1.136.859c-.952.568-1.999 1.567-3.142 2.995-1.137 1.423-2.088 3.093-2.848 4.996-8.952 23.031-19.13 44.444-30.553 64.238-7.043 11.803-13.511 22.032-19.418 30.693-5.899 8.658-10.848 15.037-14.842 19.126-4 4.093-7.61 7.372-10.852 9.849-3.237 2.478-5.708 3.525-7.419 3.142-1.715-.383-3.33-.763-4.859-1.143-2.663-1.714-4.805-4.045-6.42-6.995-1.622-2.95-2.714-6.663-3.285-11.136-.568-4.476-.904-8.326-1-11.563-.089-3.233-.048-7.806.145-13.706.198-5.903.287-9.897.287-11.991 0-7.234.141-15.085.424-23.555.288-8.47.521-15.181.716-20.125.194-4.949.284-10.185.284-15.705s-.336-9.849-1-12.991a44.442 44.442 0 0 0-2.99-9.137c-1.335-2.95-3.289-5.232-5.853-6.852-2.569-1.618-5.763-2.902-9.564-3.856-10.089-2.283-22.936-3.518-38.547-3.71-35.401-.38-58.148 1.906-68.236 6.855-3.997 2.091-7.614 4.948-10.848 8.562-3.427 4.189-3.905 6.475-1.431 6.851 11.422 1.711 19.508 5.804 24.267 12.275l1.715 3.429c1.334 2.474 2.666 6.854 3.999 13.134 1.331 6.28 2.19 13.227 2.568 20.837.95 13.897.95 25.793 0 35.689-.953 9.9-1.853 17.607-2.712 23.127-.859 5.52-2.143 9.993-3.855 13.418-1.715 3.426-2.856 5.52-3.428 6.28-.571.76-1.047 1.239-1.425 1.427a21.387 21.387 0 0 1-7.71 1.431c-2.667 0-5.901-1.334-9.707-4-3.805-2.666-7.754-6.328-11.847-10.992-4.093-4.665-8.709-11.184-13.85-19.558-5.137-8.374-10.467-18.271-15.987-29.691l-4.567-8.282c-2.855-5.328-6.755-13.086-11.704-23.267-4.952-10.185-9.329-20.037-13.134-29.554-1.521-3.997-3.806-7.04-6.851-9.134l-1.429-.859c-.95-.76-2.475-1.567-4.567-2.427a30.301 30.301 0 0 0-6.567-1.854l-78.229.568c-7.994 0-13.418 1.811-16.274 5.428l-1.143 1.711c-.571.953-.859 2.475-.859 4.57 0 2.094.571 4.664 1.714 7.707 11.42 26.84 23.839 52.725 37.257 77.659 13.418 24.934 25.078 45.019 34.973 60.237 9.897 15.229 19.985 29.602 30.264 43.112 10.279 13.515 17.083 22.176 20.412 25.981 3.333 3.812 5.951 6.662 7.854 8.565l7.139 6.851c4.568 4.569 11.276 10.041 20.127 16.416 8.853 6.379 18.654 12.659 29.408 18.85 10.756 6.181 23.269 11.225 37.546 15.126 14.275 3.905 28.169 5.472 41.684 4.716h32.834c6.659-.575 11.704-2.669 15.133-6.283l1.136-1.431c.764-1.136 1.479-2.901 2.139-5.276.668-2.379 1-5 1-7.851-.195-8.183.428-15.558 1.852-22.124 1.423-6.564 3.045-11.513 4.859-14.846 1.813-3.33 3.859-6.14 6.136-8.418 2.282-2.283 3.908-3.666 4.862-4.142.948-.479 1.705-.804 2.276-.999 4.568-1.522 9.944-.048 16.136 4.429 6.187 4.473 11.99 9.996 17.418 16.56 5.425 6.57 11.943 13.941 19.555 22.124 7.617 8.186 14.277 14.271 19.985 18.274l5.708 3.426c3.812 2.286 8.761 4.38 14.853 6.283 6.081 1.902 11.409 2.378 15.984 1.427l73.087-1.14c7.229 0 12.854-1.197 16.844-3.572 3.998-2.379 6.373-5 7.139-7.851.764-2.854.805-6.092.145-9.712-.677-3.611-1.344-6.136-2.008-7.563z" data-original="#000000"/></symbol><symbol viewBox="0 0 682 682.66669" id="whatsapp" xmlns="http://www.w3.org/2000/svg"><path d="M544.387 93.008C484.512 33.063 404.883.035 320.05 0 145.246 0 2.98 142.262 2.91 317.113c-.024 55.895 14.577 110.457 42.331 158.551L.25 640l168.121-44.102c46.324 25.27 98.477 38.586 151.55 38.602h.134c174.785 0 317.066-142.273 317.132-317.133.036-84.742-32.921-164.418-92.8-224.36zM320.05 580.94h-.11c-47.296-.02-93.683-12.73-134.16-36.742l-9.62-5.715-99.766 26.172 26.628-97.27-6.27-9.972c-26.386-41.969-40.32-90.476-40.296-140.281.055-145.332 118.305-263.57 263.7-263.57 70.406.023 136.59 27.476 186.355 77.3s77.156 116.051 77.133 186.485C583.582 462.69 465.34 580.94 320.05 580.94zm144.586-197.418c-7.922-3.968-46.883-23.132-54.149-25.78-7.258-2.645-12.547-3.962-17.824 3.968-5.285 7.93-20.469 25.781-25.094 31.066-4.625 5.29-9.242 5.953-17.168 1.985-7.925-3.965-33.457-12.336-63.726-39.332-23.555-21.012-39.457-46.961-44.082-54.89-4.617-7.938-.04-11.813 3.476-16.173 8.578-10.652 17.168-21.82 19.809-27.105 2.644-5.29 1.32-9.918-.664-13.883-1.977-3.965-17.824-42.969-24.426-58.84-6.437-15.445-12.965-13.36-17.832-13.601-4.617-.231-9.902-.278-15.187-.278-5.282 0-13.868 1.98-21.133 9.918-7.262 7.934-27.73 27.102-27.73 66.106s28.394 76.683 32.355 81.972c3.96 5.29 55.879 85.328 135.367 119.649 18.906 8.172 33.664 13.043 45.176 16.695 18.984 6.031 36.254 5.18 49.91 3.14 15.226-2.277 46.879-19.171 53.488-37.68 6.602-18.51 6.602-34.374 4.617-37.683-1.976-3.304-7.261-5.285-15.183-9.254zm0 0" fill-rule="evenodd" data-original="#000000"/></symbol><symbol viewBox="0 0 896 896" id="youtube" xmlns="http://www.w3.org/2000/svg"><path d="M877.3 232.1a112.302 112.302 0 0 0-79.2-79.3C728.2 134 448 134 448 134s-280.2 0-350.1 18.7A112.125 112.125 0 0 0 18.7 232C0 302 0 448 0 448s0 146 18.7 215.9c10.3 38.6 40.7 69 79.2 79.3C167.8 762 448 762 448 762s280.2 0 350.1-18.8c38.6-10.3 68.9-40.7 79.2-79.3C896 594 896 448 896 448s0-146-18.7-215.9zM359 582V314l232 133-232 135z"/></symbol></svg>