<?xml version="1.0" encoding="utf-8"?><svg xmlns="http://www.w3.org/2000/svg" xmlns:xlink="http://www.w3.org/1999/xlink"><symbol viewBox="0 0 10 11" id="arrow-up" xmlns="http://www.w3.org/2000/svg"><path fill-rule="evenodd" clip-rule="evenodd" d="M.406 6.238a.812.812 0 010-1.148l4.02-4.02a.812.812 0 011.148 0l.004.004L9.594 5.09a.812.812 0 01-1.149 1.148L5.841 3.634v6.386a.812.812 0 11-1.624 0V3.575L1.554 6.238a.812.812 0 01-1.148 0z"/></symbol><symbol viewBox="0 0 16 16" id="minus" xmlns="http://www.w3.org/2000/svg"><rect x="2" y="7" width="12" height="2" rx="1"/></symbol><symbol viewBox="0 0 16 16" id="plus" xmlns="http://www.w3.org/2000/svg"><path d="M2 8a1 1 0 011-1h10a1 1 0 110 2H3a1 1 0 01-1-1z"/><path d="M8 2a1 1 0 011 1v10a1 1 0 11-2 0V3a1 1 0 011-1z"/></symbol></svg>